<svg width="318" height="106" viewBox="0 0 318 106" fill="none" xmlns="http://www.w3.org/2000/svg">
<path d="M1 105H1.11579H1.23159H1.34738H1.46317H1.57897H1.69476H1.81055L1.92635 104.974L2.04214 104.99L2.15793 104.995H2.27373L2.38952 105L2.50531 104.99H2.62111L2.7369 104.995H2.85269L2.96849 105H3.08428L3.20007 104.995H3.31587L3.43166 105H3.54745L3.66325 104.99L3.77904 105H3.89483H4.01063H4.12642H4.24221H4.35801H4.4738H4.58959H4.70539H4.82118H4.93697H5.05277H5.16856H5.28435H5.40015H5.51594H5.63173H5.74753H5.86332H5.97911H6.09491H6.2107H6.32649H6.44229H6.55808H6.67387H6.78967H6.90546H7.02125H7.13705H7.25284H7.36863H7.48443H7.60022H7.71601H7.83181H7.9476H8.06339H8.17919H8.29498H8.41077H8.52657H8.64236H8.75815H8.87395H8.98974H9.10553H9.22133H9.33712H9.45291H9.56871H9.6845H9.80029H9.91609H10.0319H10.1477H10.2635H10.3793H10.4951H10.6108H10.7266H10.8424H10.9582H11.074H11.1898H11.3056H11.4214H11.5372H11.653H11.7688H11.8846H12.0004H12.1162H12.232H12.3477H12.4635H12.5793H12.6951H12.8109H12.9267H13.0425H13.1583H13.2741H13.3899H13.5057H13.6215H13.7373H13.8531H13.9689H14.0846H14.2004H14.3162H14.432H14.5478H14.6636H14.7794H14.8952H15.011H15.1268H15.2426H15.3584H15.4742H15.59H15.7058H15.8215H15.9373H16.0531H16.1689H16.2847H16.4005H16.5163H16.6321H16.7479H16.8637L16.9795 104.995L17.0953 105H17.2111H17.3269H17.4427H17.5584H17.6742H17.79H17.9058H18.0216H18.1374H18.2532H18.369H18.4848H18.6006H18.7164H18.8322H18.948H19.0638H19.1796H19.2953H19.4111H19.5269H19.6427H19.7585H19.8743H19.9901H20.1059H20.2217H20.3375H20.4533H20.5691H20.6849H20.8007H20.9165H21.0322H21.148H21.2638H21.3796H21.4954H21.6112L21.727 104.995H21.8428H21.9586H22.0744H22.1902H22.306H22.4218L22.5376 105L22.6534 104.995L22.7691 105L22.8849 104.995H23.0007L23.1165 104.99L23.2323 104.995H23.3481H23.4639H23.5797H23.6955H23.8113H23.9271H24.0429H24.1587H24.2745H24.3903H24.506H24.6218H24.7376H24.8534H24.9692L25.085 104.984L25.2008 104.99L25.3166 104.995H25.4324H25.5482H25.664H25.7798H25.8956H26.0114H26.1272H26.2429H26.3587H26.4745H26.5903H26.7061H26.8219H26.9377H27.0535H27.1693H27.2851H27.4009H27.5167H27.6325H27.7483H27.8641H27.9798H28.0956H28.2114H28.3272H28.443H28.5588H28.6746H28.7904H28.9062H29.022H29.1378H29.2536H29.3694H29.4852H29.601H29.7167H29.8325H29.9483H30.0641H30.1799H30.2957H30.4115H30.5273H30.6431L30.7589 105L30.8747 104.995H30.9905H31.1063L31.2221 105L31.3379 104.995H31.4536H31.5694H31.6852H31.801H31.9168H32.0326H32.1484H32.2642L32.38 105H32.4958H32.6116H32.7274L32.8432 104.995H32.959H33.0748H33.1905H33.3063H33.4221H33.5379H33.6537H33.7695H33.8853H34.0011H34.1169H34.2327H34.3485H34.4643H34.5801H34.6959H34.8117H34.9274H35.0432H35.159H35.2748H35.3906H35.5064H35.6222H35.738H35.8538H35.9696H36.0854H36.2012H36.317H36.4328H36.5486H36.6643H36.7801H36.8959H37.0117H37.1275L37.2433 104.99L37.3591 104.995H37.4749H37.5907H37.7065H37.8223H37.9381H38.0539H38.1697L38.2855 104.99L38.4012 104.974H38.517L38.6328 104.995H38.7486L38.8644 104.99L38.9802 104.995H39.096H39.2118H39.3276H39.4434H39.5592H39.675H39.7908L39.9066 104.99L40.0224 104.995H40.1381H40.2539H40.3697H40.4855H40.6013H40.7171H40.8329H40.9487H41.0645H41.1803H41.2961H41.4119H41.5277H41.6435H41.7593H41.875H41.9908H42.1066L42.2224 104.99L42.3382 104.995H42.454H42.5698H42.6856H42.8014H42.9172H43.033L43.1488 104.99L43.2646 104.995H43.3804H43.4961H43.6119H43.7277H43.8435H43.9593H44.0751H44.1909H44.3067H44.4225H44.5383H44.6541H44.7699H44.8857H45.0015H45.1173H45.2331H45.3488H45.4646H45.5804H45.6962H45.812H45.9278H46.0436L46.1594 104.99L46.2752 104.995H46.391H46.5068H46.6226H46.7384H46.8542H46.97H47.0857H47.2015H47.3173H47.4331H47.5489H47.6647H47.7805H47.8963H48.0121H48.1279H48.2437H48.3595H48.4753H48.5911H48.7068H48.8226H48.9384H49.0542H49.17H49.2858H49.4016H49.5174L49.6332 104.99H49.749H49.8648H49.9806L50.0964 104.984H50.2122L50.328 104.99L50.4438 104.995H50.5595L50.6753 104.99H50.7911H50.9069H51.0227H51.1385H51.2543H51.3701H51.4859H51.6017L51.7175 104.995H51.8333L51.9491 104.99L52.0649 104.979L52.1807 104.99H52.2964H52.4122H52.528H52.6438L52.7596 104.984L52.8754 104.99L52.9912 104.995H53.107H53.2228H53.3386H53.4544H53.5702H53.686H53.8018H53.9175H54.0333H54.1491H54.2649H54.3807H54.4965H54.6123H54.7281H54.8439H54.9597H55.0755H55.1913H55.3071H55.4229H55.5387H55.6545H55.7702H55.886H56.0018H56.1176H56.2334H56.3492H56.465H56.5808H56.6966H56.8124H56.9282H57.044L57.1598 104.99H57.2756H57.3914H57.5071L57.6229 104.995H57.7387H57.8545L57.9703 105H58.0861L58.2019 104.995H58.3177H58.4335L58.5493 104.912L58.6651 104.995H58.7809H58.8967H59.0125H59.1282H59.244H59.3598H59.4756H59.5914H59.7072H59.823H59.9388H60.0546H60.1704L60.2862 105H60.402H60.5178H60.6336L60.7494 104.995H60.8652H60.9809H61.0967H61.2125H61.3283H61.4441H61.5599H61.6757H61.7915H61.9073H62.0231H62.1389H62.2547H62.3705H62.4863H62.6021H62.7178H62.8336H62.9494H63.0652H63.181H63.2968H63.4126H63.5284H63.6442H63.76H63.8758H63.9916H64.1074H64.2232H64.3389H64.4547H64.5705H64.6863H64.8021H64.9179H65.0337H65.1495H65.2653H65.3811H65.4969H65.6127H65.7285H65.8443H65.9601H66.0759H66.1916H66.3074H66.4232L66.539 104.99L66.6548 104.995H66.7706H66.8864H67.0022H67.118H67.2338H67.3496H67.4654H67.5812H67.697H67.8128H67.9285H68.0443L68.1601 104.99L68.2759 104.995H68.3917H68.5075H68.6233H68.7391H68.8549H68.9707H69.0865L69.2023 104.99H69.3181H69.4339L69.5496 104.984H69.6654H69.7812L69.897 104.979H70.0128L70.1286 104.99L70.2444 104.984H70.3602H70.476H70.5918H70.7076L70.8234 104.979L70.9392 104.984L71.055 104.979H71.1708H71.2866H71.4023H71.5181H71.6339H71.7497H71.8655L71.9813 104.984H72.0971L72.2129 104.979L72.3287 104.984H72.4445H72.5603H72.6761L72.7919 104.979L72.9077 104.984L73.0235 104.974L73.1392 104.979H73.255H73.3708H73.4866H73.6024H73.7182H73.834H73.9498L74.0656 104.974H74.1814L74.2972 104.979L74.413 104.974L74.5288 104.979H74.6446L74.7603 104.974H74.8761H74.9919L75.1077 104.964H75.2235L75.3393 104.958L75.4551 104.969L75.5709 104.958L75.6867 104.964L75.8025 104.958L75.9183 104.953L76.0341 104.964L76.1499 104.958H76.2657H76.3815L76.4973 104.953H76.613H76.7288L76.8446 104.948H76.9604L77.0762 104.927L77.192 104.943L77.3078 104.932L77.4236 104.922L77.5394 104.917L77.6552 104.912L77.771 104.88L77.8868 104.854L78.0026 104.891L78.1184 104.896L78.2342 104.901L78.3499 104.891L78.4657 104.875L78.5815 104.802L78.6973 104.647L78.8131 104.854L78.9289 104.828L79.0447 104.849L79.1605 104.818L79.2763 104.849L79.3921 104.818L79.5079 104.823L79.6237 104.828L79.7395 104.834L79.8553 104.823L79.971 104.771L80.0868 104.641L80.2026 104.787L80.3184 104.818L80.4342 104.808H80.55L80.6658 104.813H80.7816L80.8974 104.818L81.0132 104.574L81.129 104.303L81.2448 104.6L81.3606 104.709L81.4764 104.595L81.5922 104.74L81.7079 104.636L81.8237 104.802L81.9395 104.537L82.0553 104.73L82.1711 104.797L82.2869 104.823L82.4027 104.813L82.5185 104.797L82.6343 104.813L82.7501 104.792L82.8659 104.839L82.9817 104.849L83.0975 104.813L83.2133 104.86L83.3291 104.906L83.4449 104.901L83.5606 104.865H83.6764L83.7922 104.886L83.908 104.891L84.0238 104.912L84.1396 104.886L84.2554 104.818L84.3712 104.88H84.487L84.6028 104.849L84.7186 104.87H84.8344L84.9502 104.86L85.066 104.844L85.1817 104.86L85.2975 104.875L85.4133 104.886L85.5291 104.891L85.6449 104.896L85.7607 104.901L85.8765 104.86L85.9923 104.886H86.1081L86.2239 104.901L86.3397 104.88L86.4555 104.875L86.5713 104.839L86.6871 104.834L86.8029 104.854H86.9186L87.0344 104.839H87.1502L87.266 104.86L87.3818 104.87L87.4976 104.86L87.6134 104.558L87.7292 104.75L87.845 104.652L87.9608 104.808L88.0766 104.854L88.1924 104.86L88.3082 104.854L88.424 104.86L88.5398 104.844L88.6556 104.849L88.7713 104.834L88.8871 104.844L89.0029 104.839L89.1187 104.745L89.2345 104.782L89.3503 104.61L89.4661 104.73L89.5819 104.662L89.6977 104.818L89.8135 104.828L89.9293 104.771L90.0451 104.724L90.1609 104.714L90.2767 104.74L90.3924 104.818L90.5082 104.802L90.624 104.834L90.7398 104.802L90.8556 104.818L90.9714 104.875L91.0872 104.808L91.203 104.766L91.3188 104.828H91.4346L91.5504 104.834L91.6662 104.704L91.782 104.865L91.8978 104.844L92.0136 104.818L92.1293 104.771L92.2451 104.808L92.3609 104.813L92.4767 104.782L92.5925 104.823L92.7083 104.844L92.8241 104.802H92.9399L93.0557 104.818L93.1715 104.823L93.2873 104.808L93.4031 104.797L93.5189 104.782L93.6347 104.823L93.7505 104.808L93.8663 104.823L93.982 104.813L94.0978 104.569L94.2136 104.818L94.3294 104.782L94.4452 104.787L94.561 104.792L94.6768 104.854L94.7926 104.896H94.9084L95.0242 104.906L95.14 104.86L95.2558 104.922L95.3716 104.932L95.4874 104.917L95.6031 104.886L95.7189 104.901L95.8347 104.912L95.9505 104.906L96.0663 104.922H96.1821L96.2979 104.912L96.4137 104.901L96.5295 104.896H96.6453L96.7611 104.912L96.8769 104.917L96.9927 104.927L97.1085 104.917L97.2243 104.896L97.34 104.875L97.4558 104.886L97.5716 104.901H97.6874L97.8032 104.891L97.919 104.886L98.0348 104.875L98.1506 104.87L98.2664 104.875H98.3822L98.498 104.901L98.6138 104.886L98.7296 104.865L98.8454 104.87H98.9612L99.077 104.86L99.1927 104.854L99.3085 104.875L99.4243 104.839L99.5401 104.849L99.6559 104.839L99.7717 104.849L99.8875 104.854L100.003 104.839L100.119 104.87L100.235 104.86L100.351 104.724L100.466 104.595L100.582 104.574L100.698 104.257L100.814 104.293L100.93 104.262L101.045 104.392L101.161 104.506L101.277 104.392L101.393 104.423L101.509 104.345L101.624 104.428L101.74 104.413L101.856 104.501L101.972 104.517L102.088 104.423L102.203 104.272L102.319 104.324L102.435 104.491L102.551 104.522L102.667 104.527L102.782 104.621L102.898 104.641L103.014 104.652L103.13 104.673L103.246 104.647L103.361 104.693L103.477 104.647L103.593 104.667L103.709 104.589L103.824 104.511L103.94 104.459L104.056 103.742L104.172 103.446L104.288 103.534L104.403 103.57L104.519 103.352L104.635 102.962L104.751 103.42L104.867 103.638L104.982 103.529L105.098 103.539L105.214 103.773L105.33 104.049L105.446 104.137L105.561 104.059L105.677 104.033L105.793 103.919L105.909 104.283L106.025 104.361L106.14 104.205L106.256 104.22L106.372 104.272L106.488 104.454L106.604 104.433L106.719 104.361L106.835 104.173L106.951 104.35L107.067 104.298L107.182 104.179L107.298 104.418L107.414 104.449L107.53 104.548L107.646 104.641L107.761 104.574L107.877 104.595H107.993H108.109L108.225 104.605L108.34 104.647L108.456 104.652L108.572 104.631L108.688 104.589L108.804 104.605L108.919 104.584L109.035 104.553L109.151 104.517L109.267 104.605L109.383 104.615L109.498 104.621L109.614 104.662L109.73 104.621L109.846 104.631L109.962 104.652L110.077 104.667L110.193 104.631L110.309 104.537L110.425 104.621L110.54 104.563L110.656 104.662L110.772 104.615L110.888 104.626L111.004 104.693L111.119 104.699L111.235 104.714L111.351 104.709L111.467 104.761L111.583 104.776L111.698 104.724L111.814 104.797H111.93L112.046 104.808L112.162 104.797L112.277 104.849H112.393L112.509 104.844L112.625 104.834L112.741 104.813L112.856 104.808L112.972 104.813L113.088 104.834L113.204 104.828L113.32 104.823L113.435 104.854H113.551L113.667 104.865L113.783 104.886L113.898 104.901L114.014 104.912L114.13 104.896L114.246 104.891L114.362 104.912L114.477 104.86L114.593 104.896L114.709 104.912L114.825 104.901L114.941 104.896L115.056 104.891L115.172 104.88L115.288 104.86L115.404 104.844L115.52 104.865L115.635 104.87L115.751 104.865L115.867 104.875L115.983 104.834L116.099 104.839L116.214 104.828L116.33 104.854L116.446 104.844L116.562 104.839L116.678 104.787L116.793 104.818L116.909 104.797L117.025 104.787L117.141 104.761L117.256 104.74L117.372 104.745L117.488 104.782H117.604L117.72 104.724L117.835 104.776L117.951 104.771H118.067L118.183 104.782L118.299 104.766L118.414 104.756L118.53 104.678L118.646 104.693L118.762 104.776L118.878 104.74L118.993 104.683H119.109L119.225 104.673H119.341L119.457 104.678L119.572 104.714L119.688 104.709L119.804 104.693L119.92 104.688L120.036 104.719L120.151 104.724L120.267 104.74L120.383 104.761L120.499 104.792L120.615 104.735L120.73 104.699L120.846 104.693L120.962 104.615L121.078 104.652L121.193 104.761L121.309 104.766L121.425 104.719L121.541 104.745L121.657 104.662L121.772 104.745L121.888 104.761L122.004 104.823L122.12 104.844L122.236 104.828L122.351 104.844L122.467 104.849L122.583 104.813L122.699 104.802L122.815 104.766L122.93 104.875L123.046 104.87L123.162 104.834L123.278 104.849H123.394L123.509 104.724L123.625 104.875L123.741 104.818L123.857 104.849L123.973 104.88L124.088 104.886L124.204 104.891L124.32 104.88L124.436 104.257L124.551 103.778L124.667 102.032L124.783 103.316L124.899 103.399L125.015 103.82L125.13 103.212L125.246 103.425L125.362 104.449L125.478 104.589L125.594 104.761L125.709 104.699L125.825 104.459L125.941 104.387L126.057 103.7L126.173 103.165L126.288 104.792L126.404 104.813L126.52 104.839L126.636 104.854L126.752 104.808L126.867 104.771L126.983 104.87L127.099 104.828L127.215 104.849L127.331 104.86L127.446 104.87L127.562 104.886L127.678 104.823L127.794 104.896L127.909 104.891H128.025L128.141 104.787L128.257 104.906L128.373 104.901L128.488 104.88L128.604 104.922L128.72 104.87L128.836 104.584L128.952 104.059L129.067 104.127L129.183 104.574L129.299 104.87L129.415 104.906L129.531 104.886L129.646 104.875L129.762 104.865L129.878 104.891L129.994 104.475L130.11 104.891L130.225 104.896L130.341 104.912L130.457 104.906L130.573 104.787L130.689 104.854L130.804 104.74L130.92 104.917L131.036 104.766L131.152 104.912L131.267 104.906L131.383 104.854L131.499 104.891L131.615 104.886L131.731 104.917H131.846L131.962 104.912L132.078 104.886L132.194 104.932L132.31 104.896L132.425 104.901L132.541 104.922H132.657L132.773 104.917L132.889 104.912H133.004L133.12 104.896L133.236 104.917L133.352 104.906H133.468L133.583 104.917L133.699 104.88L133.815 104.849L133.931 104.886L134.047 104.839L134.162 104.891L134.278 104.901L134.394 104.834L134.51 104.886L134.626 104.88L134.741 104.865L134.857 104.86L134.973 104.818L135.089 104.87L135.204 104.844H135.32L135.436 104.906L135.552 104.912L135.668 104.917L135.783 104.943L135.899 104.927L136.015 104.906L136.131 104.917L136.247 104.896L136.362 104.917L136.478 104.886L136.594 104.932L136.71 104.943L136.826 104.922L136.941 104.932L137.057 104.927L137.173 104.932L137.289 104.927H137.405L137.52 104.932L137.636 104.927L137.752 104.922L137.868 104.906L137.984 104.896L138.099 104.906L138.215 104.927L138.331 104.932L138.447 104.927H138.562H138.678H138.794L138.91 104.917H139.026L139.141 104.922L139.257 104.906L139.373 104.901L139.489 104.906L139.605 104.891L139.72 104.917L139.836 104.932L139.952 104.943L140.068 104.917L140.184 104.906H140.299L140.415 104.896L140.531 104.912L140.647 104.927L140.763 104.912L140.878 104.922L140.994 104.927L141.11 104.938L141.226 104.943L141.342 104.938L141.457 104.948L141.573 104.938L141.689 104.948L141.805 104.953L141.92 104.932L142.036 104.917L142.152 104.912L142.268 104.932L142.384 104.938H142.499H142.615L142.731 104.943L142.847 104.958H142.963L143.078 104.969H143.194L143.31 104.964L143.426 104.969H143.542L143.657 104.964L143.773 104.953L143.889 104.974H144.005L144.121 104.964L144.236 104.938L144.352 104.958L144.468 104.953L144.584 104.958H144.7L144.815 104.953L144.931 104.948L145.047 104.943L145.163 104.938L145.278 104.964L145.394 104.953L145.51 104.958L145.626 104.912L145.742 104.958L145.857 104.948L145.973 104.953L146.089 104.958L146.205 104.948L146.321 104.922L146.436 104.948L146.552 104.953H146.668L146.784 104.958H146.9H147.015L147.131 104.964L147.247 104.969L147.363 104.943L147.479 104.953L147.594 104.948L147.71 104.958H147.826H147.942L148.058 104.964H148.173L148.289 104.948L148.405 104.958H148.521L148.636 104.964H148.752L148.868 104.969L148.984 104.964L149.1 104.969L149.215 104.964L149.331 104.958H149.447L149.563 104.964L149.679 104.969L149.794 104.964H149.91H150.026H150.142L150.258 104.958H150.373L150.489 104.953H150.605H150.721H150.837L150.952 104.948L151.068 104.943L151.184 104.948L151.3 104.943L151.416 104.927L151.531 104.371L151.647 104.932L151.763 104.938H151.879L151.995 104.932L152.11 104.943L152.226 104.932H152.342L152.458 104.938L152.573 104.927L152.689 104.948L152.805 104.953H152.921H153.037L153.152 104.948H153.268H153.384H153.5L153.616 104.953H153.731H153.847L153.963 104.958H154.079L154.195 104.964L154.31 104.958H154.426L154.542 104.953L154.658 104.678L154.774 104.953H154.889L155.005 104.938L155.121 104.948L155.237 104.953H155.353H155.468L155.584 104.948L155.7 104.943L155.816 104.953L155.931 104.943L156.047 104.958L156.163 104.953L156.279 104.948L156.395 104.938L156.51 104.927L156.626 104.938L156.742 104.943L156.858 104.948L156.974 104.943L157.089 104.938L157.205 104.943L157.321 104.927L157.437 104.943L157.553 104.948L157.668 104.953L157.784 104.948L157.9 104.953L158.016 104.948L158.132 104.943H158.247L158.363 104.953L158.479 104.964L158.595 104.958L158.711 104.953H158.826H158.942L159.058 104.964L159.174 104.948L159.289 104.964H159.405L159.521 104.958H159.637H159.753L159.868 104.896L159.984 104.953L160.1 104.958H160.216L160.332 104.948L160.447 104.938L160.563 104.948L160.679 104.953L160.795 104.948L160.911 104.953L161.026 104.948L161.142 104.938L161.258 104.927L161.374 104.901L161.49 104.865L161.605 104.886L161.721 104.906L161.837 104.912H161.953L162.069 104.922L162.184 104.906L162.3 104.917H162.416L162.532 104.932H162.647L162.763 104.906H162.879L162.995 104.901L163.111 104.896L163.226 104.901L163.342 104.912L163.458 104.932L163.574 104.922H163.69L163.805 104.917L163.921 104.922H164.037L164.153 104.906L164.269 104.943L164.384 104.896L164.5 104.917L164.616 104.938L164.732 104.932L164.848 104.917L164.963 104.901L165.079 104.938L165.195 104.891L165.311 104.922L165.427 104.912L165.542 104.891L165.658 104.917H165.774H165.89L166.006 104.906L166.121 104.875L166.237 104.854H166.353L166.469 104.88L166.584 104.891L166.7 104.896L166.816 104.875L166.932 104.901L167.048 104.912L167.163 104.927L167.279 104.906H167.395L167.511 104.922L167.627 104.891L167.742 104.906L167.858 104.922L167.974 104.896L168.09 104.917L168.206 104.927L168.321 104.922H168.437L168.553 104.896L168.669 104.901L168.785 104.932L168.9 104.917L169.016 104.943L169.132 104.938L169.248 104.943L169.363 104.938L169.479 104.906L169.595 104.912L169.711 104.938L169.827 104.932L169.942 104.948L170.058 104.943H170.174L170.29 104.932L170.406 104.906L170.521 104.927L170.637 104.917L170.753 104.948L170.869 104.938H170.985L171.1 104.943L171.216 104.938H171.332L171.448 104.943H171.564H171.679L171.795 104.932L171.911 104.943L172.027 104.927L172.143 104.948L172.258 104.958L172.374 104.953L172.49 104.932H172.606L172.722 104.927L172.837 104.932L172.953 104.938L173.069 104.943L173.185 104.927L173.3 104.917L173.416 104.938H173.532H173.648H173.764L173.879 104.943H173.995L174.111 104.932H174.227H174.343L174.458 104.922L174.574 104.917L174.69 104.906L174.806 104.896H174.922L175.037 104.875L175.153 104.886L175.269 104.875L175.385 104.87L175.501 104.849H175.616L175.732 104.86L175.848 104.808L175.964 104.802L176.08 104.756L176.195 104.766L176.311 104.782L176.427 104.828L176.543 104.787L176.658 104.813L176.774 104.787L176.89 104.839L177.006 104.818H177.122L177.237 104.834L177.353 104.86L177.469 104.927H177.585L177.701 104.906L177.816 104.922L177.932 104.932L178.048 104.938L178.164 104.932L178.28 104.938L178.395 104.922L178.511 104.927L178.627 104.938L178.743 104.943L178.859 104.938L178.974 104.932L179.09 104.938L179.206 104.943H179.322H179.438H179.553L179.669 104.932L179.785 104.938L179.901 104.932L180.016 104.922L180.132 104.938L180.248 104.927H180.364L180.48 104.932H180.595L180.711 104.922L180.827 104.927L180.943 104.932H181.059L181.174 104.938L181.29 104.932H181.406H181.522H181.638L181.753 104.927L181.869 104.932H181.985H182.101H182.217H182.332H182.448L182.564 104.927L182.68 104.932L182.796 104.938H182.911L183.027 104.922L183.143 104.938L183.259 104.932L183.374 104.917L183.49 104.875L183.606 104.948H183.722L183.838 104.901L183.953 104.922L184.069 104.938L184.185 104.932L184.301 104.943H184.417L184.532 104.938L184.648 104.943H184.764H184.88L184.996 104.948H185.111L185.227 104.953H185.343H185.459L185.575 104.948H185.69H185.806L185.922 104.953H186.038L186.154 104.948L186.269 104.943L186.385 104.932L186.501 104.943L186.617 104.953H186.733L186.848 104.958H186.964L187.08 104.953L187.196 104.958H187.311H187.427H187.543H187.659H187.775H187.89L188.006 104.953L188.122 104.958L188.238 104.964L188.354 104.958L188.469 104.964H188.585L188.701 104.958H188.817L188.933 104.953L189.048 104.958L189.164 104.948L189.28 104.958H189.396L189.512 104.953L189.627 104.938L189.743 104.948L189.859 104.958L189.975 104.953L190.091 104.948L190.206 104.953L190.322 104.958H190.438H190.554H190.669H190.785L190.901 104.964L191.017 104.958H191.133L191.248 104.953L191.364 104.958L191.48 104.948L191.596 104.953H191.712L191.827 104.948H191.943L192.059 104.932L192.175 104.922L192.291 104.912H192.406L192.522 104.932H192.638H192.754L192.87 104.927L192.985 104.896L193.101 104.901H193.217H193.333L193.449 104.88L193.564 104.901L193.68 104.912L193.796 104.906L193.912 104.901L194.027 104.927L194.143 104.932L194.259 104.917H194.375L194.491 104.906L194.606 104.86L194.722 104.912L194.838 104.922L194.954 104.943L195.07 104.938H195.185L195.301 104.932H195.417L195.533 104.927L195.649 104.922L195.764 104.927L195.88 104.891L195.996 104.901L196.112 104.938L196.228 104.917L196.343 104.615L196.459 104.595L196.575 104.943L196.691 104.948L196.807 104.891L196.922 104.938L197.038 104.953L197.154 104.927L197.27 104.938L197.385 104.958H197.501L197.617 104.948H197.733H197.849L197.964 104.953H198.08L198.196 104.958L198.312 104.964L198.428 104.958L198.543 104.953H198.659L198.775 104.948H198.891L199.007 104.958H199.122L199.238 104.927L199.354 104.938L199.47 104.943H199.586H199.701L199.817 104.953H199.933L200.049 104.948H200.165H200.28L200.396 104.922L200.512 104.943L200.628 104.927L200.743 104.938L200.859 104.927L200.975 104.922H201.091L201.207 104.917L201.322 104.922L201.438 104.927L201.554 104.917L201.67 104.922L201.786 104.927L201.901 104.88L202.017 104.849L202.133 104.912L202.249 104.922L202.365 104.917L202.48 104.896H202.596L202.712 104.88L202.828 104.854L202.944 104.86L203.059 104.886L203.175 104.813L203.291 104.86L203.407 104.834L203.523 104.776L203.638 104.709L203.754 104.808L203.87 104.834L203.986 104.802L204.101 104.74L204.217 104.766L204.333 104.735L204.449 104.667L204.565 104.771L204.68 104.849L204.796 104.797L204.912 104.745L205.028 104.756L205.144 104.719L205.259 104.714L205.375 104.761L205.491 104.73L205.607 104.776L205.723 104.75L205.838 104.735L205.954 104.771L206.07 104.766L206.186 104.75L206.302 104.724L206.417 104.699H206.533L206.649 104.704L206.765 103.212L206.881 103.009L206.996 104.714L207.112 104.766L207.228 104.792L207.344 104.667L207.46 104.688L207.575 104.667L207.691 104.709L207.807 104.688L207.923 104.756L208.038 104.761L208.154 104.673L208.27 104.641L208.386 104.621L208.502 104.657L208.617 104.683L208.733 104.714H208.849L208.965 104.699L209.081 104.621L209.196 104.631L209.312 104.673L209.428 104.652L209.544 104.714H209.66L209.775 104.662L209.891 104.678L210.007 104.579L210.123 104.615L210.239 104.688L210.354 104.714L210.47 104.735L210.586 104.61L210.702 104.662L210.818 104.6L210.933 104.558L211.049 104.553L211.165 104.584L211.281 104.548L211.396 104.454L211.512 104.392L211.628 104.371L211.744 104.251L211.86 104.288L211.975 104.168L212.091 104.22L212.207 104.017L212.323 104.272L212.439 104.199L212.554 104.215L212.67 104.121L212.786 104.179L212.902 103.992L213.018 104.106L213.133 104.241L213.249 104.283L213.365 104.246L213.481 104.101H213.597L213.712 103.997L213.828 103.513L213.944 103.435L214.06 102.094L214.176 101.299L214.291 101.886L214.407 103.149L214.523 103.456L214.639 103.368L214.754 103.16L214.87 103.123L214.986 103.331L215.102 102.988L215.218 103.508L215.333 103.815L215.449 103.586L215.565 103.534L215.681 103.763L215.797 103.711L215.912 103.69L216.028 103.56L216.144 101.761L216.26 101.548L216.376 97.9457L216.491 97.6494L216.607 99.6404L216.723 101.834L216.839 101.346L216.955 103.207L217.07 103.487L217.186 103.633L217.302 103.399L217.418 102.63L217.534 102.91L217.649 103.399L217.765 103.3L217.881 102.177L217.997 102.437L218.112 102.863L218.228 98.8399L218.344 101.028L218.46 102.51L218.576 103.212L218.691 102.884L218.807 102.988L218.923 103.456L219.039 103.586L219.155 103.643L219.27 103.825L219.386 103.773L219.502 103.456L219.618 103.061L219.734 103.466L219.849 103.659L219.965 103.778L220.081 103.955L220.197 103.903L220.313 103.841L220.428 103.638L220.544 103.95L220.66 103.929L220.776 103.96L220.892 104.163L221.007 104.303L221.123 103.986L221.239 103.997L221.355 103.929L221.47 104.085L221.586 104.225L221.702 104.527L221.818 104.459L221.934 104.267L222.049 104.215L222.165 103.992L222.281 104.121L222.397 104.173L222.513 104.522L222.628 104.485L222.744 104.168L222.86 104.387L222.976 104.142L223.092 104.075L223.207 104.173L223.323 104.449L223.439 104.527L223.555 104.241L223.671 104.397L223.786 104.491L223.902 104.277L224.018 104.085L224.134 104.142L224.25 104.506L224.365 104.361L224.481 104.236L224.597 104.173L224.713 104.085L224.829 104.121L224.944 104.371L225.06 104.433L225.176 104.231L225.292 103.742L225.407 103.586L225.523 104.153L225.639 103.836L225.755 103.758L225.871 103.768L225.986 103.482L226.102 103.181L226.218 103.877L226.334 102.422L226.45 104.236L226.565 104.366L226.681 104.407L226.797 103.373L226.913 103.3L227.029 104.085L227.144 103.997L227.26 103.976L227.376 104.215L227.492 104.199L227.608 104.002L227.723 103.784L227.839 103.7L227.955 103.872L228.071 103.784L228.187 104.158L228.302 104.106L228.418 103.836L228.534 103.357L228.65 103.316L228.765 102.255L228.881 103.414L228.997 103.56L229.113 103.945L229.229 103.295L229.344 103.492L229.46 102.822L229.576 103.139L229.692 102.973L229.808 103.492L229.923 102.718L230.039 102.323L230.155 102.661L230.271 102.136L230.387 102.442L230.502 103.269L230.618 102.245L230.734 99.6352L230.85 96.4434L230.966 100.004L231.081 100.202L231.197 99.7808L231.313 99.5053L231.429 101.112L231.545 101.231L231.66 96.2718L231.776 101.824L231.892 102.198L232.008 101.486L232.123 101.325L232.239 101.626L232.355 102.24L232.471 101.886L232.587 100.483L232.702 101.07L232.818 100.223L232.934 99.3649L233.05 101.434L233.166 100.857L233.281 100.108L233.397 101.018L233.513 100.628L233.629 100.737L233.745 98.9594L233.86 99.9107L233.976 99.3701L234.092 98.3356L234.208 96.6825L234.324 95.9651L234.439 93.0852L234.555 91.5828L234.671 94.9982L234.787 96.4174L234.903 93.2047L235.018 92.2638L235.134 93.3711L235.25 95.0502L235.366 94.5771L235.481 94.0417L235.597 95.9287L235.713 94.0937L235.829 94.7591L235.945 94.4108L236.06 93.813L236.176 93.5063L236.292 93.1476L236.408 95.752L236.524 89.2435L236.639 85.038L236.755 94.286L236.871 96.7917L236.987 97.2647L237.103 99.0166L237.218 98.9906L237.334 98.6111L237.45 98.8035L237.566 98.2732L237.682 99.2141L237.797 97.7586L237.913 99.1985L238.029 97.0464L238.145 96.485L238.261 96.5993L238.376 97.0256L238.492 97.1504L238.608 95.5752L238.724 94.9618L238.84 96.0275L238.955 94.3952L239.071 94.2912L239.187 93.4543L239.303 94.8059L239.418 95.8144L239.534 96.6305L239.65 96.6825L239.766 94.9774L239.882 96.277L239.997 96.1835L240.113 96.1003L240.229 96.8644L240.345 98.2004L240.461 97.9041L240.576 96.1575L240.692 95.2269L240.808 92.6069L240.924 93.3815L241.04 93.0592L241.155 95.4973L241.271 97.0152L241.387 95.097L241.503 94.9462L241.619 95.4921L241.734 96.9008L241.85 97.2907L241.966 98.2628L242.082 99.0478L242.198 97.8834L242.313 96.6773L242.429 95.1022L242.545 96.3862L242.661 92.3054L242.776 95.2997L242.892 93.3347L243.008 93.2723L243.124 88.1415L243.24 93.3451L243.355 94.5356L243.471 95.7936L243.587 99.7288L243.703 100.509L243.819 99.8224L243.934 99.2141L244.05 98.1797L244.166 98.7671L244.282 99.7808L244.398 99.7288L244.513 100.815L244.629 97.613L244.745 97.9769L244.861 98.2732L244.977 97.7222L245.092 97.4779L245.208 89.3839L245.324 90.5587L245.44 78.1033L245.556 69.2763L245.671 72.1355L245.787 84.9444L245.903 88.0479L246.019 93.527L246.134 94.889L246.25 94.4576L246.366 94.8319L246.482 78.2332L246.598 92.8045L246.713 94.8371L246.829 100.067L246.945 93.2359L247.061 98.3356L247.177 99.786L247.292 99.8016L247.408 100.992L247.524 101.382L247.64 102.167L247.756 102.437L247.871 101.663L247.987 101.954L248.103 101.824L248.219 101.605L248.335 102.198L248.45 102.863L248.566 103.061L248.682 102.687L248.798 101.954L248.914 102.302L249.029 102.837L249.145 102.64L249.261 102.921L249.377 103.3L249.492 102.822L249.608 102.801L249.724 103.014L249.84 102.863L249.956 102.931L250.071 103.404L250.187 103.113L250.303 101.647L250.419 100.03L250.535 103.17L250.65 103.363L250.766 103.113L250.882 103.768L250.998 102.682L251.114 103.264L251.229 103.004L251.345 102.016L251.461 103.056L251.577 103.404L251.693 103.43L251.808 103.602L251.924 103.253L252.04 100.706L252.156 101.569L252.272 101.99L252.387 102.604L252.503 103.435L252.619 103.737L252.735 102.624L252.85 102.505L252.966 101.314L253.082 101.689L253.198 101.803L253.314 102.739L253.429 102.843L253.545 102.822L253.661 102.562L253.777 102.843L253.893 102.24L254.008 101.6L254.124 102.947L254.24 102.988L254.356 101.434L254.472 100.597L254.587 100.249L254.703 102.037L254.819 101.346L254.935 99.734L255.051 100.878L255.166 100.618L255.282 99.7392L255.398 100.15L255.514 97.0672L255.63 98.4084L255.745 97.613L255.861 97.7586L255.977 96.2978L256.093 94.7019L256.208 95.9547L256.324 96.355L256.44 95.0814L256.556 96.1107L256.672 93.3191L256.787 97.0672L256.903 97.8054L257.019 98.1173L257.135 96.8125L257.251 98.6059L257.366 99.3233L257.482 99.3077L257.598 95.778L257.714 93.3659L257.83 90.6575L257.945 91.3541L258.061 84.4246L258.177 90.0493L258.293 88.89L258.409 87.684L258.524 84.9392L258.64 80.4322L258.756 86.8211L258.872 77.651L258.988 83.8112L259.103 83.9983L259.219 84.305L259.335 76.1643L259.451 79.4549L259.567 80.4218L259.682 90.3716L259.798 95.7572L259.914 95.3309L260.03 93.1268L260.145 92.4094L260.261 93.5582L260.377 90.7823L260.493 93.2307L260.609 96.1315L260.724 93.9533L260.84 92.7473L260.956 92.1027L261.072 95.1282L261.188 91.9363L261.303 94.8994L261.419 98.1901L261.535 94.0521L261.651 82.0385L261.767 92.5965L261.882 93.8597L261.998 88.5417L262.114 92.0403L262.23 94.4212L262.346 95.0502L262.461 88.6197L262.577 84.6637L262.693 84.1023L262.809 84.5389L262.925 86.1557L263.04 92.4302L263.156 91.4945L263.272 87.5332L263.388 91.0162L263.503 88.9316L263.619 83.1614L263.735 80.8636L263.851 90.2468L263.967 91.4997L264.082 83.5253L264.198 92.4562L264.314 90.8758L264.43 88.391L264.546 90.1273L264.661 93.0748L264.777 92.1391L264.893 87.7568L265.009 84.5441L265.125 79.4497L265.24 76.7049L265.356 77.1364L265.472 78.3268L265.588 79.4081L265.704 78.0773L265.819 74.7919L265.935 77.2091L266.051 79.772L266.167 81.1912L266.283 83.0886L266.398 85.9841L266.514 80.7337L266.63 72.7125L266.746 75.5404L266.861 75.4937L266.977 77.8174L267.093 80.531L267.209 83.52L267.325 76.6529L267.44 80.5257L267.556 82.7559L267.672 81.5862L267.788 83.3953L267.904 84.3466L268.019 86.244L268.135 79.0078L268.251 80.5725L268.367 83.3953L268.483 82.5739L268.598 86.5663L268.714 83.6656L268.83 82.4752L268.946 82.392L269.062 76.9856L269.177 78.3788L269.293 83.3537L269.409 85.3759L269.525 80.0839L269.641 88.9056L269.756 85.4383L269.872 87.7256L269.988 90.6471L270.104 90.5172L270.219 89.4307L270.335 91.3021L270.451 93.0592L270.567 90.9382L270.683 91.796L270.798 89.8206L270.914 86.4416L271.03 88.9784L271.146 93.002L271.262 93.4491L271.377 92.5601L271.493 92.924L271.609 91.6556L271.725 90.2624L271.841 92.9916L271.956 93.0696L272.072 94.993L272.188 91.5308L272.304 88.4534L272.42 85.9269L272.535 88.1103L272.651 90.3456L272.767 91.4477L272.883 87.3097L272.999 87.9439L273.114 83.6604L273.23 83.4057L273.346 85.4903L273.462 84.0399L273.577 88.9316L273.693 82.4388L273.809 77.859L273.925 80.7493L274.041 78.3632L274.156 83.3745L274.272 78.6439L274.388 85.2355L274.504 85.4175L274.62 84.9028L274.735 87.8452L274.851 88.4326L274.967 85.4799L275.083 84.5857L275.199 88.0427L275.314 90.0337L275.43 89.4879L275.546 89.9037L275.662 89.4463L275.778 88.0011L275.893 88.9888L276.009 91.3645L276.125 90.3404L276.241 90.8862L276.357 86.0725L276.472 86.8834L276.588 89.7946L276.704 90.6887L276.82 87.7048L276.935 94.8059L277.051 88.916L277.167 92.7005L277.283 91.7492L277.399 90.4548L277.514 95.2321L277.63 95.9339L277.746 97.2803L277.862 96.6045L277.978 94.2652L278.093 93.8026L278.209 94.7903L278.325 93.9273L278.441 96.1627L278.557 97.3895L278.672 94.2964L278.788 94.286L278.904 93.3867L279.02 94.7747L279.136 96.8593L279.251 98.2576L279.367 99.4533L279.483 94.8267L279.599 96.8696L279.715 97.769L279.83 98.4812L279.946 99.1778L280.062 100.165L280.178 99.1414L280.294 100.108L280.409 99.6196L280.525 100.176L280.641 101.096L280.757 101.08L280.872 101.907L280.988 100.561L281.104 100.706L281.22 100.54L281.336 99.9627L281.451 96.0015L281.567 96.8333L281.683 100.592L281.799 101.21L281.915 100.431L282.03 99.4013L282.146 99.5728L282.262 97.6858L282.378 98.2108L282.494 100.113L282.609 95.5752L282.725 91.4945L282.841 97.5974L282.957 96.7137L283.073 97.1244L283.188 94.5615L283.304 94.6863L283.42 94.7279L283.536 94.1561L283.652 82.9794L283.767 96.1003L283.883 94.1509L283.999 96.3602L284.115 99.1466L284.23 98.3616L284.346 98.2161L284.462 98.0393L284.578 97.6338L284.694 97.7586L284.809 99.0582L284.925 99.3337L285.041 100.524L285.157 99.3909L285.273 99.1726L285.388 95.3569L285.504 96.3654L285.62 97.2595L285.736 100.004L285.852 100.025L285.967 97.3895L286.083 98.7203L286.199 97.9613L286.315 97.8002L286.431 98.3148L286.546 99.2297L286.662 1L286.778 95.778L286.894 96.6669L287.01 97.9977L287.125 97.2023L287.241 98.2004L287.357 100.706L287.473 101.616L287.588 98.6631L287.704 98.8243L287.82 92.0819L287.936 88.8277L288.052 98.9178L288.167 101.309L288.283 102.292L288.399 102.437L288.515 101.512L288.631 102.526L288.746 102.271L288.862 102.214L288.978 102.78L289.094 102.604L289.21 102.401L289.325 102.182L289.441 101.72L289.557 100.846L289.673 101.449L289.789 103.061L289.904 103.019L290.02 101.637L290.136 100.394L290.252 100.212L290.368 99.76L290.483 99.8432L290.599 100.025L290.715 100.145L290.831 100.379L290.947 100.004L291.062 98.9698L291.178 99.0634L291.294 100.654L291.41 102.125L291.525 102.51L291.641 100.01L291.757 101.559L291.873 101.184L291.989 102.973L292.104 102.999L292.22 102.536L292.336 103.285L292.452 103.43L292.568 102.936L292.683 103.248L292.799 102.323L292.915 102.619L293.031 102.848L293.147 102.822L293.262 102.286L293.378 102.531L293.494 102.172L293.61 102.489L293.726 103.331L293.841 104.121L293.957 103.986L294.073 103.638L294.189 103.378L294.305 103.196L294.42 102.853L294.536 103.404L294.652 103.43L294.768 103.888L294.883 103.394L294.999 103.685L295.115 103.368L295.231 103.019L295.347 103.186L295.462 103.482L295.578 103.607L295.694 102.64L295.81 102.609L295.926 102.785L296.041 103.342L296.157 103.737L296.273 103.888L296.389 104.033L296.505 103.669L296.62 103.825L296.736 103.285L296.852 102.926L296.968 103.555L297.084 104.121L297.199 104.158L297.315 103.503L297.431 103.784L297.547 103.966L297.663 104.075L297.778 103.711L297.894 104.147L298.01 104.101L298.126 103.378L298.241 103.311L298.357 102.37L298.473 102.702L298.589 103.196L298.705 103.794L298.82 103.742L298.936 102.973L299.052 103.68H299.168L299.284 103.726L299.399 103.446L299.515 103.986L299.631 104.231L299.747 103.664L299.863 103.726L299.978 103.778L300.094 103.56L300.21 103.752L300.326 104.205L300.442 104.225L300.557 103.612L300.673 103.326L300.789 103.082L300.905 103.305L301.021 103.784L301.136 104.246L301.252 104.215L301.368 103.986L301.484 103.607L301.599 103.17L301.715 103.051L301.831 103.103L301.947 103.726L302.063 103.919L302.178 103.388L302.294 103.383L302.41 103.815L302.526 103.612L302.642 104.184L302.757 104.449L302.873 104.293L302.989 104.085L303.105 104.023L303.221 103.898L303.336 104.111L303.452 104.179L303.568 104.439L303.684 104.324L303.8 103.981L303.915 103.69L304.031 103.716L304.147 103.82L304.263 103.851L304.379 104.293L304.494 104.496L304.61 103.997L304.726 103.877L304.842 103.763L304.957 104.033L305.073 104.132L305.189 103.669L305.305 102.837L305.421 102.572L305.536 103.139L305.652 103.498L305.768 103.3L305.884 103.596L306 103.685L306.115 103.726L306.231 103.196L306.347 103.061L306.463 102.962L306.579 102.775L306.694 102.733L306.81 103.373L306.926 103.721L307.042 103.378L307.158 103.071L307.273 103.201L307.389 103.55L307.505 103.363L307.621 103.581L307.737 104.023L307.852 103.035L307.968 103.56L308.084 103.321L308.2 102.692L308.315 102.967L308.431 103.57L308.547 103.664L308.663 103.326L308.779 101.449L308.894 101.834L309.01 102.234L309.126 103.123L309.242 103.669L309.358 103.836L309.473 103.638L309.589 103.576L309.705 103.721L309.821 103.768L309.937 103.815L310.052 103.919L310.168 103.96L310.284 103.929L310.4 103.763L310.516 103.903L310.631 103.992L310.747 104.106L310.863 104.08L310.979 104.064L311.095 103.981L311.21 104.075L311.326 103.877L311.442 103.867L311.558 103.94L311.674 103.992L311.789 103.981L311.905 103.841L312.021 103.778L312.137 103.57L312.252 103.581L312.368 103.758L312.484 103.872L312.6 103.82L312.716 103.825L312.831 103.602L312.947 103.726L313.063 103.664L313.179 103.711L313.295 103.94L313.41 103.836L313.526 103.867L313.642 103.7L313.758 103.82L313.874 103.804L313.989 103.945L314.105 104.012L314.221 103.945L314.337 103.971L314.453 103.825L314.568 103.711L314.684 103.643L314.8 103.596L314.916 103.581L315.032 103.477L315.147 103.581L315.263 103.477L315.379 103.009L315.495 103.529L315.61 103.373L315.726 103.674L315.842 103.711L315.958 103.248L316.074 103.3L316.189 103.196L316.305 103.155L316.421 102.853L316.537 102.811L316.653 103.066L316.768 102.77L316.884 102.765L317 102.661" stroke="#CED4DA" stroke-width="0.657692" stroke-linecap="round" stroke-linejoin="round"/>
</svg>
