<svg width="318" height="106" viewBox="0 0 318 106" fill="none" xmlns="http://www.w3.org/2000/svg">
<path d="M1 99.7302L1.59623 99.5678L2.19245 99.6071L2.78868 99.5251L3.38491 97.9681L3.98113 98.0949L4.57736 98.4948L5.17358 98.7905L5.76981 99.5641L6.36604 98.0214L6.96226 98.7625L7.55849 99.3984L8.15472 100.077L8.75094 100.527L9.34717 100.641L9.9434 101.254L10.5396 101.205L11.1358 97.8602L11.7321 95.2257L12.3283 93.4549L12.9245 93.6247L13.5208 89.4783L14.117 94.4243L14.7132 93.5409L15.3094 91.0337L15.9057 89.7626L16.5019 88.9956L17.0981 90.9378L17.6943 85.5198L18.2906 90.164L18.8868 91.2283L19.483 90.3967L20.0792 85.1597L20.6755 84.9135L21.2717 86.3401L21.8679 93.0768L22.4642 97.2227L23.0604 97.3188L23.6566 95.6267L24.2528 96.1162L24.8491 96.626L25.4453 94.4459L26.0415 95.6521L26.6377 98.53L27.234 98.4794L27.8302 94.2003L28.4264 92.3369L29.0226 96.7018L29.6189 96.0866L30.2151 96.1305L30.8113 99.4158L31.4075 97.0801L32.0038 94.5432L32.6 94.0813L33.1962 94.8235L33.7925 90.7744L34.3887 94.0664L34.9849 97.6082L35.5811 97.6751L36.1774 92.3112L36.7736 89.0122L37.3698 86.2812L37.966 87.2307L38.5623 88.9048L39.1585 95.215L39.7547 95.0482L40.3509 91.4496L40.9472 94.0182L41.5434 92.9213L42.1396 88.3558L42.7358 88.5882L43.3321 94.3245L43.9283 95.7724L44.5245 93.2836L45.1208 95.9974L45.717 95.2381L46.3132 93.1673L46.9094 94.2229L47.5057 97.2002L48.1019 96.144L48.6981 92.8026L49.2943 89.2861L49.8906 84.0886L50.4868 81.1189L51.083 82.9184L51.6792 84.783L52.2755 86.4156L52.8717 84.8129L53.4679 82.9567L54.0641 84.5729L54.6604 87.1047L55.2566 88.1198L55.8528 90.8268L56.4491 92.6775L57.0453 89.5509L57.6415 82.8474L58.2377 83.7718L58.834 84.8685L59.4302 86.1168L60.0264 88.5627L60.6226 90.9472L61.2189 85.8713L61.8151 87.1025L62.4113 88.074L63.0075 86.9805L63.6038 89.9251L64.2 92.0814L64.7962 91.883L65.3925 86.2093L65.9887 88.1827L66.5849 88.9699L67.1811 89.7654L67.7774 91.3943L68.3736 91.1129L68.9698 90.941L69.566 89.9463L70.1623 87.2519L70.7585 87.8031L71.3547 91.0312L71.9509 91.6706L72.5472 87.4741L73.1434 92.6557L73.7396 91.9635L74.3358 93.5976L74.9321 95.4486L75.5283 94.9838L76.1245 93.9833L76.7208 95.7246L77.317 97.3528L77.9132 94.9459L78.5094 95.7136L79.1057 93.9727L79.7019 91.9721L80.2981 94.0765L80.8943 96.9392L81.4906 98.5521L82.0868 96.8216L82.683 96.7935L83.2792 95.4891L83.8755 95.2291L84.4717 96.4957L85.0679 96.2776L85.6642 98.3021L86.2604 95.282L86.8566 92.1657L87.4528 89.1037L88.0491 91.2674L88.6453 93.4103L89.2415 94.8829L89.8377 92.017L90.434 91.6522L91.0302 88.2079L91.6264 86.4656L92.2226 87.8715L92.8189 86.0592L93.4151 89.9915L94.0113 85.1668L94.6076 77.3621L95.2038 80.8176L95.8 80.9971L96.3962 83.3783L96.9925 80.6126L97.5887 88.1708L98.1849 87.975L98.7811 87.6133L99.3774 89.8603L99.9736 89.2494L100.57 86.9336L101.166 81.6763L101.762 84.2108L102.358 89.1729L102.955 87.6222L103.551 87.6176L104.147 87.0999L104.743 85.1194L105.34 87.2319L105.936 90.5767L106.532 90.8507L107.128 89.8143L107.725 85.4904L108.321 86.1628L108.917 89.7698L109.513 91.4265L110.109 95.5708L110.706 95.8804L111.302 90.5316L111.898 93.9269L112.494 93.4204L113.091 93.636L113.687 95.9605L114.283 97.0879L114.879 98.3935L115.475 97.8075L116.072 97.0664L116.668 95.3898L117.264 95.7542L117.86 92.7872L118.457 97.1L119.053 96.9736L119.649 93.6042L120.245 94.2217L120.842 94.8198L121.438 94.0722L122.034 98.0363L122.63 99.6844L123.226 100.004L123.823 96.1563L124.419 97.8791L125.015 98.5501L125.611 99.259L126.208 99.4151L126.804 101.085L127.4 99.3948L127.996 100.534L128.592 100.819L129.189 100.759L129.785 101.493L130.381 101.811L130.977 102.68L131.574 102.175L132.17 101.561L132.766 100.914L133.362 100.425L133.958 97.5763L134.555 98.4645L135.151 101.787L135.747 102.447L136.343 101.454L136.94 100.373L137.536 100.716L138.132 99.1241L138.728 99.5509L139.325 101.542L139.921 99.8765L140.517 95.296L141.113 99.6609L141.709 98.8028L142.306 98.9L142.902 96.9984L143.498 98.6501L144.094 98.6041L144.691 97.3152L145.287 90.595L145.883 97.9257L146.479 97.2521L147.075 98.2899L147.672 100.977L148.268 101.075L148.864 99.5696L149.46 99.4648L150.057 99.5567L150.653 99.2726L151.249 100.361L151.845 101.751L152.442 102.386L153.038 100.961L153.634 100.319L154.23 96.0923L154.826 97.6044L155.423 98.9079L156.019 101.376L156.615 101.372L157.211 98.642L157.808 99.4825L158.404 99.1339L159 99.1097L159.596 99.1205L160.192 99.4734L160.789 1L161.385 96.6672L161.981 97.4673L162.577 99.2742L163.174 98.2308L163.77 99.9802L164.366 101.501L164.962 102.35L165.558 97.8999L166.155 98.3311L166.751 87.6663L167.347 78.7699L167.943 95.6591L168.54 101.175L169.136 102.655L169.732 102.626L170.328 101.252L170.925 102.241L171.521 102.476L172.117 102.057L172.713 103.163L173.309 102.851L173.906 102.443L174.502 102.087L175.098 101.3L175.694 99.7403L176.291 100.344L176.887 103.08L177.483 103.047L178.079 101.487L178.675 99.4197L179.272 98.5076L179.868 97.6602L180.464 97.7782L181.06 98.802L181.657 98.8595L182.253 99.3394L182.849 98.6295L183.445 96.8135L184.042 97.2978L184.638 98.8951L185.234 101.243L185.83 101.64L186.426 95.3363L187.023 98.7092L187.619 97.8756L188.215 100.821L188.811 101.088L189.408 99.868L190.004 102.631L190.6 102.529L191.196 101.469L191.792 101.9L192.389 100.313L192.985 101.189L193.581 101.821L194.177 101.692L194.774 100.208L195.37 100.804L195.966 99.8653L196.562 99.9799L197.158 101.489L197.755 103.665L198.351 103.38L198.947 102.696L199.543 101.874L200.14 101.674L200.736 100.76L201.332 102.141L201.928 103.283L202.525 103.348L203.121 101.956L203.717 102.606L204.313 102.137L204.909 101.096L205.506 101.576L206.102 102.934L206.698 102.975L207.294 101.668L207.891 101.7L208.487 101.813L209.083 103.052L209.679 103.717L210.275 104.072L210.872 104.474L211.468 103.264L212.064 102.761L212.66 103.175L213.257 102.772L213.853 103.747L214.449 104.66L215.045 104.717L215.642 103.962L216.238 103.983L216.834 104.21L217.43 104.012L218.026 103.867L218.623 104.633L219.219 104.576L219.815 103.517L220.411 103.38L221.008 102.227L221.604 102.74L222.2 103.485L222.796 104.436L223.392 104.337L223.989 103.364L224.585 104.177L225.181 104.167L225.777 104.135L226.374 103.582L226.97 104.323L227.566 104.847L228.162 103.987L228.758 104.049L229.355 104.223L229.951 103.932L230.547 104.038L231.143 104.691L231.74 104.701L232.336 103.681L232.932 103.312L233.528 102.926L234.125 103.12L234.721 103.995L235.317 104.784L235.913 104.682L236.509 104.401L237.106 103.736L237.702 103.185L238.298 102.963L238.894 103.056L239.491 104.425L240.087 104.565L240.683 103.662L241.279 103.661L241.875 104.153L242.472 103.461L243.068 104.406L243.664 104.88L244.26 104.671L244.857 104.372L245.453 104.111L246.049 104.072L246.645 104.339L247.242 104.532L247.838 104.961L248.434 104.731L249.03 104.08L249.626 103.122L250.223 103.584L250.819 103.694L251.415 103.498L252.011 104.522L252.608 105L253.204 103.58L253.8 103.65L254.396 103.568L254.992 103.987L255.589 104.398L256.185 102.9L256.781 101.368L257.377 100.499L257.974 101.718L258.57 102.879L259.166 102.437L259.762 103.127L260.358 103.271L260.955 103.651L261.551 102.582L262.147 102.177L262.743 101.856L263.34 101.025L263.936 101.195L264.532 103.029L265.128 103.738L265.725 102.912L266.321 102.665L266.917 102.992L267.513 103.435L268.109 103.326L268.706 103.89L269.302 104.487L269.898 102.825L270.494 103.729L271.091 103.42L271.687 102.87L272.283 103.055L272.879 103.904L273.475 103.991L274.072 103.096L274.668 98.9766L275.264 98.0722L275.86 100.415L276.457 102.379L277.053 103.555L277.649 103.551L278.245 103L278.842 102.904L279.438 103.231L280.034 103.384L280.63 103.67L281.226 103.919L281.823 103.946L282.419 103.83L283.015 103.531L283.611 103.764L284.208 103.95L284.804 104.11L285.4 104.184L285.996 104.219L286.592 103.651L287.189 104.029L287.785 103.87L288.381 103.821L288.977 103.88L289.574 103.972L290.17 103.997L290.766 103.662L291.362 103.466L291.958 103.386L292.555 103.416L293.151 100.955L293.747 103.395L294.343 103.381L294.94 103.201L295.536 102.971L296.132 103.33L296.728 103.06L297.325 102.959L297.921 103.631L298.517 103.617L299.113 103.531L299.709 103.323L300.306 103.425L300.902 103.519L301.498 103.649L302.094 103.985L302.691 104.082L303.287 103.964L303.883 103.441L304.479 103.266L305.075 103.195L305.672 103.084L306.268 103.264L306.864 103.522L307.46 103.272L308.057 102.937L308.653 102.697L309.249 102.528L309.845 102.628L310.442 103.364L311.038 102.933L311.634 102.261L312.23 102.489L312.826 102.451L313.423 102.473L314.019 101.941L314.615 102.153L315.211 102.819L315.808 102.371L316.404 102.262L317 101.749" stroke="#CED4DA" stroke-width="0.6" stroke-linecap="round" stroke-linejoin="round"/>
</svg>
