<svg width="320" height="111" viewBox="0 0 320 111" fill="none" xmlns="http://www.w3.org/2000/svg">
<path d="M0.666748 109.498L0.783641 110H0.900533H1.01743H1.13432H1.25121H1.3681H1.485L1.60189 109.884L1.71878 109.838L1.83567 109.925L1.95257 109.885L2.06946 109.72L2.18635 109.885L2.30325 109.84L2.42014 109.821L2.53703 109.871L2.65392 109.862L2.77082 109.858L2.88771 109.859L3.0046 109.817L3.12149 109.87L3.23839 109.779L3.35528 109.798L3.47217 109.764L3.58906 109.75L3.70596 109.747L3.82285 109.766L3.93974 109.685L4.05663 109.732L4.17353 109.767L4.29042 109.742L4.40731 109.707L4.52421 109.709L4.6411 109.707L4.75799 109.731L4.87488 109.682L4.99178 109.689L5.10867 109.689L5.22556 109.678L5.34245 109.683L5.45935 109.684L5.57624 109.699L5.69313 109.636L5.81002 109.684L5.92692 109.658L6.04381 109.686L6.1607 109.695L6.27759 109.669L6.39449 109.697L6.51138 109.673L6.62827 109.706L6.74516 109.639L6.86206 109.644L6.97895 109.616L7.09584 109.582L7.21274 109.649L7.32963 109.67L7.44652 109.667L7.56341 109.675L7.68031 109.655L7.7972 109.676L7.91409 109.669L8.03098 109.638L8.14788 109.658L8.26477 109.655L8.38166 109.626L8.49855 109.646L8.61545 109.636L8.73234 109.598L8.84923 109.609L8.96613 109.619L9.08302 109.632L9.19991 109.66L9.3168 109.628L9.4337 109.615L9.55059 109.615L9.66748 109.633L9.78437 109.617L9.90127 109.63L10.0182 109.634L10.1351 109.628L10.2519 109.667L10.3688 109.651L10.4857 109.663L10.6026 109.612L10.7195 109.641L10.8364 109.671L10.9533 109.665L11.0702 109.617L11.1871 109.586L11.304 109.558L11.4209 109.552L11.5378 109.574L11.6547 109.61L11.7715 109.63L11.8884 109.583L12.0053 109.603L12.1222 109.577L12.2391 109.555L12.356 109.38L12.4729 109.3L12.5898 109.566L12.7067 109.54L12.8236 109.424L12.9405 109.462L13.0574 109.555L13.1743 109.593L13.2912 109.596L13.408 109.58L13.5249 109.597L13.6418 109.584L13.7587 109.499L13.8756 109.642L13.9925 109.615L14.1094 109.601L14.2263 109.534L14.3432 109.597L14.4601 109.6L14.577 109.59L14.6939 109.626L14.8108 109.616L14.9276 109.614L15.0445 109.493L15.1614 109.617L15.2783 109.633L15.3952 109.607L15.5121 109.611L15.629 109.617L15.7459 109.487L15.8628 109.597L15.9797 109.622L16.0966 109.605L16.2135 109.58L16.3304 109.543L16.4473 109.537L16.5641 109.581L16.681 109.123L16.7979 108.81L16.9148 109.419L17.0317 109.458L17.1486 109.491L17.2655 109.475L17.3824 109.443L17.4993 109.32L17.6162 108.814L17.7331 108.718L17.85 109.239L17.9669 109.463L18.0838 109.395L18.2006 108.767L18.3175 109.302L18.4344 109.359L18.5513 108.772L18.6682 109.419L18.7851 109.536L18.902 109.483L19.0189 109.478L19.1358 109.466L19.2527 109.073L19.3696 109.037L19.4865 108.755L19.6034 109.384L19.7202 109.335L19.8371 109.418L19.954 109.386L20.0709 109.387L20.1878 109.004L20.3047 109.399L20.4216 109.443L20.5385 109.399L20.6554 109.45L20.7723 109.272L20.8892 109.243L21.0061 109.402L21.123 109.395L21.2399 109.219L21.3567 109.378L21.4736 109.278L21.5905 109.034L21.7074 109.069L21.8243 108.943L21.9412 109.054L22.0581 109.075L22.175 109.173L22.2919 109.201L22.4088 109.199L22.5257 109.194L22.6426 109.195L22.7595 109.19L22.8763 109.14L22.9932 108.228L23.1101 109.196L23.227 109.17L23.3439 109.125L23.4608 109.033L23.5777 108.791L23.6946 108.979L23.8115 108.91L23.9284 109.062L24.0453 109.032L24.1622 109.01L24.2791 108.873L24.396 109.043L24.5128 108.962L24.6297 109.057L24.7466 109.035L24.8635 108.974L24.9804 108.958L25.0973 108.898L25.2142 108.9L25.3311 108.812L25.448 108.93L25.5649 108.925L25.6818 108.852L25.7987 108.772L25.9156 108.671L26.0324 108.599L26.1493 108.63L26.2662 108.471L26.3831 108.44L26.5 108.688L26.6169 108.641L26.7338 108.615L26.8507 108.601L26.9676 108.696L27.0845 108.427L27.2014 108.414L27.3183 108.391L27.4352 108.349L27.5521 108.444L27.6689 108.109L27.7858 108.205L27.9027 108.039L28.0196 108.17L28.1365 108.166L28.2534 108.145L28.3703 108.207L28.4872 107.916L28.6041 107.927L28.721 107.933L28.8379 108.31L28.9548 108.104L29.0717 108.087L29.1886 107.926L29.3054 108.181L29.4223 108.121L29.5392 108.344L29.6561 108.331L29.773 108.031L29.8899 107.791L30.0068 108.191L30.1237 108.201L30.2406 108.082L30.3575 108.2L30.4744 108.182L30.5913 108.29L30.7082 108.045L30.825 107.967L30.9419 108.038L31.0588 108.028L31.1757 108.281L31.2926 107.733L31.4095 108.11L31.5264 108.16L31.6433 108.142L31.7602 107.903L31.8771 108.213L31.994 108.204L32.1109 108.08L32.2278 108.002L32.3447 108.162L32.4615 108.091L32.5784 108.063L32.6953 107.895L32.8122 107.419L32.9291 107.768L33.046 107.646L33.1629 107.867L33.2798 107.886L33.3967 107.817L33.5136 107.672L33.6305 107.977L33.7474 107.741L33.8643 107.825L33.9812 107.706L34.098 107.698L34.2149 107.462L34.3318 107.308L34.4487 107.42L34.5656 107.571L34.6825 107.889L34.7994 107.727L34.9163 107.404L35.0332 107.489L35.1501 107.452L35.267 107.54L35.3839 107.806L35.5008 107.529L35.6176 107.58L35.7345 107.381L35.8514 107.115L35.9683 107.236L36.0852 106.044L36.2021 107.412L36.319 107.579L36.4359 107.497L36.5528 107.619L36.6697 107.763L36.7866 107.753L36.9035 107.864L37.0204 107.863L37.1373 107.803L37.2541 107.398L37.371 107.72L37.4879 107.752L37.6048 107.736L37.7217 107.919L37.8386 107.599L37.9555 107.395L38.0724 107.161L38.1893 107.561L38.3062 107.553L38.4231 106.246L38.54 106.442L38.6569 107.122L38.7737 107.343L38.8906 107.331L39.0075 107.258L39.1244 107.636L39.2413 107.443L39.3582 107.931L39.4751 107.653L39.592 107.763L39.7089 107.57L39.8258 107.186L39.9427 106.393L40.0596 107.739L40.1765 107.786L40.2934 107.758L40.4102 107.747L40.5271 107.785L40.644 107.863L40.7609 107.72L40.8778 107.603L40.9947 107.721L41.1116 107.78L41.2285 107.824L41.3454 107.698L41.4623 107.984L41.5792 107.586L41.6961 107.681L41.813 107.853L41.9298 108.087L42.0467 107.789L42.1636 107.508L42.2805 107.145L42.3974 107.469L42.5143 107.267L42.6312 107.462L42.7481 106.717L42.865 106.906L42.9819 106.507L43.0988 107.009L43.2157 107.262L43.3326 107.336L43.4495 107.631L43.5663 107.251L43.6832 107.407L43.8001 107.234L43.917 107.21L44.0339 107.363L44.1508 107.563L44.2677 107.66L44.3846 107.577L44.5015 107.576L44.6184 107.346L44.7353 107.389L44.8522 107.283L44.9691 107.496L45.086 107.683L45.2028 107.712L45.3197 107.614L45.4366 107.239L45.5535 107.47L45.6704 107.304L45.7873 107.578L45.9042 107.67L46.0211 107.601L46.138 107.504L46.2549 107.269L46.3718 107.359L46.4887 107.188L46.6056 107.333L46.7224 107.296L46.8393 107.597L46.9562 107.433L47.0731 107.351L47.19 107.414L47.3069 107.322L47.4238 106.875L47.5407 107.474L47.6576 107.286L47.7745 107.594L47.8914 107.231L48.0083 107.253L48.1252 106.843L48.2421 106.959L48.3589 107.582L48.4758 107.555L48.5927 107.455L48.7096 107.598L48.8265 106.962L48.9434 107.032L49.0603 106.755L49.1772 107.356L49.2941 107.863L49.411 107.716L49.5279 106.951L49.6448 107.488L49.7617 107.03L49.8785 108.014L49.9954 107.551L50.1123 107.817L50.2292 107.546L50.3461 107.36L50.463 107.586L50.5799 107.721L50.6968 107.979L50.8137 107.007L50.9306 107.118L51.0475 107.311L51.1644 106.804L51.2813 107.647L51.3982 107.923L51.515 107.535L51.6319 107.874L51.7488 107.522L51.8657 107.465L51.9826 107.685L52.0995 108.308L52.2164 108.182L52.3333 107.631L52.4502 108.102L52.5671 108.027L52.684 107.849L52.8009 107.073L52.9178 107.829L53.0347 107.55L53.1515 106.741L53.2684 107.87L53.3853 108.006L53.5022 107.036L53.6191 107.315L53.736 107.453L53.8529 107.499L53.9698 107.658L54.0867 107.743L54.2036 107.776L54.3205 107.46L54.4374 107.235L54.5543 107.546L54.6711 107.612L54.788 108.163L54.9049 107.874L55.0218 108.06L55.1387 107.635L55.2556 107.656L55.3725 107.715L55.4894 107.735L55.6063 107.684L55.7232 107.694L55.8401 107.537L55.957 107.526L56.0739 107.443L56.1907 107.649L56.3076 107.702L56.4245 107.531L56.5414 107.784L56.6583 107.624L56.7752 107.59L56.8921 106.978L57.009 106.374L57.1259 107.921L57.2428 106.725L57.3597 107.699L57.4766 107.493L57.5935 107.271L57.7104 107.347L57.8272 107.79L57.9441 107.906L58.061 107.651L58.1779 107.668L58.2948 107.764L58.4117 107.653L58.5286 107.282L58.6455 107.645L58.7624 107.767L58.8793 107.663L58.9962 107.712L59.1131 107.791L59.23 107.815L59.3469 107.481L59.4637 107.333L59.5806 107.4L59.6975 107.521L59.8144 107.776L59.9313 107.934L60.0482 107.428L60.1651 107.505L60.282 107.135L60.3989 106.888L60.5158 107.496L60.6327 107.871L60.7496 107.936L60.8665 108.051L60.9833 107.61L61.1002 107.553L61.2171 107.375L61.334 107.487L61.4509 107.675L61.5678 107.816L61.6847 107.764L61.8016 107.412L61.9185 107.142L62.0354 107.203L62.1523 107.53L62.2692 107.54L62.3861 107.59L62.503 107.395L62.6198 107.283L62.7367 107.45L62.8536 107.147L62.9705 107.133L63.0874 107.629L63.2043 107.646L63.3212 107.441L63.4381 107.368L63.555 107.462L63.6719 107.539L63.7888 107.418L63.9057 107.558L64.0226 107.325L64.1395 107.401L64.2563 107.157L64.3732 107.391L64.4901 107.357L64.607 107.367L64.7239 107.451L64.8408 107.603L64.9577 107.441L65.0746 107.538L65.1915 107.488L65.3084 107.535L65.4253 107.587L65.5422 107.439L65.6591 107.375L65.7759 107.332L65.8928 107.075L66.0097 107.119L66.1266 107.3L66.2435 107.055L66.3604 107.374L66.4773 107.444L66.5942 106.842L66.7111 106.712L66.828 106.88L66.9449 107.199L67.0618 107.214L67.1787 107.214L67.2956 107.28L67.4124 107.172L67.5293 106.704L67.6462 107.159L67.7631 107.315L67.88 106.95L67.9969 106.997L68.1138 107.083L68.2307 107.031L68.3476 106.601L68.4645 106.629L68.5814 106.008L68.6983 106.374L68.8152 106.686L68.932 106.784L69.0489 106.784L69.1658 106.47L69.2827 106.876L69.3996 106.376L69.5165 106.327L69.6334 106.345L69.7503 106.241L69.8672 105.391L69.9841 105.649L70.101 105.42L70.2179 103.799L70.3348 103.986L70.4516 104.929L70.5685 105.229L70.6854 105.473L70.8023 105.246L70.9192 105.555L71.0361 105.351L71.153 105.05L71.2699 105.24L71.3868 105.514L71.5037 104.666L71.6206 105.243L71.7375 104.751L71.8544 104.574L71.9713 104.185L72.0882 105.456L72.205 104.984L72.3219 104.348L72.4388 105.134L72.5557 105.07L72.6726 104.632L72.7895 104.764L72.9064 105.931L73.0233 105.795L73.1402 105.743L73.2571 105.72L73.374 105.469L73.4909 105.256L73.6078 105.423L73.7246 105.78L73.8415 106.016L73.9584 105.909L74.0753 105.302L74.1922 105.165L74.3091 105.181L74.426 105.416L74.5429 105.853L74.6598 105.653L74.7767 105.458L74.8936 104.753L75.0105 104.944L75.1274 104.107L75.2442 104.011L75.3611 104.849L75.478 104.631L75.5949 103.672L75.7118 103.776L75.8287 104.511L75.9456 103.521L76.0625 103.88L76.1794 104.641L76.2963 103.986L76.4132 103.373L76.5301 103.631L76.647 103.815L76.7639 103.391L76.8807 103.952L76.9976 104.285L77.1145 104.284L77.2314 103.075L77.3483 103.439L77.4652 102.097L77.5821 102.25L77.699 100.888L77.8159 102.617L77.9328 101.557L78.0497 100.06L78.1666 99.4468L78.2835 99.4371L78.4004 99.6787L78.5172 100.423L78.6341 101.571L78.751 101.243L78.8679 101.058L78.9848 99.0804L79.1017 97.9238L79.2186 98.7679L79.3355 99.0075L79.4524 100.093L79.5693 99.8408L79.6862 99.2673L79.8031 98.691L79.92 98.3156L80.0368 99.4142L80.1537 97.8277L80.2706 97.9673L80.3875 96.437L80.5044 93.4789L80.6213 94.2057L80.7382 95.8775L80.8551 95.2455L80.972 96.0133L81.0889 96.3506L81.2058 96.1286L81.3227 93.8585L81.4396 92.6021L81.5565 97.5199L81.6733 93.9704L81.7902 94.4336L81.9071 95.8685L82.024 96.9646L82.1409 92.134L82.2578 95.7317L82.3747 94.5335L82.4916 95.1229L82.6085 95.7511L82.7254 96.4384L82.8423 95.9786L82.9592 92.9662L83.0761 94.1261L83.1929 94.6821L83.3098 95.4048L83.4267 93.3408L83.5436 96.0054L83.6605 97.2999L83.7774 92.9323L83.8943 93.5502L84.0112 93.9928L84.1281 95.2946L84.245 95.9355L84.3619 96.918L84.4788 95.9492L84.5957 95.9868L84.7126 94.7132L84.8294 94.7658L84.9463 95.897L85.0632 96.8842L85.1801 98.4061L85.297 95.309L85.4139 95.1621L85.5308 96.2979L85.6477 97.4228L85.7646 97.286L85.8815 96.0984L85.9984 98.7897L86.1153 98.3469L86.2322 95.8956L86.3491 97.6725L86.4659 96.9683L86.5828 96.6713L86.6997 95.4968L86.8166 95.2577L86.9335 95.0475L87.0504 94.1426L87.1673 92.0168L87.2842 94.1913L87.4011 90.9241L87.518 89.884L87.6349 90.9008L87.7518 91.219L87.8687 86.8736L87.9856 86.694L88.1024 86.6727L88.2193 85.8615L88.3362 84.9958L88.4531 88.7146L88.57 92.521L88.6869 87.8426L88.8038 89.4303L88.9207 88.8672L89.0376 90.1219L89.1545 90.1131L89.2714 92.7273L89.3883 91.7175L89.5052 89.4827L89.622 87.7428L89.7389 87.4286L89.8558 88.3196L89.9727 87.9488L90.0896 91.2875L90.2065 92.9384L90.3234 85.0389L90.4403 84.9273L90.5572 82.0056L90.6741 84.7144L90.791 83.8502L90.9079 88.3629L91.0248 91.6636L91.1416 89.3933L91.2585 87.1648L91.3754 89.3766L91.4923 88.5548L91.6092 85.0855L91.7261 88.9207L91.843 93.672L91.9599 89.541L92.0768 90.9516L92.1937 91.6717L92.3106 92.1178L92.4275 94.6898L92.5444 95.3306L92.6613 94.1563L92.7781 92.7077L92.895 92.7381L93.0119 92.5705L93.1288 91.4335L93.2457 91.5861L93.3626 93.3177L93.4795 93.9904L93.5964 92.737L93.7133 91.5069L93.8302 92.6635L93.9471 92.2456L94.064 91.9595L94.1809 93.5832L94.2977 93.2596L94.4146 91.4919L94.5315 90.2832L94.6484 90.5821L94.7653 89.5045L94.8822 88.6177L94.9991 91.2665L95.116 91.4497L95.2329 86.9731L95.3498 81.4848L95.4667 83.4679L95.5836 82.1293L95.7005 79.1598L95.8174 83.8935L95.9342 85.4393L96.0511 83.5965L96.168 82.2362L96.2849 84.0335L96.4018 83.6959L96.5187 82.5825L96.6356 82.6724L96.7525 82.1297L96.8694 79.9612L96.9863 80.6786L97.1032 80.2344L97.2201 80.1501L97.337 82.6027L97.4538 87.5111L97.5707 86.4765L97.6876 81.1435L97.8045 83.4696L97.9214 82.9059L98.0383 83.6527L98.1552 84.2023L98.2721 87.7581L98.389 85.5021L98.5059 85.006L98.6228 83.1557L98.7397 79.5119L98.8566 82.2817L98.9735 81.3168L99.0904 84.0753L99.2072 83.7998L99.3241 80.1014L99.441 80.4452L99.5579 79.1794L99.6748 79.7107L99.7917 80.3615L99.9086 78.3517L100.025 79.4053L100.142 75.6711L100.259 73.9626L100.376 72.5758L100.493 73.0339L100.61 74.8802L100.727 74.5945L100.844 70.871L100.961 70.4183L101.078 70.9115L101.194 65.3475L101.311 72.8302L101.428 66.7764L101.545 70.1144L101.662 69.587L101.779 63.2522L101.896 60.8022L102.013 58.6991L102.13 56.8421L102.246 58.9972L102.363 59.2503L102.48 60.5634L102.597 54.5037L102.714 48.4008L102.831 54.3862L102.948 49.5044L103.065 47.7641L103.182 58.1774L103.298 67.2375L103.415 67.5687L103.532 64.1201L103.649 58.5231L103.766 56.4504L103.883 48.516L104 45.8953L104.117 56.5927L104.234 58.7378L104.351 44.9209L104.467 40.1782L104.584 33.8696L104.701 38.2863L104.818 40.8332L104.935 44.9894L105.052 41.4504L105.169 39.1512L105.286 43.5816L105.403 43.7914L105.519 46.9049L105.636 43.4893L105.753 49.0009L105.87 41.961L105.987 37.9276L106.104 37.9758L106.221 42.0307L106.338 51.1629L106.455 54.4773L106.571 53.2343L106.688 55.1303L106.805 57.6353L106.922 58.4714L107.039 65.5297L107.156 56.229L107.273 63.0778L107.39 59.8568L107.507 57.1643L107.624 58.8713L107.74 60.5234L107.857 53.1085L107.974 54.6666L108.091 64.0651L108.208 64.8326L108.325 60.6093L108.442 59.9067L108.559 63.8316L108.676 71.5739L108.792 65.4569L108.909 62.153L109.026 66.3768L109.143 63.2454L109.26 67.9375L109.377 67.9058L109.494 66.1612L109.611 70.2534L109.728 66.4567L109.844 67.3583L109.961 64.24L110.078 59.9813L110.195 62.0337L110.312 67.0312L110.429 68.6559L110.546 68.6685L110.663 71.0529L110.78 68.4095L110.897 70.8273L111.013 69.3731L111.13 71.4014L111.247 68.0027L111.364 72.0183L111.481 73.7228L111.598 67.5465L111.715 69.8117L111.832 65.7981L111.949 71.0779L112.065 73.3384L112.182 76.6478L112.299 75.6596L112.416 71.7677L112.533 70.5729L112.65 72.1461L112.767 73.0861L112.884 73.0831L113.001 76.5449L113.117 71.4188L113.234 70.3023L113.351 72.6767L113.468 70.6418L113.585 75.0644L113.702 71.8131L113.819 75.4169L113.936 80.3139L114.053 74.6605L114.169 77.0608L114.286 77.2975L114.403 77.0823L114.52 74.2657L114.637 77.0415L114.754 79.2554L114.871 76.2458L114.988 73.5685L115.105 74.5575L115.222 70.7546L115.338 73.4555L115.455 79.7786L115.572 76.4022L115.689 75.6089L115.806 77.7752L115.923 75.6482L116.04 70.9388L116.157 68.8105L116.274 75.5305L116.39 75.0344L116.507 72.5294L116.624 68.1067L116.741 70.3361L116.858 64.0745L116.975 63.0649L117.092 67.9216L117.209 67.7663L117.326 64.7202L117.442 63.9595L117.559 64.9376L117.676 65.2276L117.793 66.8853L117.91 66.2739L118.027 67.3268L118.144 66.1153L118.261 69.7413L118.378 65.5745L118.495 62.6495L118.611 53.5729L118.728 65.4877L118.845 71.014L118.962 65.4537L119.079 63.7485L119.196 63.1265L119.313 61.7899L119.43 63.4101L119.547 65.5313L119.663 67.0004L119.78 64.7812L119.897 66.0545L120.014 64.4728L120.131 62.8652L120.248 63.0868L120.365 62.2715L120.482 66.1632L120.599 64.7573L120.715 63.6182L120.832 62.9996L120.949 64.2522L121.066 64.8348L121.183 67.029L121.3 66.2342L121.417 61.4417L121.534 64.1949L121.651 63.9139L121.768 63.0298L121.884 67.2371L122.001 66.6858L122.118 64.3182L122.235 64.4779L122.352 65.9731L122.469 67.4724L122.586 66.2453L122.703 69.3929L122.82 66.6063L122.936 66.5018L123.053 66.6312L123.17 66.5627L123.287 65.0153L123.404 66.8043L123.521 66.9234L123.638 73.9183L123.755 73.4235L123.872 70.7613L123.988 66.0796L124.105 64.7085L124.222 67.5871L124.339 66.5482L124.456 71.8799L124.573 72.1012L124.69 62.7804L124.807 68.7075L124.924 66.4647L125.041 67.9961L125.157 68.5427L125.274 74.3015L125.391 74.8851L125.508 82.3901L125.625 77.6542L125.742 84.784L125.859 80.2455L125.976 84.1093L126.093 82.6977L126.209 74.3847L126.326 73.233L126.443 70.9859L126.56 73.6845L126.677 78.0758L126.794 78.2303L126.911 81.2965L127.028 84.4121L127.145 70.2962L127.261 70.4489L127.378 67.9193L127.495 68.5647L127.612 72.123L127.729 74.9978L127.846 71.9116L127.963 67.2137L128.08 65.7331L128.197 65.5855L128.314 69.0763L128.43 65.5185L128.547 70.2977L128.664 69.5995L128.781 67.267L128.898 67.9803L129.015 67.2644L129.132 66.014L129.249 67.522L129.366 69.3629L129.482 70.2821L129.599 70.5479L129.716 74.1119L129.833 78.098L129.95 79.6283L130.067 75.378L130.184 72.9293L130.301 73.7969L130.418 70.8071L130.534 71.0661L130.651 73.4226L130.768 69.5781L130.885 75.7515L131.002 74.6094L131.119 76.1807L131.236 72.5651L131.353 75.8435L131.47 76.4481L131.586 76.1865L131.703 76.3743L131.82 77.4452L131.937 77.6238L132.054 73.5709L132.171 75.3807L132.288 79.1595L132.405 76.5649L132.522 77.4441L132.639 72.9889L132.755 75.0185L132.872 74.389L132.989 76.7525L133.106 74.6412L133.223 76.7842L133.34 77.1663L133.457 79.3572L133.574 78.0998L133.691 78.3266L133.807 78.5687L133.924 77.8155L134.041 78.6569L134.158 80.9895L134.275 82.9464L134.392 84.1456L134.509 78.7716L134.626 81.7723L134.743 81.3921L134.859 81.9058L134.976 79.2811L135.093 83.4758L135.21 83.5706L135.327 82.9102L135.444 80.7236L135.561 82.1675L135.678 81.573L135.795 81.7783L135.912 85.5057L136.028 82.9658L136.145 83.1374L136.262 82.3505L136.379 78.4735L136.496 78.4636L136.613 76.4231L136.73 76.3383L136.847 81.9272L136.964 79.3851L137.08 79.713L137.197 80.8554L137.314 77.8238L137.431 78.2967L137.548 79.444L137.665 81.1403L137.782 78.304L137.899 77.5461L138.016 77.2695L138.132 78.0908L138.249 76.0984L138.366 79.8792L138.483 81.3493L138.6 77.441L138.717 78.63L138.834 79.9566L138.951 79.7012L139.068 78.9127L139.185 81.8484L139.301 81.2451L139.418 75.3328L139.535 75.6879L139.652 76.9676L139.769 76.7765L139.886 79.0641L140.003 81.5184L140.12 81.1895L140.237 77.1567L140.353 76.3213L140.47 78.1579L140.587 78.6773L140.704 79.1028L140.821 82.4149L140.938 80.2335L141.055 77.7879L141.172 78.7789L141.289 77.1665L141.405 78.2453L141.522 78.8626L141.639 81.4865L141.756 82.6584L141.873 74.8676L141.99 74.7092L142.107 77.3159L142.224 77.9158L142.341 78.4179L142.458 81.9653L142.574 80.1636L142.691 78.5647L142.808 78.0889L142.925 74.8881L143.042 78.6661L143.159 76.2157L143.276 80.3486L143.393 82.2293L143.51 79.0885L143.626 78.124L143.743 76.3907L143.86 76.6734L143.977 77.7171L144.094 78.8319L144.211 81.3752L144.328 78.678L144.445 79.7706L144.562 79.8883L144.678 78.0966L144.795 78.0054L144.912 78.8733L145.029 80.8596L145.146 77.8506L145.263 78.625L145.38 76.2842L145.497 76.0245L145.614 75.7935L145.731 82.0522L145.847 79.3392L145.964 75.2845L146.081 79.8273L146.198 78.4148L146.315 79.071L146.432 77.73L146.549 79.3341L146.666 84.0349L146.783 80.5583L146.899 84.7245L147.016 76.7278L147.133 76.3521L147.25 79.0153L147.367 81.1702L147.484 82.5135L147.601 78.927L147.718 78.7915L147.835 78.4824L147.951 77.1294L148.068 79.4417L148.185 84.4685L148.302 82.8532L148.419 77.4452L148.536 79.5512L148.653 81.3677L148.77 80.8379L148.887 79.6075L149.004 79.5947L149.12 79.6748L149.237 77.1343L149.354 75.8481L149.471 79.894L149.588 80.666L149.705 81.5247L149.822 83.8101L149.939 82.4321L150.056 77.9344L150.172 78.0776L150.289 78.6798L150.406 80.8393L150.523 81.8658L150.64 84.6034L150.757 86.0662L150.874 86.5164L150.991 86.6055L151.108 85.8018L151.224 85.8238L151.341 83.3831L151.458 86.475L151.575 88.504L151.692 85.8051L151.809 85.2916L151.926 82.2889L152.043 83.2235L152.16 83.5722L152.276 84.3781L152.393 84.737L152.51 81.0988L152.627 79.9062L152.744 80.0942L152.861 79.2737L152.978 80.062L153.095 83.1421L153.212 79.534L153.329 77.6416L153.445 78.76L153.562 79.5727L153.679 79.4631L153.796 79.1155L153.913 80.2835L154.03 82.2309L154.147 75.0217L154.264 76.2695L154.381 77.3497L154.497 77.702L154.614 78.2843L154.731 78.6512L154.848 82.7015L154.965 79.7477L155.082 78.1746L155.199 77.6684L155.316 77.6376L155.433 78.8115L155.549 81.5654L155.666 82.0905L155.783 77.6312L155.9 74.1346L156.017 74.4519L156.134 75.1284L156.251 74.5429L156.368 78.3171L156.485 79.0337L156.602 73.4167L156.718 74.5254L156.835 74.6981L156.952 74.2233L157.069 73.8858L157.186 72.3283L157.303 73.5543L157.42 71.2226L157.537 67.2L157.654 67.8934L157.77 72.0152L157.887 74.9251L158.004 78.4716L158.121 77.6907L158.238 72.3265L158.355 72.9517L158.472 71.9842L158.589 68.8844L158.706 70.8154L158.822 75.3555L158.939 78.9219L159.056 74.9175L159.173 72.9773L159.29 71.5428L159.407 70.6543L159.524 70.9062L159.641 71.2649L159.758 74.4025L159.875 69.433L159.991 68.8711L160.108 72.2748L160.225 71.6039L160.342 72.7178L160.459 78.2659L160.576 76.5291L160.693 74.5266L160.81 70.0835L160.927 70.308L161.043 74.6778L161.16 72.164L161.277 74.8421L161.394 74.0486L161.511 70.1758L161.628 72.8822L161.745 71.2552L161.862 69.4818L161.979 68.4485L162.095 68.1341L162.212 69.6292L162.329 67.2115L162.446 63.1458L162.563 62.1972L162.68 58.7794L162.797 64.3L162.914 68.5242L163.031 67.5648L163.148 61.4891L163.264 64.1602L163.381 60.7434L163.498 62.2469L163.615 59.0135L163.732 62.629L163.849 66.9634L163.966 56.8886L164.083 58.6481L164.2 56.5629L164.316 59.6987L164.433 60.8961L164.55 56.0417L164.667 59.7558L164.784 59.8589L164.901 59.696L165.018 64.9163L165.135 63.4824L165.252 67.2251L165.368 54.0169L165.485 69.634L165.602 55.6501L165.719 57.5482L165.836 61.4597L165.953 67.7156L166.07 63.4516L166.187 57.0455L166.304 59.8638L166.421 56.7555L166.537 62.0612L166.654 60.0288L166.771 54.4471L166.888 66.1438L167.005 67.2432L167.122 66.3766L167.239 64.3385L167.356 57.4266L167.473 62.1411L167.589 64.0858L167.706 53.3674L167.823 68.6416L167.94 71.3137L168.057 56.3105L168.174 59.5212L168.291 67.5199L168.408 67.8421L168.525 62.114L168.641 67.4741L168.758 77.1729L168.875 64.3296L168.992 66.4637L169.109 68.486L169.226 54.9962L169.343 69.0333L169.46 76.8787L169.577 75.4007L169.694 68.0801L169.81 53.4177L169.927 63.1885L170.044 72.3336L170.161 64.0052L170.278 77.0591L170.395 80.5371L170.512 73.8681L170.629 75.7783L170.746 58.8355L170.862 56.4301L170.979 73.891L171.096 77.4194L171.213 77.7013L171.33 71.8195L171.447 69.6317L171.564 71.4081L171.681 60.5032L171.798 66.6691L171.914 65.813L172.031 77.9023L172.148 69.4819L172.265 68.7141L172.382 68.1262L172.499 70.9314L172.616 69.2944L172.733 74.4172L172.85 77.1481L172.966 69.7915L173.083 70.5967L173.2 68.455L173.317 71.1379L173.434 69.4573L173.551 73.8432L173.668 74.6241L173.785 69.1422L173.902 68.6313L174.019 68.7453L174.135 68.4269L174.252 68.6448L174.369 71.4109L174.486 71.8043L174.603 67.6542L174.72 67.8058L174.837 69.2663L174.954 69.1576L175.071 69.7777L175.187 71.6625L175.304 71.0725L175.421 67.2767L175.538 67.6329L175.655 69.7078L175.772 66.5812L175.889 66.6585L176.006 71.7938L176.123 71.924L176.239 67.3349L176.356 70.9946L176.473 70.2233L176.59 69.1837L176.707 74.8379L176.824 74.556L176.941 74.2462L177.058 68.6601L177.175 71.5474L177.292 70.0287L177.408 70.9457L177.525 69.5558L177.642 76.3322L177.759 77.4833L177.876 73.9398L177.993 69.9848L178.11 71.7808L178.227 72.9087L178.344 74.8287L178.46 75.7184L178.577 76.6135L178.694 71.4284L178.811 73.6195L178.928 74.6311L179.045 75.3049L179.162 76.7144L179.279 76.4368L179.396 77.7537L179.512 74.5044L179.629 69.9368L179.746 67.6255L179.863 70.1762L179.98 70.371L180.097 74.2186L180.214 78.0314L180.331 73.3077L180.448 71.0461L180.565 70.8269L180.681 70.3129L180.798 68.6242L180.915 72.4861L181.032 75.4655L181.149 71.7327L181.266 69.0425L181.383 68.4696L181.5 69.1165L181.617 68.1725L181.733 69.5731L181.85 73.739L181.967 69.3185L182.084 70.0919L182.201 69.5282L182.318 68.0336L182.435 70.2387L182.552 76.6704L182.669 77.7907L182.785 72.1695L182.902 68.3079L183.019 70.0856L183.136 61.6464L183.253 70.5704L183.37 75.9355L183.487 75.6334L183.604 69.9491L183.721 70.0334L183.838 69.7575L183.954 71.6776L184.071 71.4778L184.188 76.3498L184.305 76.152L184.422 68.5776L184.539 68.5179L184.656 71.0987L184.773 66.9746L184.89 65.1782L185.006 74.3754L185.123 76.3375L185.24 66.975L185.357 71.6648L185.474 71.9341L185.591 74.8599L185.708 72.1817L185.825 77.0148L185.942 75.3117L186.058 71.5815L186.175 75.5678L186.292 72.721L186.409 75.1663L186.526 77.6467L186.643 82.471L186.76 85.1472L186.877 74.1616L186.994 74.3792L187.111 74.7319L187.227 74.1516L187.344 74.9484L187.461 78.9169L187.578 80.2788L187.695 74.2055L187.812 73.5109L187.929 72.5918L188.046 75.0257L188.163 75.3529L188.279 79.2421L188.396 80.113L188.513 74.3774L188.63 76.0028L188.747 78.1302L188.864 76.9147L188.981 77.2878L189.098 80.8742L189.215 82.9218L189.331 77.0399L189.448 78.7437L189.565 83.6891L189.682 81.4832L189.799 77.1969L189.916 78.4696L190.033 80.4103L190.15 74.6656L190.267 73.5403L190.383 73.1256L190.5 74.9547L190.617 75.8742L190.734 79.0033L190.851 80.4505L190.968 78.1135L191.085 72.1151L191.202 70.6121L191.319 70.88L191.436 71.844L191.552 74.5705L191.669 75.2948L191.786 76.2029L191.903 78.476L192.02 81.0248L192.137 78.8385L192.254 81.9628L192.371 85.4381L192.488 85.8146L192.604 83.1243L192.721 80.3189L192.838 78.8952L192.955 78.0761L193.072 77.1001L193.189 79.2205L193.306 80.104L193.423 74.9664L193.54 80.4209L193.656 75.5536L193.773 75.7947L193.89 74.681L194.007 72.6847L194.124 74.5468L194.241 72.2836L194.358 69.9984L194.475 64.9857L194.592 66.8693L194.709 66.4709L194.825 70.5697L194.942 72.6936L195.059 70.7831L195.176 68.6052L195.293 70.7566L195.41 71.1083L195.527 72.1831L195.644 75.8311L195.761 75.8068L195.877 71.2153L195.994 72.1992L196.111 70.2438L196.228 69.705L196.345 71.1594L196.462 75.0073L196.579 74.5542L196.696 71.5664L196.813 72.6976L196.929 72.554L197.046 69.3874L197.163 71.8302L197.28 74.4137L197.397 72.633L197.514 65.7796L197.631 67.1048L197.748 69.7849L197.865 67.0939L197.982 62.1779L198.098 71.5465L198.215 72.91L198.332 65.7791L198.449 66.9631L198.566 66.6621L198.683 61.2716L198.8 63.6324L198.917 61.639L199.034 67.9165L199.15 64.8122L199.267 65.3389L199.384 66.834L199.501 66.4246L199.618 67.7709L199.735 72.3419L199.852 75.7112L199.969 69.168L200.086 68.7312L200.202 71.4801L200.319 69.3626L200.436 69.2422L200.553 74.6979L200.67 75.3719L200.787 66.5006L200.904 65.8142L201.021 63.1775L201.138 68.9707L201.255 67.9476L201.371 71.6202L201.488 71.7326L201.605 68.023L201.722 64.094L201.839 65.3246L201.956 65.4272L202.073 65.6919L202.19 65.8345L202.307 68.1714L202.423 63.253L202.54 64.1509L202.657 65.4167L202.774 63.3933L202.891 62.2422L203.008 65.3163L203.125 64.7721L203.242 62.5588L203.359 62.7134L203.475 59.3618L203.592 59.2728L203.709 63.3515L203.826 66.8001L203.943 65.4635L204.06 66.3464L204.177 65.6988L204.294 62.9924L204.411 60.5321L204.528 59.9328L204.644 59.5591L204.761 60.418L204.878 59.9442L204.995 60.332L205.112 61.6695L205.229 63.7372L205.346 59.8801L205.463 60.6505L205.58 64.4047L205.696 61.631L205.813 62.1728L205.93 61.7589L206.047 61.0637L206.164 58.324L206.281 61.023L206.398 63.4295L206.515 60.618L206.632 58.2849L206.748 59.4556L206.865 58.8326L206.982 56.4636L207.099 60.2603L207.216 62.0563L207.333 57.5575L207.45 54.6796L207.567 59.3345L207.684 57.5274L207.8 59.1298L207.917 56.6369L208.034 56.7729L208.151 55.5084L208.268 57.9409L208.385 56.9926L208.502 57.8137L208.619 59.8447L208.736 63.0059L208.853 65.727L208.969 58.5497L209.086 58.9644L209.203 60.3851L209.32 58.4615L209.437 56.6513L209.554 56.9066L209.671 54.3324L209.788 48.4093L209.905 46.8663L210.021 49.6061L210.138 51.2484L210.255 52.6153L210.372 52.636L210.489 53.7305L210.606 50.4336L210.723 47.3245L210.84 51.0963L210.957 51.3963L211.073 52.3563L211.19 56.6318L211.307 60.366L211.424 52.4739L211.541 49.9646L211.658 48.4021L211.775 49.6354L211.892 51.6396L212.009 54.5652L212.126 53.7176L212.242 45.0395L212.359 48.0383L212.476 47.3221L212.593 49.7325L212.71 49.1978L212.827 49.5696L212.944 48.9527L213.061 45.4982L213.178 46.8295L213.294 45.8174L213.411 45.304L213.528 45.3526L213.645 43.7044L213.762 45.8257L213.879 38.8571L213.996 41.0624L214.113 44.3618L214.23 44.3263L214.346 41.2606L214.463 43.9266L214.58 46.5029L214.697 43.6319L214.814 44.3416L214.931 43.2988L215.048 41.4272L215.165 39.5204L215.282 43.3153L215.399 40.679L215.515 37.2484L215.632 39.2638L215.749 40.6754L215.866 41.8076L215.983 42.2359L216.1 47.521L216.217 45.0093L216.334 43.3395L216.451 40.6731L216.567 41.3704L216.684 43.2821L216.801 39.1224L216.918 47.823L217.035 46.6925L217.152 44.4559L217.269 45.8085L217.386 44.2283L217.503 45.9L217.619 46.163L217.736 46.2149L217.853 45.5707L217.97 40.3009L218.087 39.7456L218.204 43.3826L218.321 45.1634L218.438 45.6388L218.555 51.2955L218.672 52.0986L218.788 50.6992L218.905 52.0967L219.022 50.6359L219.139 46.7805L219.256 49.4058L219.373 51.6521L219.49 51.2312L219.607 49.1083L219.724 48.536L219.84 51.6279L219.957 30.7043L220.074 39.796L220.191 48.5267L220.308 48.2273L220.425 46.0643L220.542 49.0063L220.659 48.8595L220.776 48.6657L220.892 51.6405L221.009 54.4734L221.126 55.493L221.243 49.0802L221.36 48.6264L221.477 49.1449L221.594 52.5456L221.711 53.482L221.828 56.0542L221.945 54.423L222.061 52.0409L222.178 48.8932L222.295 51.607L222.412 52.5058L222.529 50.8069L222.646 51.5524L222.763 53.3374L222.88 48.4048L222.997 46.4177L223.113 48.3053L223.23 39.5271L223.347 44.5149L223.464 50.6827L223.581 53.8444L223.698 46.3312L223.815 47.6426L223.932 44.6154L224.049 42.941L224.165 46.1109L224.282 52.917L224.399 55.5648L224.516 48.7445L224.633 49.1773L224.75 45.729L224.867 47.5201L224.984 47.3417L225.101 48.5501L225.217 50.7402L225.334 44.7555L225.451 46.871L225.568 45.8578L225.685 46.3594L225.802 43.9038L225.919 46.1737L226.036 52.6739L226.153 45.2729L226.27 44.7225L226.386 48.1556L226.503 48.0049L226.62 44.7833L226.737 49.8204L226.854 51.4917L226.971 47.6519L227.088 43.8451L227.205 46.7898L227.322 46.6799L227.438 44.417L227.555 43.8918L227.672 45.2554L227.789 41.5542L227.906 40.0631L228.023 41.9889L228.14 43.8272L228.257 47.7999L228.374 54.0348L228.491 53.9449L228.607 43.2302L228.724 43.8818L228.841 49.5764L228.958 47.1632L229.075 46.0263L229.192 50.46L229.309 51.656L229.426 47.8217L229.543 45.1533L229.659 45.0966L229.776 48.3898L229.893 46.713L230.01 48.4104L230.127 45.5544L230.244 39.9773L230.361 41.461L230.478 38.8395L230.595 34.2988L230.711 42.6642L230.828 44.417L230.945 49.4119L231.062 45.315L231.179 45.3064L231.296 39.2602L231.413 45.5522L231.53 45.6834L231.647 45.7316L231.763 43.5992L231.88 39.1206L231.997 41.945L232.114 40.7635L232.231 44.3603L232.348 45.8923L232.465 43.9676L232.582 40.3819L232.699 38.0837L232.816 39.0271L232.932 37.7868L233.049 36.7641L233.166 37.3063L233.283 40.5319L233.4 41.7251L233.517 37.7952L233.634 44.2683L233.751 46.4664L233.868 43.1913L233.984 40.7898L234.101 42.6987L234.218 46.0963L234.335 41.3105L234.452 39.3771L234.569 41.5374L234.686 43.5531L234.803 43.2934L234.92 45.6693L235.036 46.9621L235.153 41.9134L235.27 42.6279L235.387 45.6516L235.504 42.84L235.621 37.0238L235.738 41.2943L235.855 39.7894L235.972 36.6579L236.089 36.5202L236.205 35.8426L236.322 36.127L236.439 35.73L236.556 40.7536L236.673 40.5951L236.79 38.0516L236.907 35.1299L237.024 35.5352L237.141 38.3458L237.257 37.2303L237.374 39.3698L237.491 41.9472L237.608 41.7309L237.725 41.3126L237.842 39.0236L237.959 36.7721L238.076 35.3513L238.193 34.568L238.309 40.4327L238.426 35.9965L238.543 36.5208L238.66 37.5175L238.777 40.4756L238.894 40.2791L239.011 42.1859L239.128 43.4589L239.245 43.1168L239.362 40.0569L239.478 40.3464L239.595 40.3546L239.712 41.8358L239.829 44.5497L239.946 43.4451L240.063 41.3972L240.18 38.0737L240.297 39.1611L240.414 37.5424L240.53 35.2351L240.647 37.0582L240.764 37.9302L240.881 35.4771L240.998 36.1762L241.115 38.2456L241.232 36.6968L241.349 37.1778L241.466 38.809L241.582 41.981L241.699 36.2626L241.816 36.742L241.933 36.1493L242.05 33.8824L242.167 38.6101L242.284 40.588L242.401 41.6509L242.518 38.3808L242.635 36.6284L242.751 33.6038L242.868 32.8479L242.985 33.3773L243.102 37.0593L243.219 42.4429L243.336 36.8555L243.453 34.6643L243.57 37.0637L243.687 37.5603L243.803 36.6336L243.92 35.8364L244.037 39.1138L244.154 33.9772L244.271 33.8371L244.388 31.8139L244.505 42.4731L244.622 29.5221L244.739 28.0545L244.855 31.2259L244.972 26.7099L245.089 22.2704L245.206 21.7179L245.323 21.0462L245.44 23.3115L245.557 31.6581L245.674 31.6442L245.791 28.3102L245.908 28.3199L246.024 24.411L246.141 23.6714L246.258 28.7183L246.375 29.4888L246.492 30.059L246.609 26.0352L246.726 23.3668L246.843 24.3392L246.96 23.588L247.076 23.8309L247.193 13.5106L247.31 13.1881L247.427 13.1944L247.544 13.2191L247.661 18.4062L247.778 20.4092L247.895 23.6166L248.012 26.9446L248.128 29.6271L248.245 28.4139L248.362 29.6306L248.479 27.5935L248.596 27.7079L248.713 32.8824L248.83 37.6047L248.947 38.6993L249.064 35.9648L249.18 37.2785L249.297 35.1926L249.414 37.1692L249.531 36.3969L249.648 37.0541L249.765 37.7953L249.882 36.8024L249.999 38.1297L250.116 35.8837L250.233 34.5565L250.349 36.5816L250.466 43.6385L250.583 46.0156L250.7 40.8821L250.817 41.1351L250.934 42.6459L251.051 42.9685L251.168 43.2657L251.285 46.1706L251.401 46.5677L251.518 42.9685L251.635 40.9638L251.752 42.2605L251.869 41.254L251.986 44.0047L252.103 50.772L252.22 50.3716L252.337 41.7835L252.453 36.8162L252.57 42.2117L252.687 41.9276L252.804 40.7816L252.921 45.117L253.038 47.6976L253.155 30.8123L253.272 38.6956L253.389 41.6342L253.506 41.6626L253.622 43.3622L253.739 46.6914L253.856 47.6615L253.973 45.2616L254.09 33.5577L254.207 37.1921L254.324 38.791L254.441 40.9869L254.558 45.7483L254.674 47.8632L254.791 42.8044L254.908 43.2586L255.025 41.0186L255.142 38.9408L255.259 42.3784L255.376 44.3182L255.493 44.0802L255.61 42.5927L255.726 42.7319L255.843 42.5954L255.96 42.1626L256.077 42.1315L256.194 40.8844L256.311 46.3358L256.428 38.9043L256.545 35.6611L256.662 36.6673L256.779 38.9884L256.895 39.9353L257.012 41.6281L257.129 42.8522L257.246 38.4051L257.363 41.2141L257.48 40.9785L257.597 44.5979L257.714 41.6451L257.831 42.4114L257.947 43.2097L258.064 41.2744L258.181 41.63L258.298 40.3825L258.415 42.5891L258.532 42.4894L258.649 44.5822L258.766 46.5362L258.883 39.2794L258.999 39.3812L259.116 42.236L259.233 39.1956L259.35 38.9361L259.467 43.0699L259.584 43.2314L259.701 39.75L259.818 39.6695L259.935 43.1814L260.052 43.7294L260.168 46.8872L260.285 46.1738L260.402 45.3036L260.519 42.3798L260.636 41.9669L260.753 40.9072L260.87 38.8682L260.987 42.392L261.104 42.9386L261.22 45.9061L261.337 41.9569L261.454 36.2281L261.571 43.5385L261.688 41.2036L261.805 39.8017L261.922 39.5349L262.039 41.6842L262.156 38.5167L262.272 40.5612L262.389 41.895L262.506 40.9493L262.623 43.0236L262.74 45.5277L262.857 46.3709L262.974 43.7578L263.091 42.7012L263.208 43.7877L263.325 42.7148L263.441 44.9915L263.558 46.774L263.675 48.6093L263.792 46.0507L263.909 47.5047L264.026 45.9399L264.143 47.0516L264.26 41.9134L264.377 46.9533L264.493 46.2582L264.61 46.7495L264.727 40.3111L264.844 34.5496L264.961 34.1852L265.078 37.4145L265.195 42.7823L265.312 45.8253L265.429 43.2544L265.545 42.1219L265.662 42.8952L265.779 40.7948L265.896 36.5145L266.013 43.3928L266.13 45.4709L266.247 42.4543L266.364 39.8696L266.481 38.9457L266.597 37.9649L266.714 39.1623L266.831 40.3396L266.948 38.8652L267.065 36.7118L267.182 34.1583L267.299 32.707L267.416 24.8115L267.533 27.8665L267.65 32.2225L267.766 36.4473L267.883 34.3297L268 31.2885L268.117 30.0723L268.234 33.7401L268.351 34.4465L268.468 39.1692L268.585 37.9805L268.702 35.0468L268.818 34.7576L268.935 31.5654L269.052 33.9963L269.169 34.138L269.286 36.6571L269.403 38.0513L269.52 37.2678L269.637 36.1107L269.754 33.6819L269.87 37.5716L269.987 39.1767L270.104 44.5717L270.221 38.8862L270.338 41.11L270.455 38.6575L270.572 34.2869L270.689 36.5943L270.806 36.8229L270.923 41.5739L271.039 45.9521L271.156 39.6336L271.273 37.759L271.39 41.1024L271.507 38.6411L271.624 41.6751L271.741 40.3098L271.858 31.8054L271.975 39.798L272.091 40.926L272.208 36.8916L272.325 39.4277L272.442 40.1949L272.559 42.3578L272.676 43.3439L272.793 39.8992L272.91 41.4827L273.027 39.0259L273.143 44.8352L273.26 38.3552L273.377 44.5861L273.494 45.8433L273.611 42.2532L273.728 42.1179L273.845 40.4442L273.962 39.7715L274.079 36.7775L274.196 36.7104L274.312 41.9315L274.429 39.3883L274.546 40.0089L274.663 39.364L274.78 39.1824L274.897 41.5005L275.014 43.3952L275.131 44.641L275.248 41.8057L275.364 41.1209L275.481 39.5241L275.598 41.6184L275.715 42.9722L275.832 43.2326L275.949 47.4934L276.066 40.4509L276.183 37.9438L276.3 37.6225L276.416 37.6465L276.533 41.2819L276.65 43.7415L276.767 44.4123L276.884 42.3953L277.001 44.0417L277.118 41.0178L277.235 42.886L277.352 42.8928L277.469 42.0456L277.585 49.2101L277.702 45.306L277.819 43.5841L277.936 45.362L278.053 46.0631L278.17 45.8446L278.287 45.3033L278.404 43.2339L278.521 43.6007L278.637 43.8345L278.754 44.9926L278.871 47.3303L278.988 44.0717L279.105 40.3478L279.222 43.7959L279.339 44.3907L279.456 43.407L279.573 41.9909L279.689 42.0029L279.806 43.2273L279.923 47.1367L280.04 47.1001L280.157 45.2827L280.274 42.7385L280.391 42.6223L280.508 45.5943L280.625 39.3479L280.742 45.1338L280.858 34.2092L280.975 46.0256L281.092 46.3152L281.209 45.2765L281.326 43.3843L281.443 45.8254L281.56 44.1389L281.677 46.5492L281.794 47.5053L281.91 44.4907L282.027 42.8098L282.144 44.1736L282.261 44.1588L282.378 49.2046L282.495 46.6518L282.612 43.7573L282.729 42.5697L282.846 43.5456L282.962 40.6542L283.079 46.8724L283.196 46.7995L283.313 51.2436L283.43 48.0805L283.547 42.8753L283.664 40.2921L283.781 43.7594L283.898 38.604L284.014 46.4058L284.131 46.8875L284.248 44.4194L284.365 41.1629L284.482 44.3287L284.599 45.0319L284.716 45.3226L284.833 46.6161L284.95 46.684L285.067 41.3066L285.183 42.3287L285.3 45.0188L285.417 44.1773L285.534 44.6075L285.651 48.2635L285.768 50.1748L285.885 47.6712L286.002 48.6887L286.119 46.4302L286.235 46.3953L286.352 47.7136L286.469 48.7862L286.586 47.7237L286.703 47.2147L286.82 47.2565L286.937 49.7685L287.054 46.988L287.171 47.3428L287.287 50.259L287.404 51.1633L287.521 47.7688L287.638 41.5055L287.755 39.9806L287.872 46.8391L287.989 45.4349L288.106 50.6993L288.223 49.5544L288.34 45.1865L288.456 46.5387L288.573 44.4941L288.69 44.8319L288.807 44.1232L288.924 41.6648L289.041 44.8729L289.158 47.2824L289.275 49.2314L289.392 47.8357L289.508 43.0109L289.625 47.0287L289.742 50.6987L289.859 48.6848L289.976 44.6726L290.093 42.1576L290.21 41.7191L290.327 35.118L290.444 34.2918L290.56 45.719L290.677 48.5583L290.794 46.5894L290.911 45.9484L291.028 43.5687L291.145 48.3369L291.262 47.2403L291.379 48.2708L291.496 50.4644L291.613 48.7601L291.729 47.9225L291.846 48.2651L291.963 49.5882L292.08 48.3311L292.197 49.6659L292.314 49.9137L292.431 49.6367L292.548 45.1913L292.665 48.4557L292.781 48.3702L292.898 49.7966L293.015 51.9602L293.132 53.2016L293.249 51.1031L293.366 50.7272L293.483 51.1916L293.6 52.3357L293.717 49.1219L293.833 51.8194L293.95 52.3824L294.067 47.4307L294.184 48.7097L294.301 48.132L294.418 47.9452L294.535 47.3662L294.652 50.3125L294.769 52.5494L294.886 51.1917L295.002 52.8771L295.119 54.2408L295.236 55.4092L295.353 52.5044L295.47 57.0264L295.587 58.1301L295.704 53.9352L295.821 54.9235L295.938 53.2891L296.054 50.5326L296.171 43.5288L296.288 42.9219L296.405 44.7452L296.522 45.0302L296.639 43.3098L296.756 44.4982L296.873 42.6428L296.99 42.728L297.106 43.9728L297.223 45.2165L297.34 45.3477L297.457 45.9383L297.574 43.7396L297.691 42.9114L297.808 41.3307L297.925 39.9824L298.042 39.7544L298.159 41.558L298.275 43.7033L298.392 42.8051L298.509 42.0751L298.626 42.2272L298.743 45.4549L298.86 46.705L298.977 38.0447L299.094 15.3048L299.211 42.467L299.327 44.6815L299.444 42.7556L299.561 43.4651L299.678 44.6567L299.795 34.3032L299.912 41.9742L300.029 39.4531L300.146 27.738L300.263 41.9177L300.379 45.243L300.496 44.188L300.613 44.1777L300.73 46.545L300.847 44.5575L300.964 48.0357L301.081 46.223L301.198 47.6111L301.315 47.8293L301.431 47.7142L301.548 48.7348L301.665 48.0045L301.782 46.9551L301.899 48.3401L302.016 48.1834L302.133 49.2458L302.25 50.2221L302.367 49.3322L302.484 51.1312L302.6 49.3974L302.717 50.3446L302.834 50.8983L302.951 52.1901L303.068 48.9102L303.185 50.6719L303.302 51.621L303.419 48.7997L303.536 48.9091L303.652 51.5956L303.769 47.2229L303.886 48.4506L304.003 49.2639L304.12 49.7508L304.237 49.1647L304.354 48.3031L304.471 53.7064L304.588 52.2218L304.704 49.7129L304.821 48.346L304.938 47.4455L305.055 38.6211L305.172 36.015L305.289 35.4382L305.406 44.7542L305.523 45.8078L305.64 45.1976L305.757 47.9555L305.873 46.9309L305.99 46.8408L306.107 47.4436L306.224 47.5558L306.341 45.6382L306.458 41.5169L306.575 47.4154L306.692 46.2958L306.809 40.8631L306.925 44.6896L307.042 44.3603L307.159 36.2805L307.276 43.1538L307.393 44.0513L307.51 42.1726L307.627 43.4308L307.744 43.4463L307.861 49.7376L307.977 46.6437L308.094 46.2534L308.211 49.4176L308.328 46.602L308.445 49.5478L308.562 51.4668L308.679 54.6922L308.796 49.482L308.913 50.0742L309.03 48.6056L309.146 44.8277L309.263 47.0141L309.38 55.8913L309.497 53.0515L309.614 51.3895L309.731 50.8953L309.848 47.6964L309.965 47.2981L310.082 50.2394L310.198 51.4143L310.315 51.7146L310.432 50.0355L310.549 49.5427L310.666 52.7033L310.783 48.3025L310.9 52.8054L311.017 56.3058L311.134 55.698L311.25 47.5843L311.367 46.1554L311.484 41.2149L311.601 43.1898L311.718 46.8931L311.835 51.7167L311.952 46.0767L312.069 42.7278L312.186 45.8811L312.303 48.8767L312.419 47.771L312.536 53.124L312.653 58.5717L312.77 57.7064L312.887 55.6354L313.004 55.6935L313.121 55.1497L313.238 54.1551L313.355 53.652L313.471 57.269L313.588 60.2949L313.705 48.6553L313.822 50.93L313.939 52.1075L314.056 54.4971L314.173 51.7441L314.29 55.6463L314.407 55.7359L314.523 53.1398L314.64 50.8353L314.757 55.1748L314.874 57.8951L314.991 1L315.108 47.7824L315.225 49.7623L315.342 43.3381L315.459 45.0844L315.576 48.238L315.692 49.0808L315.809 44.9584L315.926 51.3118L316.043 58.2938L316.16 53.8988L316.277 54.0272L316.394 51.9626L316.511 54.191L316.628 51.0775L316.744 58.5933L316.861 62.8278L316.978 57.1187L317.095 52.1771L317.212 54.8777L317.329 56.669L317.446 56.7173L317.563 61.1707L317.68 68.1088L317.796 58.0988L317.913 56.5287L318.03 50.9863L318.147 45.548L318.264 52.016L318.381 55.9934L318.498 43.219L318.615 48.3195L318.732 50.1592L318.848 48.9115L318.965 48.777L319.082 49.2978L319.199 47.5227L319.316 53.5587L319.433 50.3719L319.55 52.5675L319.667 46.9349" stroke="#CED4DA" stroke-width="0.6" stroke-linecap="round" stroke-linejoin="round"/>
</svg>
