<svg width="315" height="118" viewBox="0 0 315 118" fill="none" xmlns="http://www.w3.org/2000/svg">
<path d="M0.300537 24.133H222" stroke="#F4F6F8" stroke-width="0.699367" stroke-dasharray="1.4 1.4"/>
<path d="M0.300537 38.6798H222" stroke="#F4F6F8" stroke-width="0.699367" stroke-dasharray="1.4 1.4"/>
<path d="M0.300537 53.2267H222" stroke="#F4F6F8" stroke-width="0.699367" stroke-dasharray="1.4 1.4"/>
<path d="M0.300537 67.7735H222" stroke="#F4F6F8" stroke-width="0.699367" stroke-dasharray="1.4 1.4"/>
<path d="M0.300537 82.3203H222" stroke="#F4F6F8" stroke-width="0.699367" stroke-dasharray="1.4 1.4"/>
<rect width="222" height="0.699367" transform="matrix(1 0 0 -1 0.300537 97.2169)" fill="#F4F6F8"/>
<path opacity="0.2" d="M1.92363 25.7256L0.999878 26.1238V104.56H222.699V77.8839L221.775 78.6802L220.852 79.4765L219.928 76.2912L219.004 79.0783L218.081 76.6894L217.157 86.2451L216.233 83.0599L215.309 83.458L214.386 75.8931L213.462 77.4857L212.538 74.3005L211.614 75.4949H210.691L209.767 71.1152L208.843 75.4949L207.919 73.5042L206.996 68.7263L206.072 74.6986H205.148L204.224 80.2728L203.301 48.4204L202.377 45.2352L201.453 44.837L200.529 50.4112L199.606 49.2167L198.682 53.9946L197.758 44.837L196.834 46.0315L195.911 50.013L194.987 50.4112L194.063 50.013L193.139 47.6241L192.216 49.6149L191.292 47.226L190.368 46.8278L189.444 50.013L188.521 49.6149L187.597 47.226L186.673 46.8278L185.749 45.6333L184.826 46.8278L183.902 47.226L182.978 45.6333L182.054 46.4296H181.131L180.207 48.8186L179.283 48.4204L178.359 48.8186L177.436 49.6149L176.512 50.013L175.588 55.9854L174.664 56.3835L173.741 55.9854L172.817 56.3835L171.893 50.013L170.969 50.4112L170.046 50.013L169.122 46.4296L168.198 46.0315L167.274 46.8278L166.351 51.6057L165.427 52.8001L164.503 48.0223L163.579 48.4204L162.656 46.0315L161.732 50.013L160.808 49.6149L159.884 46.0315L158.961 48.8186L158.037 49.6149L157.113 48.8186L156.189 46.4296L155.266 46.0315L154.342 47.6241L153.418 47.226L152.494 38.8647L151.571 36.4758L150.647 32.8924L149.723 41.6518L148.799 42.0499L147.876 41.6518L146.952 46.8278L146.028 46.4296L145.104 46.8278L144.181 52.8001L143.257 51.2075L142.333 65.9392L141.409 61.9577L140.486 61.5595L139.562 65.5411L138.638 62.754L137.714 61.9577L136.791 61.5595L135.867 61.9577L134.943 48.8186L134.02 49.2167L133.096 48.8186L132.172 53.1983L131.248 52.8001L130.325 53.1983L129.401 52.8001L128.477 48.4204L127.553 49.2167L126.63 48.4204L125.706 48.0223H124.782L123.858 47.226L122.935 53.1983L122.011 52.8001L121.087 53.1983L120.163 52.8001L119.24 53.1983L118.316 52.8001L117.392 53.1983L116.468 52.8001L115.545 47.226L114.621 46.8278L113.697 47.226L112.773 46.8278H111.85L110.926 46.4296L110.002 46.8278L109.078 54.7909L108.155 55.5872L107.231 51.6057L106.307 52.0038L105.383 54.7909L104.46 50.4112L103.536 50.013L102.612 46.8278L101.688 46.4296L100.765 46.8278H99.8408L98.9171 50.013L97.9933 49.6149L97.0696 48.0223L96.1459 47.6241L95.2221 49.2167L94.2984 30.9016L93.3746 34.8832L92.4509 41.6518L91.5271 49.2167L90.6034 48.8186L89.6796 49.2167L88.7559 48.8186L87.8321 44.4389L86.9084 37.6702L85.9846 38.4666L85.0609 38.0684L84.1371 44.837L83.2134 52.0038L82.2896 46.0315L81.3659 50.4112L80.4422 53.1983L79.5184 52.8001L78.5947 53.1983L77.6709 52.8001L76.7472 53.1983L75.8234 48.4204L74.8997 48.8186L73.9759 48.4204L73.0522 56.3835L72.1284 48.8186L71.2047 50.8093L70.2809 50.4112L69.3572 49.2167H68.4334L67.5097 49.6149L66.5859 52.8001L65.6622 53.1983L64.7384 52.8001L63.8147 51.2075L62.8909 50.8093L61.9672 51.2075L61.0435 46.8278L60.1197 45.2352L59.196 50.8093L58.2722 51.2075L57.3485 50.8093L56.4247 48.4204L55.501 48.0223L54.5772 46.0315L53.6535 38.8647L52.7297 39.2629L51.806 36.4758L50.8822 38.0684H49.9585L49.0347 37.2721L48.111 41.2536L47.1872 40.0592L46.2635 42.0499L45.3398 46.8278L44.416 49.6149L43.4923 50.013L42.5685 50.4112L41.6448 55.189L40.721 54.7909L39.7973 49.2167L38.8735 43.2444L37.9498 49.6149L37.026 47.226L36.1023 47.6241L35.1785 44.0407L34.2548 44.4389L33.331 44.0407L32.4073 42.8463L31.4835 33.6887L30.5598 28.1145L29.636 27.7164L28.7123 24.5312L27.7886 24.133L26.8648 28.1145L25.9411 24.133L25.0173 30.9016L24.0936 26.1238L23.1698 28.1145L22.2461 27.7164L21.3223 32.4942L20.3986 41.2536L19.4748 43.6426L18.5511 38.8647L17.6273 41.2536L16.7036 50.8093L15.7798 46.0315L14.8561 40.8555L13.9323 41.2536L13.0086 40.4573L12.0848 36.0776L11.1611 37.2721L10.2374 36.8739L9.3136 36.4758L8.38986 36.8739L7.46611 36.4758L6.54236 35.2813L5.61861 24.133L4.69487 24.5312L3.77112 28.1145L2.84737 28.5127L1.92363 25.7256Z" fill="url(#paint0_linear_321_57548)"/>
<path d="M0.999878 26.1238L1.92363 25.7256L2.84737 28.5127L3.77112 28.1145L4.69487 24.5312L5.61861 24.133L6.54236 35.2813L7.46611 36.4758L8.38986 36.8739L9.3136 36.4758L10.2374 36.8739L11.1611 37.2721L12.0848 36.0776L13.0086 40.4573L13.9323 41.2536L14.8561 40.8555L15.7798 46.0315L16.7036 50.8093L17.6273 41.2536L18.5511 38.8647L19.4748 43.6426L20.3986 41.2536L21.3223 32.4942L22.2461 27.7164L23.1698 28.1145L24.0936 26.1238L25.0173 30.9016L25.9411 24.133L26.8648 28.1145L27.7886 24.133L28.7123 24.5312L29.636 27.7164L30.5598 28.1145L31.4835 33.6887L32.4073 42.8463L33.331 44.0407L34.2548 44.4389L35.1785 44.0407L36.1023 47.6241L37.026 47.226L37.9498 49.6149L38.8735 43.2444L39.7973 49.2167L40.721 54.7909L41.6448 55.189L42.5685 50.4112L43.4923 50.013L44.416 49.6149L45.3398 46.8278L46.2635 42.0499L47.1872 40.0592L48.111 41.2536L49.0347 37.2721L49.9585 38.0684H50.8822L51.806 36.4758L52.7297 39.2629L53.6535 38.8647L54.5772 46.0315L55.501 48.0223L56.4247 48.4204L57.3485 50.8093L58.2722 51.2075L59.196 50.8093L60.1197 45.2352L61.0435 46.8278L61.9672 51.2075L62.891 50.8093L63.8147 51.2075L64.7384 52.8001L65.6622 53.1983L66.5859 52.8001L67.5097 49.6149L68.4334 49.2167H69.3572L70.2809 50.4112L71.2047 50.8093L72.1284 48.8186L73.0522 56.3835L73.9759 48.4204L74.8997 48.8186L75.8234 48.4204L76.7472 53.1983L77.6709 52.8001L78.5947 53.1983L79.5184 52.8001L80.4422 53.1983L81.3659 50.4112L82.2896 46.0315L83.2134 52.0038L84.1371 44.837L85.0609 38.0684L85.9846 38.4666L86.9084 37.6702L87.8321 44.4389L88.7559 48.8186L89.6796 49.2167L90.6034 48.8186L91.5271 49.2167L92.4509 41.6518L93.3746 34.8832L94.2984 30.9016L95.2221 49.2167L96.1459 47.6241L97.0696 48.0223L97.9934 49.6149L98.9171 50.013L99.8408 46.8278H100.765L101.688 46.4296L102.612 46.8278L103.536 50.013L104.46 50.4112L105.383 54.7909L106.307 52.0038L107.231 51.6057L108.155 55.5872L109.078 54.7909L110.002 46.8278L110.926 46.4296L111.85 46.8278H112.773L113.697 47.226L114.621 46.8278L115.545 47.226L116.468 52.8001L117.392 53.1983L118.316 52.8001L119.24 53.1983L120.163 52.8001L121.087 53.1983L122.011 52.8001L122.935 53.1983L123.858 47.226L124.782 48.0223H125.706L126.63 48.4204L127.553 49.2167L128.477 48.4204L129.401 52.8001L130.325 53.1983L131.248 52.8001L132.172 53.1983L133.096 48.8186L134.019 49.2167L134.943 48.8186L135.867 61.9577L136.791 61.5595L137.714 61.9577L138.638 62.754L139.562 65.5411L140.486 61.5595L141.409 61.9577L142.333 65.9392L143.257 51.2075L144.181 52.8001L145.104 46.8278L146.028 46.4296L146.952 46.8278L147.876 41.6518L148.799 42.0499L149.723 41.6518L150.647 32.8924L151.571 36.4758L152.494 38.8647L153.418 47.226L154.342 47.6241L155.266 46.0315L156.189 46.4296L157.113 48.8186L158.037 49.6149L158.961 48.8186L159.884 46.0315L160.808 49.6149L161.732 50.013L162.656 46.0315L163.579 48.4204L164.503 48.0223L165.427 52.8001L166.351 51.6057L167.274 46.8278L168.198 46.0315L169.122 46.4296L170.046 50.013L170.969 50.4112L171.893 50.013L172.817 56.3835L173.741 55.9854L174.664 56.3835L175.588 55.9854L176.512 50.013L177.436 49.6149L178.359 48.8186L179.283 48.4204L180.207 48.8186L181.131 46.4296H182.054L182.978 45.6333L183.902 47.226L184.826 46.8278L185.749 45.6333L186.673 46.8278L187.597 47.226L188.521 49.6149L189.444 50.013L190.368 46.8278L191.292 47.226L192.216 49.6149L193.139 47.6241L194.063 50.013L194.987 50.4112L195.911 50.013L196.834 46.0315L197.758 44.837L198.682 53.9946L199.606 49.2167L200.529 50.4112L201.453 44.837L202.377 45.2352L203.301 48.4204L204.224 80.2728L205.148 74.6986H206.072L206.996 68.7263L207.919 73.5042L208.843 75.4949L209.767 71.1152L210.691 75.4949H211.614L212.538 74.3005L213.462 77.4857L214.386 75.8931L215.309 83.458L216.233 83.0599L217.157 86.2451L218.081 76.6894L219.004 79.0783L219.928 76.2912L220.852 79.4765L221.775 78.6802L222.699 77.8839" stroke="#ADB5BD" stroke-width="0.699367" stroke-linejoin="round"/>
<g clip-path="url(#clip0_321_57548)">
<rect x="245" width="70" height="118" rx="4" fill="white"/>
<rect x="253" y="19" width="52" height="6" rx="1" fill="#F4F6F8"/>
<path d="M258.953 23.1348L258.168 22.3496C258.338 22.1445 258.432 21.8809 258.432 21.5938C258.432 20.9258 257.881 20.375 257.213 20.375C256.539 20.375 256 20.9258 256 21.5938C256 22.2676 256.545 22.8125 257.213 22.8125C257.494 22.8125 257.758 22.7188 257.969 22.5488L258.754 23.334C258.783 23.3633 258.818 23.375 258.859 23.375C258.895 23.375 258.93 23.3633 258.953 23.334C259.012 23.2812 259.012 23.1934 258.953 23.1348ZM256.281 21.5938C256.281 21.0781 256.697 20.6562 257.219 20.6562C257.734 20.6562 258.156 21.0781 258.156 21.5938C258.156 22.1152 257.734 22.5312 257.219 22.5312C256.697 22.5312 256.281 22.1152 256.281 21.5938Z" fill="#ADB5BD"/>
<g filter="url(#filter0_d_321_57548)">
<rect x="253" y="27" width="52" height="128" rx="2" fill="white" shape-rendering="crispEdges"/>
<rect width="52" height="10" transform="translate(253 27)" fill="#E9ECEF"/>
<rect x="258" y="32" width="12" height="2" rx="0.5" fill="#ADB5BD"/>
<rect x="282" y="32" width="18" height="2" rx="0.5" fill="#ADB5BD"/>
<rect x="258" y="40" width="12" height="3" rx="0.5" fill="#E9ECEF"/>
<rect x="282" y="40" width="18" height="3" rx="0.5" fill="#E9ECEF"/>
<path d="M305 45.75H253V46.25H305V45.75Z" fill="#E9ECEF" mask="url(#path-16-inside-1_321_57548)"/>
<rect x="258" y="49" width="12" height="3" rx="0.5" fill="#E9ECEF"/>
<rect x="282" y="49" width="18" height="3" rx="0.5" fill="#E9ECEF"/>
<path d="M305 54.75H253V55.25H305V54.75Z" fill="#E9ECEF" mask="url(#path-20-inside-2_321_57548)"/>
<rect x="258" y="58" width="12" height="3" rx="0.5" fill="#E9ECEF"/>
<rect x="282" y="58" width="18" height="3" rx="0.5" fill="#E9ECEF"/>
<path d="M305 63.75H253V64.25H305V63.75Z" fill="#E9ECEF" mask="url(#path-24-inside-3_321_57548)"/>
<rect x="258" y="67" width="12" height="3" rx="0.5" fill="#E9ECEF"/>
<rect x="282" y="67" width="18" height="3" rx="0.5" fill="#E9ECEF"/>
<path d="M305 72.75H253V73.25H305V72.75Z" fill="#E9ECEF" mask="url(#path-28-inside-4_321_57548)"/>
<rect x="258" y="76" width="12" height="3" rx="0.5" fill="#E9ECEF"/>
<rect x="282" y="76" width="18" height="3" rx="0.5" fill="#E9ECEF"/>
<path d="M305 81.75H253V82.25H305V81.75Z" fill="#E9ECEF" mask="url(#path-32-inside-5_321_57548)"/>
<rect x="258" y="85" width="12" height="3" rx="0.5" fill="#E9ECEF"/>
<rect x="282" y="85" width="18" height="3" rx="0.5" fill="#E9ECEF"/>
<path d="M305 90.75H253V91.25H305V90.75Z" fill="#E9ECEF" mask="url(#path-36-inside-6_321_57548)"/>
<rect x="258" y="94" width="12" height="3" rx="0.5" fill="#E9ECEF"/>
<rect x="282" y="94" width="18" height="3" rx="0.5" fill="#E9ECEF"/>
<path d="M305 99.75H253V100.25H305V99.75Z" fill="#E9ECEF" mask="url(#path-40-inside-7_321_57548)"/>
<rect x="258" y="103" width="12" height="3" rx="0.5" fill="#E9ECEF"/>
<rect x="282" y="103" width="18" height="3" rx="0.5" fill="#E9ECEF"/>
<path d="M305 108.75H253V109.25H305V108.75Z" fill="#E9ECEF" mask="url(#path-44-inside-8_321_57548)"/>
<rect x="258" y="112" width="12" height="3" rx="0.5" fill="#E9ECEF"/>
<rect x="282" y="112" width="18" height="3" rx="0.5" fill="#E9ECEF"/>
<path d="M305 117.75H253V118.25H305V117.75Z" fill="#E9ECEF" mask="url(#path-48-inside-9_321_57548)"/>
</g>
<rect x="253" y="9" width="52" height="2" rx="0.5" fill="#ADB5BD"/>
<rect x="253" y="12" width="28" height="2" rx="0.5" fill="#ADB5BD"/>
</g>
<rect x="245.25" y="0.25" width="69.5" height="117.5" rx="3.75" stroke="#F4F6F8" stroke-width="0.5"/>
<defs>
<filter id="filter0_d_321_57548" x="251" y="26" width="56" height="132" filterUnits="userSpaceOnUse" color-interpolation-filters="sRGB">
<feFlood flood-opacity="0" result="BackgroundImageFix"/>
<feColorMatrix in="SourceAlpha" type="matrix" values="0 0 0 0 0 0 0 0 0 0 0 0 0 0 0 0 0 0 127 0" result="hardAlpha"/>
<feOffset dy="1"/>
<feGaussianBlur stdDeviation="1"/>
<feComposite in2="hardAlpha" operator="out"/>
<feColorMatrix type="matrix" values="0 0 0 0 0 0 0 0 0 0 0 0 0 0 0 0 0 0 0.05 0"/>
<feBlend mode="normal" in2="BackgroundImageFix" result="effect1_dropShadow_321_57548"/>
<feBlend mode="normal" in="SourceGraphic" in2="effect1_dropShadow_321_57548" result="shape"/>
</filter>
<linearGradient id="paint0_linear_321_57548" x1="108.568" y1="55.131" x2="105.075" y2="97.2367" gradientUnits="userSpaceOnUse">
<stop stop-color="#B1BFCD"/>
<stop offset="1" stop-color="#F4F6F8" stop-opacity="0"/>
</linearGradient>
<clipPath id="clip0_321_57548">
<rect x="245" width="70" height="118" rx="4" fill="white"/>
</clipPath>
</defs>
</svg>
