<svg width="316" height="118" viewBox="0 0 316 118" fill="none" xmlns="http://www.w3.org/2000/svg">
<path d="M158.702 0.00418043C174.175 0.188376 188.955 6.44348 199.86 17.4217C210.764 28.4 216.919 43.2226 216.999 58.6959L200.479 58.781C200.422 47.6403 195.99 36.968 188.139 29.0636C180.288 21.1593 169.646 16.6556 158.506 16.523L158.702 0.00418043Z" fill="#ADB5BD"/>
<path d="M216.743 64.5055C215.976 72.6842 213.51 80.6127 209.503 87.7834C205.495 94.9541 200.034 101.209 193.47 106.147L183.538 92.9461C188.265 89.3904 192.196 84.8869 195.082 79.724C197.967 74.5612 199.743 68.8526 200.295 62.964L216.743 64.5055Z" fill="#CED4DA"/>
<path d="M188.337 109.603C181.256 113.848 173.363 116.56 165.168 117.563C156.973 118.566 148.659 117.838 140.763 115.426C132.867 113.014 125.565 108.972 119.33 103.56C113.094 98.1489 108.064 91.4892 104.564 84.0116L119.526 77.0084C122.046 82.3922 125.668 87.1872 130.157 91.0834C134.647 94.9795 139.904 97.89 145.589 99.6267C151.274 101.363 157.261 101.888 163.161 101.165C169.061 100.443 174.745 98.4906 179.843 95.434L188.337 109.603Z" fill="#E9ECEF"/>
<path d="M102.527 79.0936C99.4487 70.595 98.3641 61.5027 99.3571 52.5185C100.35 43.5343 103.394 34.8983 108.254 27.2771C113.114 19.6559 119.66 13.2533 127.387 8.56333C135.114 3.87338 143.816 1.02153 152.82 0.227872L154.27 16.6841C147.787 17.2555 141.522 19.3088 135.959 22.6856C130.395 26.0624 125.682 30.6723 122.183 36.1595C118.684 41.6468 116.492 47.8647 115.777 54.3333C115.062 60.802 115.843 67.3484 118.059 73.4674L102.527 79.0936Z" fill="#E5E7EB"/>
<rect x="60" y="43" width="36" height="19.5" rx="3.5625" fill="#495057"/>
<circle cx="68.3125" cy="52.75" r="2.375" fill="#CED4DA"/>
<path d="M75.8709 49.5682V54.75H75.0865V50.3525H75.0561L73.8164 51.1622V50.4133L75.1093 49.5682H75.8709ZM77.3082 54.75V54.1832L79.0616 52.3666C79.2489 52.1692 79.4032 51.9963 79.5247 51.8479C79.6478 51.6978 79.7397 51.5552 79.8004 51.4203C79.8612 51.2853 79.8915 51.142 79.8915 50.9901C79.8915 50.8181 79.851 50.6697 79.7701 50.5448C79.6891 50.4183 79.5786 50.3213 79.4386 50.2539C79.2986 50.1847 79.1409 50.1501 78.9655 50.1501C78.7799 50.1501 78.618 50.1881 78.4797 50.264C78.3414 50.3399 78.2351 50.447 78.1609 50.5853C78.0867 50.7236 78.0496 50.8856 78.0496 51.0711H77.3031C77.3031 50.7557 77.3757 50.4799 77.5207 50.2437C77.6658 50.0076 77.8649 49.8246 78.1179 49.6947C78.3709 49.5631 78.6585 49.4973 78.9807 49.4973C79.3062 49.4973 79.593 49.5623 79.8409 49.6922C80.0906 49.8204 80.2854 49.9958 80.4254 50.2184C80.5654 50.4394 80.6354 50.6891 80.6354 50.9674C80.6354 51.1597 80.5991 51.3477 80.5266 51.5316C80.4558 51.7155 80.3318 51.9204 80.1547 52.1464C79.9776 52.3708 79.7313 52.6432 79.4159 52.9637L78.3861 54.0415V54.0795H80.7189V54.75H77.3082ZM83.4644 54.8208C83.1017 54.8208 82.7812 54.7584 82.5029 54.6336C82.2262 54.5088 82.0095 54.3367 81.8526 54.1175C81.6958 53.8982 81.6182 53.6485 81.6198 53.3685C81.6182 53.1492 81.6629 52.9477 81.7539 52.7638C81.8467 52.5783 81.9724 52.4239 82.1309 52.3008C82.2895 52.176 82.4666 52.0967 82.6623 52.0629V52.0326C82.4042 51.9702 82.1976 51.8319 82.0424 51.6176C81.8872 51.4034 81.8105 51.1571 81.8121 50.8788C81.8105 50.614 81.8805 50.3778 82.0221 50.1704C82.1655 49.9612 82.362 49.7967 82.6117 49.677C82.8613 49.5572 83.1455 49.4973 83.4644 49.4973C83.7798 49.4973 84.0615 49.5581 84.3094 49.6795C84.5591 49.7993 84.7556 49.9637 84.899 50.1729C85.0423 50.3804 85.1149 50.6157 85.1166 50.8788C85.1149 51.1571 85.0356 51.4034 84.8787 51.6176C84.7219 51.8319 84.5178 51.9702 84.2664 52.0326V52.0629C84.4604 52.0967 84.635 52.176 84.7902 52.3008C84.947 52.4239 85.0719 52.5783 85.1646 52.7638C85.2591 52.9477 85.3072 53.1492 85.3089 53.3685C85.3072 53.6485 85.2279 53.8982 85.071 54.1175C84.9141 54.3367 84.6966 54.5088 84.4182 54.6336C84.1416 54.7584 83.8236 54.8208 83.4644 54.8208ZM83.4644 54.1807C83.6786 54.1807 83.8641 54.1453 84.021 54.0744C84.1779 54.0019 84.2993 53.9015 84.3853 53.7733C84.4714 53.6435 84.5152 53.4917 84.5169 53.3179C84.5152 53.1374 84.468 52.978 84.3752 52.8397C84.2841 52.7014 84.1602 52.5926 84.0033 52.5133C83.8464 52.434 83.6668 52.3944 83.4644 52.3944C83.2602 52.3944 83.0789 52.434 82.9204 52.5133C82.7618 52.5926 82.637 52.7014 82.5459 52.8397C82.4548 52.978 82.4101 53.1374 82.4118 53.3179C82.4101 53.4917 82.4514 53.6435 82.5358 53.7733C82.6218 53.9015 82.7441 54.0019 82.9027 54.0744C83.0612 54.1453 83.2484 54.1807 83.4644 54.1807ZM83.4644 51.7694C83.6364 51.7694 83.7891 51.7349 83.9223 51.6657C84.0556 51.5965 84.1602 51.5004 84.2361 51.3773C84.3137 51.2541 84.3533 51.1099 84.355 50.9446C84.3533 50.7827 84.3145 50.641 84.2386 50.5195C84.1644 50.3981 84.0606 50.3045 83.9274 50.2387C83.7941 50.1712 83.6398 50.1375 83.4644 50.1375C83.2856 50.1375 83.1287 50.1712 82.9937 50.2387C82.8605 50.3045 82.7567 50.3981 82.6825 50.5195C82.6083 50.641 82.572 50.7827 82.5737 50.9446C82.572 51.1099 82.6091 51.2541 82.6851 51.3773C82.761 51.5004 82.8655 51.5965 82.9988 51.6657C83.1337 51.7349 83.2889 51.7694 83.4644 51.7694ZM86.9568 53.4318L86.9518 52.5083H87.0834L88.6318 50.8636H89.5376L87.7716 52.736H87.6526L86.9568 53.4318ZM86.261 54.75V49.5682H87.0176V54.75H86.261ZM88.7153 54.75L87.3237 52.903L87.8449 52.3742L89.6439 54.75H88.7153Z" fill="#F8F9FA"/>
<path d="M102.326 52.0295C102.635 52.2672 102.635 52.7328 102.326 52.9705L95.8778 57.9346C95.4874 58.2351 94.9219 57.9568 94.9219 57.4641L94.9219 47.5359C94.9219 47.0432 95.4874 46.7649 95.8778 47.0654L102.326 52.0295Z" fill="#495057"/>
<rect x="207" y="11" width="30.3704" height="19.1852" rx="3.44444" fill="#495057"/>
<circle cx="215.037" cy="20.5926" r="2.2963" fill="#CED4DA"/>
<path d="M222.32 17.5825V22.5926H221.562V18.3409H221.532L220.334 19.1237V18.3996L221.584 17.5825H222.32ZM223.71 22.5926V22.0446L225.405 20.2881C225.586 20.0973 225.735 19.9302 225.853 19.7866C225.972 19.6415 226.061 19.5037 226.12 19.3732C226.178 19.2427 226.208 19.1041 226.208 18.9573C226.208 18.791 226.168 18.6475 226.09 18.5268C226.012 18.4045 225.905 18.3107 225.77 18.2454C225.634 18.1786 225.482 18.1451 225.312 18.1451C225.133 18.1451 224.976 18.1818 224.843 18.2552C224.709 18.3286 224.606 18.4322 224.534 18.5659C224.463 18.6997 224.427 18.8562 224.427 19.0356H223.705C223.705 18.7306 223.775 18.464 223.915 18.2357C224.056 18.0073 224.248 17.8304 224.493 17.7048C224.737 17.5776 225.015 17.514 225.327 17.514C225.642 17.514 225.919 17.5768 226.159 17.7024C226.4 17.8263 226.588 17.9959 226.724 18.2112C226.859 18.4248 226.927 18.6662 226.927 18.9353C226.927 19.1212 226.892 19.3031 226.822 19.4808C226.753 19.6586 226.633 19.8568 226.462 20.0753C226.291 20.2922 226.053 20.5556 225.748 20.8655L224.752 21.9076V21.9443H227.008V22.5926H223.71ZM228.652 21.318L228.647 20.4251H228.774L230.271 18.835H231.147L229.439 20.6453H229.324L228.652 21.318ZM227.979 22.5926V17.5825H228.71V22.5926H227.979ZM230.352 22.5926L229.006 20.8068L229.51 20.2955L231.25 22.5926H230.352Z" fill="#F8F9FA"/>
<path d="M201.716 20.7635C201.47 20.9908 201.47 21.3796 201.716 21.6069L206.754 26.261C207.122 26.6006 207.718 26.3399 207.718 25.8393L207.718 16.5311C207.718 16.0305 207.122 15.7697 206.754 16.1094L201.716 20.7635Z" fill="#495057"/>
</svg>
