<svg width="318" height="110" viewBox="0 0 318 110" fill="none" xmlns="http://www.w3.org/2000/svg">
<path d="M1 109H1.11579H1.23159H1.34738H1.46317H1.57897H1.69476H1.81055H1.92635H2.04214H2.15793H2.27373H2.38952H2.50531H2.62111H2.7369H2.85269H2.96849H3.08428H3.20007H3.31587H3.43166H3.54745H3.66325H3.77904H3.89483H4.01063H4.12642H4.24221H4.35801H4.4738H4.58959H4.70539H4.82118H4.93697H5.05277H5.16856H5.28435H5.40015H5.51594H5.63173H5.74753H5.86332H5.97911H6.09491H6.2107H6.32649H6.44229H6.55808H6.67387H6.78967H6.90546H7.02125H7.13705H7.25284H7.36863H7.48443H7.60022H7.71601H7.83181H7.9476H8.06339H8.17919H8.29498H8.41077H8.52657H8.64236H8.75815H8.87395H8.98974H9.10553H9.22133H9.33712H9.45291H9.56871H9.6845H9.80029H9.91609H10.0319H10.1477H10.2635H10.3793H10.4951H10.6108H10.7266H10.8424H10.9582H11.074H11.1898H11.3056H11.4214H11.5372L11.653 109L11.7688 109H11.8846L12.0004 109L12.1162 108.998L12.232 108.999L12.3477 108.999L12.4635 109H12.5793L12.6951 108.999L12.8109 108.997H12.9267L13.0425 108.998L13.1583 109L13.2741 109L13.3899 109L13.5057 109L13.6215 109L13.7373 109L13.8531 109L13.9689 109L14.0846 109L14.2004 109H14.3162H14.432H14.5478H14.6636L14.7794 109L14.8952 109L15.011 109L15.1268 109L15.2426 109H15.3584L15.4742 109H15.59L15.7058 108.999L15.8215 108.999L15.9373 109L16.0531 109L16.1689 109L16.2847 109L16.4005 108.999L16.5163 109L16.6321 109L16.7479 109L16.8637 109H16.9795L17.0953 109H17.2111H17.3269H17.4427H17.5584L17.6742 109L17.79 109L17.9058 109L18.0216 109H18.1374L18.2532 109L18.369 109L18.4848 109L18.6006 109H18.7164L18.8322 109H18.948H19.0638H19.1796H19.2953H19.4111L19.5269 109L19.6427 109L19.7585 109L19.8743 108.999L19.9901 109H20.1059L20.2217 109H20.3375L20.4533 109L20.5691 108.999L20.6849 109L20.8007 109L20.9165 109L21.0322 109L21.148 109L21.2638 109L21.3796 109H21.4954L21.6112 109L21.727 109L21.8428 109L21.9586 109L22.0744 108.923L22.1902 108.983L22.306 108.999L22.4218 109L22.5376 108.999L22.6534 108.988L22.7691 108.998L22.8849 108.999L23.0007 108.999L23.1165 108.999L23.2323 108.998L23.3481 108.998L23.4639 109L23.5797 108.999L23.6955 108.996L23.8113 108.999L23.9271 109L24.0429 109L24.1587 108.998L24.2745 108.999L24.3903 108.998L24.506 108.999L24.6218 109L24.7376 109L24.8534 109L24.9692 108.998L25.085 108.997L25.2008 108.998L25.3166 108.998L25.4324 108.997L25.5482 108.999L25.664 108.999L25.7798 108.997L25.8956 108.997L26.0114 108.997L26.1272 108.998L26.2429 108.99L26.3587 108.999L26.4745 108.998L26.5903 108.998L26.7061 108.995L26.8219 108.997L26.9377 108.997L27.0535 108.995L27.1693 108.996L27.2851 108.998L27.4009 108.997L27.5167 108.998L27.6325 108.998L27.7483 108.998L27.8641 108.998L27.9798 108.998L28.0956 108.995L28.2114 108.976L28.3272 108.775L28.443 108.934L28.5588 108.641L28.6746 108.842L28.7904 108.597L28.9062 108.963L29.022 108.691L29.1378 108.95L29.2536 108.799L29.3694 108.958L29.4852 108.762L29.601 108.966L29.7167 108.962L29.8325 108.75L29.9483 108.548L30.0641 108.916L30.1799 108.842L30.2957 108.7L30.4115 108.912L30.5273 108.962L30.6431 108.966L30.7589 108.834L30.8747 108.885L30.9905 108.909L31.1063 108.654L31.2221 108.982L31.3379 108.984L31.4536 108.901L31.5694 108.92L31.6852 108.92L31.801 108.936L31.9168 108.983L32.0326 108.988L32.1484 108.845L32.2642 108.783L32.38 108.943L32.4958 108.978L32.6116 108.896L32.7274 108.906L32.8432 108.972L32.959 108.899L33.0748 108.982L33.1905 108.977L33.3063 108.909L33.4221 108.97L33.5379 108.704L33.6537 108.976L33.7695 108.898L33.8853 108.975L34.0011 108.969L34.1169 108.975L34.2327 108.881L34.3485 108.98L34.4643 108.891L34.5801 108.983L34.6959 108.912L34.8117 108.978L34.9274 108.924L35.0432 108.956L35.159 108.984L35.2748 108.922L35.3906 108.989L35.5064 108.988L35.6222 108.981L35.738 108.982L35.8538 108.98L35.9696 108.975L36.0854 108.187L36.2012 108.714L36.317 108.829L36.4328 108.873L36.5486 108.896L36.6643 108.925L36.7801 108.928L36.8959 108.939L37.0117 108.931L37.1275 108.929L37.2433 108.917L37.3591 108.879L37.4749 108.911L37.5907 108.917L37.7065 108.917L37.8223 108.924L37.9381 108.875L38.0539 108.836L38.1697 108.881L38.2855 108.902L38.4012 107.607L38.517 108.701L38.6328 108.852L38.7486 108.878L38.8644 108.648L38.9802 108.763L39.096 108.941L39.2118 108.934L39.3276 108.952L39.4434 108.925L39.5592 108.941L39.675 108.928L39.7908 108.933L39.9066 108.948L40.0224 108.96L40.1381 108.955L40.2539 108.958L40.3697 108.954L40.4855 108.939L40.6013 108.96L40.7171 108.963L40.8329 108.961L40.9487 108.938L41.0645 108.971L41.1803 108.935L41.2961 108.961L41.4119 108.96L41.5277 108.806L41.6435 108.933L41.7593 108.935L41.875 108.962L41.9908 108.878L42.1066 108.943L42.2224 108.798L42.3382 108.842L42.454 108.889L42.5698 108.902L42.6856 108.86L42.8014 108.895L42.9172 108.91L43.033 108.923L43.1488 108.578L43.2646 108.806L43.3804 108.854L43.4962 108.959L43.6119 108.94L43.7277 108.938L43.8435 108.963L43.9593 108.962L44.0751 108.969L44.1909 108.977L44.3067 108.928L44.4225 108.019L44.5383 108.877L44.6541 108.959L44.7699 108.97L44.8857 108.956L45.0015 108.977L45.1173 108.98L45.2331 108.962L45.3488 108.907L45.4646 108.976L45.5804 108.983L45.6962 108.976L45.812 108.98L45.9278 108.964L46.0436 108.951L46.1594 108.947L46.2752 108.958L46.391 108.964L46.5068 108.962L46.6226 108.971L46.7384 108.961L46.8542 108.972L46.97 108.975L47.0857 108.972L47.2015 108.974L47.3173 108.955L47.4331 108.98L47.5489 108.976L47.6647 108.974L47.7805 108.948L47.8963 108.971L48.0121 108.968L48.1279 108.98L48.2437 108.98L48.3595 108.979L48.4753 108.963L48.5911 108.969L48.7069 108.963L48.8226 108.965L48.9384 108.955L49.0542 108.928L49.17 108.978L49.2858 108.979L49.4016 108.924L49.5174 108.903L49.6332 108.977L49.749 108.985L49.8648 108.982L49.9806 108.971L50.0964 108.986L50.2122 108.979L50.328 108.977L50.4438 108.973L50.5595 108.979L50.6753 108.984L50.7911 108.968L50.9069 108.947L51.0227 108.57L51.1385 108.839L51.2543 108.894L51.3701 108.923L51.4859 108.94L51.6017 108.947L51.7175 108.934L51.8333 108.932L51.9491 108.954L52.0649 108.985L52.1807 108.981L52.2964 108.992L52.4122 108.99L52.528 108.967L52.6438 108.962L52.7596 108.868L52.8754 108.964L52.9912 108.779L53.107 108.947L53.2228 108.957L53.3386 108.836L53.4544 108.817L53.5702 108.873L53.686 108.851L53.8018 108.778L53.9176 108.732L54.0333 108.789L54.1491 108.926L54.2649 108.597L54.3807 108.943L54.4965 108.953L54.6123 108.969L54.7281 108.966L54.8439 108.971L54.9597 108.966L55.0755 108.961L55.1913 108.959L55.3071 108.965L55.4229 108.901L55.5387 108.928L55.6545 108.891L55.7702 108.873L55.886 108.899L56.0018 108.923L56.1176 108.944L56.2334 108.947L56.3492 108.955L56.465 108.949L56.5808 108.946L56.6966 108.803L56.8124 108.968L56.9282 108.977L57.044 108.975L57.1598 108.925L57.2756 108.977L57.3914 108.954L57.5071 108.885L57.6229 108.958L57.7387 108.957L57.8545 108.876L57.9703 108.97L58.0861 108.966L58.2019 108.941L58.3177 108.923L58.4335 108.667L58.5493 108.945L58.6651 108.95L58.7809 108.859L58.8967 108.941L59.0125 108.948L59.1283 108.915L59.244 108.824L59.3598 108.88L59.4756 108.955L59.5914 108.965L59.7072 108.959L59.823 108.837L59.9388 108.927L60.0546 108.606L60.1704 108.726L60.2862 108.859L60.402 108.96L60.5178 108.959L60.6336 108.953L60.7494 108.79L60.8652 108.893L60.981 108.86L61.0967 108.851L61.2125 108.958L61.3283 108.964L61.4441 108.95L61.5599 108.774L61.6757 108.871L61.7915 108.81L61.9073 108.852L62.0231 108.864L62.1389 108.873L62.2547 108.897L62.3705 108.792L62.4863 108.914L62.6021 108.836L62.7178 108.811L62.8336 108.906L62.9494 108.893L63.0652 108.934L63.181 108.788L63.2968 108.914L63.4126 108.831L63.5284 108.814L63.6442 108.897L63.76 108.871L63.8758 108.899L63.9916 108.725L64.1074 108.81L64.2232 108.788L64.339 108.789L64.4547 108.883L64.5705 108.891L64.6863 108.931L64.8021 108.771L64.9179 108.751L65.0337 108.821L65.1495 108.79L65.2653 108.885L65.3811 108.864L65.4969 108.921L65.6127 108.767L65.7285 108.823L65.8443 108.81L65.9601 108.819L66.0759 108.879L66.1916 108.864L66.3074 108.905L66.4232 108.765L66.539 108.834L66.6548 108.914L66.7706 108.932L66.8864 108.772L67.0022 108.919L67.118 108.904L67.2338 108.067L67.3496 108.669L67.4654 108.801L67.5812 108.778L67.697 108.723L67.8128 108.849L67.9285 108.854L68.0443 108.712L68.1601 108.828L68.2759 108.738L68.3917 108.743L68.5075 108.865L68.6233 108.868L68.7391 108.909L68.8549 108.78L68.9707 108.844L69.0865 108.73L69.2023 108.767L69.3181 108.816L69.4339 108.828L69.5497 108.825L69.6654 108.727L69.7812 108.73L69.897 108.64L70.0128 108.678L70.1286 108.68L70.2444 108.799L70.3602 108.821L70.476 108.638L70.5918 108.764L70.7076 108.68L70.8234 108.682L70.9392 108.736L71.055 108.768L71.1708 108.702L71.2866 108.639L71.4023 108.095L71.5181 108.31L71.6339 108.549L71.7497 108.717L71.8655 108.749L71.9813 108.781L72.0971 108.656L72.2129 108.717L72.3287 108.614L72.4445 108.654L72.5603 108.702L72.6761 108.75L72.7919 108.798L72.9077 108.643L73.0235 108.756L73.1393 108.381L73.255 108.658L73.3708 108.713L73.4866 108.744L73.6024 108.774L73.7182 108.411L73.834 108.2L73.9498 108.547L74.0656 108.505L74.1814 108.641L74.2972 108.674L74.413 108.643L74.5288 108.414L74.6446 108.496L74.7604 107.918L74.8761 107.667L74.9919 108.361L75.1077 108.19L75.2235 107.541L75.3393 107.763L75.4551 107.976L75.5709 107.988L75.6867 108.307L75.8025 108.205L75.9183 108.377L76.0341 108.227L76.1499 108.239L76.2657 108.275L76.3815 108.233L76.4973 108.351L76.613 108.125L76.7288 108.49L76.8446 108.16L76.9604 108.415L77.0762 107.849L77.192 108.065L77.3078 108.137L77.4236 108.15L77.5394 108.096L77.6552 108.262L77.771 107.935L77.8868 107.808L78.0026 108.034L78.1184 108.238L78.2342 108.343L78.3499 108.154L78.4657 108.239L78.5815 108.051L78.6973 108.134L78.8131 108.027L78.9289 107.25L79.0447 107.949L79.1605 107.831L79.2763 107.788L79.3921 107.79L79.5079 107.305L79.6237 107.683L79.7395 106.896L79.8553 107.717L79.9711 107.84L80.0868 105.616L80.2026 107.389L80.3184 107.522L80.4342 107.247L80.55 107.187L80.6658 107.191L80.7816 107.71L80.8974 106.39L81.0132 106.383L81.129 106.947L81.2448 107.185L81.3606 106.815L81.4764 107.467L81.5922 107.282L81.708 107.363L81.8237 107.078L81.9395 106.275L82.0553 105.881L82.1711 107.03L82.2869 106.839L82.4027 106.079L82.5185 105.24L82.6343 106.061L82.7501 105.475L82.8659 105.234L82.9817 104.461L83.0975 105.615L83.2133 105.858L83.3291 105.109L83.4449 105.363L83.5606 105.153L83.6764 106.04L83.7922 106.333L83.908 106.179L84.0238 105.888L84.1396 106.029L84.2554 106.414L84.3712 105.651L84.487 106.243L84.6028 106.405L84.7186 106.193L84.8344 105.696L84.9502 105.37L85.066 105.751L85.1818 106.328L85.2975 106.349L85.4133 105.678L85.5291 107.076L85.6449 106.809L85.7607 105.784L85.8765 106.786L85.9923 106.205L86.1081 106.11L86.2239 106.049L86.3397 105.202L86.4555 104.46L86.5713 105.302L86.6871 105.006L86.8029 105.879L86.9187 104.053L87.0344 103.203L87.1502 103.22L87.266 104.193L87.3818 103.01L87.4976 101.755L87.6134 102.364L87.7292 102.959L87.845 103.532L87.9608 103.665L88.0766 104.68L88.1924 103.17L88.3082 102.721L88.424 104.242L88.5398 103.25L88.6556 103.368L88.7713 103.888L88.8871 103.567L89.0029 103.354L89.1187 102.193L89.2345 101.993L89.3503 103.661L89.4661 102.891L89.5819 103.485L89.6977 103.83L89.8135 101.585L89.9293 100.582L90.0451 98.6753L90.1609 99.6137L90.2767 98.5925L90.3925 100.8L90.5082 102.806L90.624 102.503L90.7398 101.226L90.8556 101.09L90.9714 100.466L91.0872 99.5826L91.203 100.883L91.3188 98.5869L91.4346 98.5012L91.5504 99.1092L91.6662 101.827L91.782 99.5244L91.8978 100.752L92.0136 102.13L92.1294 104.157L92.2451 102.529L92.3609 101.626L92.4767 101.759L92.5925 101.782L92.7083 103.442L92.8241 103.927L92.9399 103.851L93.0557 103.636L93.1715 103.394L93.2873 104.433L93.4031 104.355L93.5189 104.107L93.6347 103.656L93.7505 103.275L93.8663 103.221L93.982 102.038L94.0978 103.299L94.2136 102.145L94.3294 101.983L94.4452 102.426L94.561 103.095L94.6768 98.3415L94.7926 97.1652L94.9084 99.9295L95.0242 99.565L95.14 98.9842L95.2558 102.327L95.3716 104.115L95.4874 97.6676L95.6032 98.4456L95.719 97.5343L95.8347 95.2899L95.9505 93.3094L96.0663 91.1525L96.1821 90.4298L96.2979 90.2257L96.4137 91.4002L96.5295 92.6227L96.6453 90.4683L96.7611 87.4234L96.8769 91.7994L96.9927 97.7358L97.1085 98.127L97.2243 97.6512L97.3401 98.7878L97.4559 100.811L97.5716 99.5626L97.6874 93.0095L97.8032 93.9082L97.919 93.9392L98.0348 95.175L98.1506 98.5671L98.2664 98.1532L98.3822 98.4783L98.498 92.0692L98.6138 93.8603L98.7296 94.8362L98.8454 95.6249L98.9612 97.4464L99.077 98.0318L99.1928 96.8845L99.3085 93.5254L99.4243 97.9247L99.5401 30.4111L99.6559 91.5971L99.7717 95.7303L99.8875 98.5104L100.003 97.9221L100.119 96.5579L100.235 98.6579L100.351 101.68L100.466 102.551L100.582 103.709L100.698 104.014L100.814 100.92L100.93 100.194L101.045 101.086L101.161 100.571L101.277 98.169L101.393 97.455L101.509 97.9962L101.624 99.0657L101.74 96.3219L101.856 96.3788L101.972 94.9696L102.088 93.8378L102.203 96.9583L102.319 91.9609L102.435 93.3232L102.551 91.4969L102.667 97.9366L102.782 96.3083L102.898 92.4742L103.014 88.9263L103.13 90.4324L103.246 93.6366L103.361 97.4833L103.477 96.218L103.593 96.1711L103.709 94.0956L103.824 95.088L103.94 97.6518L104.056 96.2803L104.172 95.5662L104.288 94.2682L104.403 94.3304L104.519 95.1431L104.635 95.5987L104.751 95.0486L104.867 93.6681L104.982 94.8304L105.098 93.8639L105.214 94.1055L105.33 93.8087L105.446 94.2531L105.561 93.1571L105.677 93.6881L105.793 90.9961L105.909 93.4225L106.025 93.1192L106.14 91.8845L106.256 90.5007L106.372 88.6893L106.488 88.2858L106.604 93.5758L106.719 93.3663L106.835 95.0928L106.951 93.4208L107.067 91.1705L107.182 92.5621L107.298 92.4975L107.414 94.7565L107.53 91.2307L107.646 93.148L107.761 91.6519L107.877 93.5017L107.993 94.9875L108.109 92.904L108.225 90.5245L108.34 89.0153L108.456 89.7361L108.572 91.3687L108.688 92.8933L108.804 90.7911L108.919 90.8299L109.035 89.4495L109.151 88.3825L109.267 87.8382L109.383 83.3748L109.498 85.3061L109.614 83.3681L109.73 82.6401L109.846 81.5224L109.962 85.6174L110.077 89.0421L110.193 89.4796L110.309 84.2081L110.425 87.2939L110.54 83.0945L110.656 86.0294L110.772 87.2202L110.888 85.2752L111.004 88.6066L111.119 87.9862L111.235 85.1935L111.351 83.3843L111.467 90.2769L111.583 87.3313L111.698 80.3846L111.814 83.1019L111.93 85.8681L112.046 80.0513L112.162 83.9581L112.277 85.1538L112.393 83.7998L112.509 84.2994L112.625 86.1998L112.741 88.3907L112.856 92.185L112.972 89.6307L113.088 90.3412L113.204 91.4594L113.32 89.8486L113.435 89.1813L113.551 88.1566L113.667 88.7958L113.783 87.6551L113.898 89.5996L114.014 87.4107L114.13 87.4697L114.246 87.2985L114.362 91.7958L114.477 87.8783L114.593 90.312L114.709 85.6342L114.825 87.1085L114.941 85.9059L115.056 82.757L115.172 79.4654L115.288 82.7923L115.404 84.0354L115.52 89.5335L115.635 88.3957L115.751 85.6418L115.867 84.0924L115.983 80.8924L116.099 74.9632L116.214 73.6963L116.33 86.4772L116.446 81.5473L116.562 86.5462L116.678 83.3421L116.793 82.0188L116.909 77.1384L117.025 80.7316L117.141 82.5782L117.257 86.0498L117.372 83.3163L117.488 79.4144L117.604 73.7196L117.72 74.4986L117.835 84.9394L117.951 70.0647L118.067 69.6824L118.183 81.5193L118.299 83.1551L118.414 79.1938L118.53 80.9717L118.646 78.8426L118.762 76.397L118.878 76.5652L118.993 83.8078L119.109 78.6947L119.225 78.6053L119.341 80.8119L119.457 80.5898L119.572 80.6769L119.688 77.6493L119.804 78.3632L119.92 81.5925L120.036 79.0625L120.151 79.7264L120.267 78.8884L120.383 77.5459L120.499 79.3988L120.615 81.9236L120.73 79.3787L120.846 82.3702L120.962 83.0204L121.078 76.3531L121.193 74.9552L121.309 76.0615L121.425 77.475L121.541 78.2301L121.657 80.7001L121.772 81.5415L121.888 72.264L122.004 75.2289L122.12 75.8445L122.236 81.8314L122.351 80.6773L122.467 69.1552L122.583 76.5246L122.699 83.1593L122.815 1L122.93 82.293L123.046 79.944L123.162 76.5326L123.278 76.1883L123.394 79.6343L123.509 76.7322L123.625 80.164L123.741 80.4007L123.857 76.8482L123.973 73.2694L124.088 70.4666L124.204 71.8944L124.32 77.5464L124.436 55.3222L124.551 47.4987L124.667 43.7706L124.783 48.1948L124.899 45.1386L125.015 47.9593L125.13 38.9338L125.246 40.1269L125.362 60.6095L125.478 60.465L125.594 63.0766L125.709 54.1419L125.825 48.1074L125.941 44.12L126.057 34.369L126.173 37.9447L126.288 71.0813L126.404 71.0317L126.52 75.4797L126.636 76.2215L126.752 84.5744L126.867 86.1705L126.983 75.9859L127.099 78.7858L127.215 77.9795L127.331 77.6093L127.446 76.427L127.562 78.7587L127.678 84.8128L127.794 78.1246L127.909 74.7157L128.025 76.8882L128.141 76.3406L128.257 76.5272L128.373 75.6428L128.488 73.7273L128.604 73.9418L128.72 75.2358L128.836 89.6094L128.952 99.7163L129.067 99.9377L129.183 93.9774L129.299 81.0037L129.415 79.9548L129.531 80.1876L129.646 81.1287L129.762 81.1304L129.878 80.4988L129.994 89.4646L130.11 76.6006L130.225 81.2736L130.341 79.4293L130.457 75.1861L130.573 81.4931L130.689 79.3334L130.804 79.6761L130.92 76.8117L131.036 81.6893L131.152 66.5275L131.268 70.6787L131.383 76.7611L131.499 78.1211L131.615 81.468L131.731 81.8049L131.846 80.8052L131.962 81.786L132.078 84.5354L132.194 84.3506L132.31 77.914L132.425 65.0553L132.541 82.8054L132.657 85.2743L132.773 84.7069L132.889 83.9166L133.004 83.9003L133.12 82.597L133.236 77.9178L133.352 78.3931L133.468 77.9445L133.583 78.1601L133.699 79.5171L133.815 92.5668L133.931 80.0561L134.047 82.7942L134.162 81.5769L134.278 80.8355L134.394 79.6721L134.51 77.5132L134.626 76.5445L134.741 78.0921L134.857 81.7546L134.973 90.3606L135.089 81.9212L135.204 80.7898L135.32 83.7467L135.436 82.1057L135.552 79.8738L135.668 80.3188L135.783 83.4729L135.899 88.1406L136.015 87.153L136.131 82.9372L136.247 90.9242L136.362 88.4322L136.478 62.7626L136.594 85.6426L136.71 85.8396L136.826 87.6056L136.941 86.8389L137.057 87.6805L137.173 80.8367L137.289 84.6663L137.405 80.9463L137.52 84.9197L137.636 81.8608L137.752 84.7823L137.868 88.7395L137.984 86.4706L138.099 86.8194L138.215 84.6894L138.331 82.361L138.447 83.7258L138.562 82.841L138.678 82.6695L138.794 83.2544L138.91 85.3848L139.026 85.1408L139.141 89.1526L139.257 90.3504L139.373 84.1773L139.489 86.7099L139.605 85.926L139.72 86.9232L139.836 85.0649L139.952 79.7739L140.068 85.8199L140.184 88.408L140.299 87.5951L140.415 91.9302L140.531 89.6779L140.647 89.7815L140.763 91.1613L140.878 90.0752L140.994 88.7491L141.11 85.7772L141.226 86.3011L141.342 88.5612L141.457 89.5985L141.573 88.5712L141.689 87.087L141.805 84.6053L141.92 86.3848L142.036 88.5054L142.152 82.4246L142.268 91.0492L142.384 90.4614L142.499 88.2883L142.615 88.7474L142.731 86.4537L142.847 85.3953L142.963 88.4196L143.078 87.0793L143.194 86.6384L143.31 80.8275L143.426 82.5605L143.542 81.9452L143.657 84.904L143.773 86.0436L143.889 85.5158L144.005 82.1505L144.121 84.5632L144.236 85.1293L144.352 85.7774L144.468 84.3702L144.584 85.7L144.7 85.6524L144.815 88.6967L144.931 84.6122L145.047 88.1371L145.163 83.4944L145.279 80.6134L145.394 79.5151L145.51 83.716L145.626 87.0384L145.742 80.631L145.857 88.3247L145.973 83.3114L146.089 84.1568L146.205 86.2843L146.321 86.6761L146.436 87.9531L146.552 85.5442L146.668 86.7658L146.784 86.9486L146.9 85.397L147.015 86.3608L147.131 90.6282L147.247 89.4056L147.363 90.4459L147.479 90.6676L147.594 90.0889L147.71 87.5999L147.826 85.9994L147.942 85.1784L148.058 83.1846L148.173 82.4926L148.289 79.0031L148.405 88.6906L148.521 86.6716L148.637 86.657L148.752 85.6113L148.868 88.1018L148.984 87.6195L149.1 84.0234L149.215 85.7952L149.331 86.3831L149.447 87.7909L149.563 88.7573L149.679 91.3005L149.794 89.7686L149.91 93.1547L150.026 92.3398L150.142 92.1074L150.258 90.4809L150.373 90.4884L150.489 94.0129L150.605 92.5874L150.721 90.3074L150.837 88.0628L150.952 87.4099L151.068 86.2356L151.184 89.887L151.3 89.628L151.416 87.8355L151.531 85.4062L151.647 83.7774L151.763 84.796L151.879 82.6881L151.995 83.6601L152.11 84.7361L152.226 85.457L152.342 87.7773L152.458 87.0769L152.573 82.2681L152.689 78.5835L152.805 83.7536L152.921 85.112L153.037 76.3879L153.152 79.3798L153.268 81.5163L153.384 83.5091L153.5 82.0286L153.616 85.6179L153.731 88.8176L153.847 84.4541L153.963 86.9594L154.079 80.6617L154.195 82.7516L154.31 83.3106L154.426 87.9542L154.542 90.7485L154.658 81.4114L154.774 75.377L154.889 81.3815L155.005 77.1313L155.121 79.2561L155.237 82.852L155.353 86.211L155.468 85.1705L155.584 83.8924L155.7 76.9598L155.816 83.4996L155.931 84.8114L156.047 78.0135L156.163 78.0341L156.279 79.0113L156.395 80.2866L156.51 81.5L156.626 80.3641L156.742 85.2961L156.858 89.1755L156.974 88.9594L157.089 84.1702L157.205 83.8323L157.321 84.1593L157.437 82.9251L157.553 82.5493L157.668 85.7052L157.784 85.6768L157.9 87.3705L158.016 83.6037L158.132 82.5564L158.247 78.121L158.363 81.3609L158.479 83.0996L158.595 80.0988L158.711 75.2111L158.826 76.9737L158.942 76.8641L159.058 84.2054L159.174 82.2129L159.289 88.3102L159.405 82.726L159.521 82.2684L159.637 78.028L159.753 80.6393L159.868 86.2864L159.984 81.545L160.1 84.3556L160.216 84.6575L160.332 82.3167L160.447 83.6854L160.563 84.0683L160.679 79.1731L160.795 72.4344L160.911 79.054L161.026 81.1896L161.142 76.8376L161.258 76.3739L161.374 75.3241L161.49 76.9527L161.605 78.9558L161.721 78.3504L161.837 75.8563L161.953 74.7374L162.069 78.0406L162.184 71.2284L162.3 74.86L162.416 72.2685L162.532 74.1736L162.647 79.5682L162.763 69.4465L162.879 73.3724L162.995 69.1843L163.111 73.2051L163.226 70.4057L163.342 67.9659L163.458 73.8119L163.574 73.5432L163.69 72.7203L163.805 73.8304L163.921 70.98L164.037 79.5162L164.153 67.1433L164.269 82.0508L164.384 64.3871L164.5 71.4121L164.616 81.9621L164.732 82.5209L164.848 75.7246L164.963 66.7897L165.079 77.1212L165.195 65.374L165.311 72.3129L165.427 71.9898L165.542 61.6112L165.658 78.6812L165.774 81.5005L165.89 78.5747L166.006 76.5283L166.121 66.982L166.237 79.4712L166.353 80.4179L166.469 61.8514L166.584 80.3903L166.7 76.8923L166.816 62.9903L166.932 64.3191L167.048 71.8909L167.163 74.9432L167.279 67.2441L167.395 70.5939L167.511 79.5979L167.627 72.3717L167.742 78.1175L167.858 80.3279L167.974 62.5408L168.09 78.6432L168.206 85.1528L168.321 81.5605L168.437 76.8596L168.553 57.0173L168.669 70.3918L168.785 80.1445L168.9 65.9602L169.016 74.1287L169.132 81.0229L169.248 76.8026L169.364 79.6437L169.479 61.493L169.595 54.9171L169.711 75.8954L169.827 81.9059L169.942 78.1967L170.058 80.5967L170.174 79.9637L170.29 74.6061L170.406 62.9616L170.521 70.5105L170.637 69.3255L170.753 79.2349L170.869 77.1351L170.985 78.3189L171.1 74.4632L171.216 70.0607L171.332 75.7768L171.448 82.3521L171.564 85.1417L171.679 78.3092L171.795 78.3226L171.911 78.5901L172.027 79.9561L172.143 77.4304L172.258 80.5622L172.374 81.4387L172.49 77.3644L172.606 76.9986L172.722 75.2585L172.837 76.2244L172.953 76.1841L173.069 78.923L173.185 77.5326L173.3 76.3468L173.416 74.5375L173.532 77.4397L173.648 77.1318L173.764 76.0272L173.879 78.0876L173.995 77.152L174.111 75.3946L174.227 75.586L174.343 75.3817L174.458 74.3935L174.574 75.0374L174.69 78.5547L174.806 78.0405L174.922 74.3504L175.037 78.5447L175.153 78.5536L175.269 76.513L175.385 81.2273L175.501 80.8478L175.616 82.065L175.732 77.4195L175.848 79.139L175.964 79.1453L176.08 78.9022L176.195 77.8983L176.311 84.4386L176.427 84.7214L176.543 80.6259L176.658 78.6072L176.774 80.6255L176.89 81.5385L177.006 80.978L177.122 82.7303L177.237 84.3142L177.353 80.0742L177.469 76.0123L177.585 70.8635L177.701 70.3655L177.816 69.3078L177.932 82.4668L178.048 68.3924L178.164 77.0155L178.28 74.9908L178.395 72.2421L178.511 76.0865L178.627 75.3194L178.743 77.5024L178.859 82.692L178.974 75.7961L179.09 76.4971L179.206 74.5372L179.322 74.7782L179.438 73.9477L179.553 78.5747L179.669 79.3415L179.785 75.2952L179.901 72.8486L180.016 72.3803L180.132 73.4406L180.248 75.0569L180.364 76.0607L180.48 78.1621L180.595 75.0218L180.711 76.5485L180.827 74.5108L180.943 71.3976L181.059 74.5307L181.174 82.6126L181.29 82.8971L181.406 77.8726L181.522 76.0443L181.638 76.4187L181.753 71.8999L181.869 77.3993L181.985 82.7338L182.101 81.5249L182.217 75.0474L182.332 76.8318L182.448 75.2487L182.564 76.1071L182.68 75.6448L182.796 81.2574L182.911 81.173L183.027 74.0363L183.143 72.6703L183.259 76.5958L183.374 72.2581L183.49 73.4411L183.606 79.874L183.722 80.2239L183.838 73.6937L183.953 76.5128L184.069 65.9879L184.185 55.4682L184.301 73.1423L184.417 72.3213L184.532 71.9851L184.648 70.6063L184.764 72.2495L184.88 69.5022L184.996 75.0037L185.111 80.9518L185.227 82.9018L185.343 72.4151L185.459 70.8905L185.575 71.0528L185.69 78.4204L185.806 76.9768L185.922 78.9536L186.038 82.162L186.154 83.2271L186.269 78.2999L186.385 78.5535L186.501 77.2675L186.617 79.26L186.733 79.9659L186.848 84.0801L186.964 83.8276L187.08 79.1234L187.196 80.0797L187.311 82.0629L187.427 81.802L187.543 80.6523L187.659 85.8086L187.775 87.649L187.89 81.7392L188.006 83.0797L188.122 86.0192L188.238 85.3137L188.354 80.5183L188.469 80.8024L188.585 82.3885L188.701 80.0477L188.817 78.4956L188.933 72.8711L189.048 81.1871L189.164 79.5722L189.28 84.5266L189.396 87.077L189.512 69.2789L189.627 76.9351L189.743 77.6556L189.859 76.7936L189.975 78.1316L190.091 75.0686L190.206 80.1359L190.322 81.6311L190.438 83.3699L190.554 84.3421L190.669 83.395L190.785 82.1089L190.901 87.2191L191.017 88.6215L191.133 85.0208L191.248 83.1037L191.364 83.5219L191.48 80.2413L191.596 76.4607L191.712 82.3396L191.827 84.0146L191.943 81.1925L192.059 85.9899L192.175 83.5018L192.291 83.3505L192.406 81.7079L192.522 77.87L192.638 79.2125L192.754 74.3251L192.87 78.049L192.985 71.0589L193.101 68.2939L193.217 65.0777L193.333 77.1481L193.449 80.1227L193.564 76.0603L193.68 76.5446L193.796 77.9574L193.912 77.7648L194.027 77.5003L194.143 81.9331L194.259 85.8436L194.375 80.1235L194.491 80.8968L194.606 77.5062L194.722 78.8207L194.838 79.1518L194.954 81.3646L195.07 81.8634L195.185 79.4338L195.301 81.0054L195.417 80.0919L195.533 75.083L195.649 79.6732L195.764 81.4507L195.88 80.1736L195.996 75.0393L196.112 73.2325L196.228 75.4855L196.343 76.0357L196.459 73.2669L196.575 75.908L196.691 79.2055L196.807 74.6499L196.922 73.91L197.038 72.3138L197.154 65.4067L197.27 69.4912L197.386 66.5244L197.501 71.2665L197.617 70.2956L197.733 68.3845L197.849 72.3858L197.964 73.3684L198.08 75.3412L198.196 79.1821L198.312 81.8031L198.428 76.6956L198.543 75.1109L198.659 73.6863L198.775 75.8152L198.891 77.2374L199.007 81.5184L199.122 81.5437L199.238 76.1767L199.354 75.6813L199.47 75.4969L199.586 75.6636L199.701 71.2231L199.817 51.7486L199.933 55.5913L200.049 67.2137L200.165 66.7054L200.28 63.17L200.396 64.6867L200.512 64.3082L200.628 77.7162L200.744 75.9001L200.859 69.9686L200.975 72.9935L201.091 72.3228L201.207 74.8623L201.322 72.9889L201.438 75.8739L201.554 77.0963L201.67 74.2496L201.786 72.4978L201.901 73.3203L202.017 75.5933L202.133 77.5665L202.249 77.059L202.365 79.2347L202.48 60.3033L202.596 74.101L202.712 46.5399L202.828 8.71211L202.944 73.1794L203.059 73.6606L203.175 76.4892L203.291 74.4544L203.407 74.7433L203.523 76.005L203.638 74.2342L203.754 71.0123L203.87 72.8996L203.986 75.6702L204.102 72.1359L204.217 73.6418L204.333 72.8196L204.449 75.3376L204.565 72.0588L204.68 74.2391L204.796 76.9106L204.912 72.9148L205.028 73.3906L205.144 73.7038L205.259 72.9868L205.375 72.4416L205.491 75.2649L205.607 75.0938L205.723 72.4203L205.838 70.2141L205.954 73.5233L206.07 71.8091L206.186 73.4149L206.302 68.1993L206.417 67.0467L206.533 69.8193L206.649 71.1583L206.765 71.3515L206.881 73.0441L206.996 71.2599L207.112 74.4811L207.228 75.1091L207.344 71.3332L207.46 71.3398L207.575 70.2203L207.691 70.2213L207.807 67.0705L207.923 68.91L208.038 68.0562L208.154 62.5372L208.27 60.7434L208.386 66.2179L208.502 69.173L208.617 67.2241L208.733 68.9653L208.849 69.7752L208.965 68.0207L209.081 67.2127L209.196 67.3991L209.312 65.3658L209.428 65.7569L209.544 69.1546L209.66 72.9424L209.775 66.1079L209.891 65.4724L210.007 62.8934L210.123 64.1067L210.239 67.0105L210.354 70.3058L210.47 68.0807L210.586 60.7015L210.702 63.1103L210.818 67.19L210.933 69.2447L211.049 66.3904L211.165 64.8727L211.281 62.6395L211.396 59.7189L211.512 60.6717L211.628 61.252L211.744 61.6687L211.86 59.9143L211.975 59.411L212.091 61.4147L212.207 57.1246L212.323 59.4029L212.439 60.072L212.554 58.2535L212.67 55.8014L212.786 57.4268L212.902 61.0997L213.018 57.6627L213.133 59.5123L213.249 59.0027L213.365 58.6559L213.481 54.9347L213.597 56.4744L213.712 52.4542L213.828 48.595L213.944 50.8701L214.06 51.3944L214.176 52.0721L214.291 53.4562L214.407 56.4393L214.523 55.9139L214.639 52.6086L214.754 48.7398L214.87 50.5899L214.986 50.1884L215.102 47.233L215.218 53.5849L215.333 50.8145L215.449 46.0508L215.565 50.0032L215.681 48.5286L215.797 49.6642L215.912 47.8409L216.028 45.7731L216.144 44.8314L216.26 39.5326L216.376 37.3712L216.491 35.9026L216.607 36.8048L216.723 42.0719L216.839 43.2956L216.955 47.8098L217.07 47.1162L217.186 47.043L217.302 44.411L217.418 38.1037L217.534 37.743L217.649 39.9694L217.765 38.4898L217.881 36.7339L217.997 37.1386L218.113 38.4557L218.228 38.0202L218.344 35.8575L218.46 37.3616L218.576 37.9388L218.691 40.1665L218.807 39.7841L218.923 40.68L219.039 42.9631L219.155 44.006L219.27 44.8043L219.386 47.0149L219.502 43.5723L219.618 40.9739L219.734 38.8185L219.849 45.1606L219.965 46.2311L220.081 46.6371L220.197 45.8413L220.313 40.9921L220.428 39.7376L220.544 41.6729L220.66 43.0398L220.776 41.6466L220.892 43.7422L221.007 44.0771L221.123 40.0096L221.239 39.7651L221.355 41.2744L221.471 40.2861L221.586 43.2802L221.702 44.2924L221.818 44.6983L221.934 37.1042L222.049 38.7678L222.165 36.5519L222.281 38.0248L222.397 41.1987L222.513 45.5591L222.628 46.3692L222.744 41.3349L222.86 40.1973L222.976 39.2392L223.092 38.2204L223.207 40.7964L223.323 40.3303L223.439 42.1532L223.555 40.5866L223.671 38.1975L223.786 43.9745L223.902 42.7376L224.018 41.1958L224.134 43.3789L224.25 46.925L224.365 41.4336L224.481 39.5007L224.597 44.8936L224.713 42.4416L224.829 40.9352L224.944 46.5441L225.06 45.0816L225.176 42.0132L225.292 40.1087L225.407 46.4276L225.523 43.481L225.639 43.5795L225.755 42.1217L225.871 44.0795L225.986 41.4174L226.102 42.7491L226.218 44.3131L226.334 46.4985L226.45 48.2391L226.565 53.1956L226.681 54.2428L226.797 44.9815L226.913 45.9528L227.029 45.4076L227.144 43.8672L227.26 43.1022L227.376 47.242L227.492 45.1403L227.608 42.1161L227.723 42.2761L227.839 41.0327L227.955 43.0428L228.071 43.8851L228.187 45.8065L228.302 45.9765L228.418 39.8469L228.534 38.8515L228.65 38.9443L228.765 41.5509L228.881 41.6076L228.997 43.7818L229.113 42.1326L229.229 40.9225L229.344 41.1306L229.46 40.866L229.576 44.4805L229.692 42.8149L229.808 43.3L229.923 44.9671L230.039 40.5715L230.155 42.0385L230.271 41.3306L230.387 42.0029L230.502 42.9747L230.618 41.3223L230.734 46.71L230.85 52.0892L230.966 47.6255L231.081 46.8919L231.197 49.8159L231.313 49.3834L231.429 48.0473L231.545 48.9819L231.66 53.5889L231.776 49.9109L231.892 50.221L232.008 46.4651L232.123 47.322L232.239 46.9617L232.355 46.6947L232.471 42.9224L232.587 47.2024L232.702 48.15L232.818 49.5994L232.934 50.3891L233.05 47.1585L233.166 46.8626L233.281 44.3046L233.397 46.3895L233.513 45.6157L233.629 44.6356L233.745 46.1793L233.86 47.6245L233.976 43.8678L234.092 44.6045L234.208 45.748L234.324 46.1561L234.439 47.5374L234.555 46.9796L234.671 48.2889L234.787 47.5203L234.903 47.9978L235.018 46.8593L235.134 47.6146L235.25 47.5673L235.366 46.0677L235.482 46.8036L235.597 46.5173L235.713 47.7693L235.829 50.0685L235.945 47.4758L236.06 46.0565L236.176 47.36L236.292 47.7364L236.408 49.1574L236.524 50.4122L236.639 54.945L236.755 50.3377L236.871 50.6616L236.987 51.7451L237.103 53.012L237.218 52.363L237.334 50.4685L237.45 50.859L237.566 48.7229L237.682 48.7087L237.797 49.1215L237.913 52.4638L238.029 48.4464L238.145 47.2546L238.261 46.3618L238.376 46.722L238.492 47.8922L238.608 47.3414L238.724 48.8515L238.84 47.534L238.955 46.6994L239.071 46.9503L239.187 49.7305L239.303 50.2503L239.418 46.6425L239.534 48.6723L239.65 51.4377L239.766 46.1854L239.882 46.0494L239.997 46.1232L240.113 47.5809L240.229 48.5537L240.345 48.1696L240.461 49.7348L240.576 46.0683L240.692 45.651L240.808 45.1758L240.924 44.0699L241.04 45.1098L241.155 47.0545L241.271 48.3393L241.387 46.1902L241.503 43.6748L241.619 44.0474L241.734 45.4726L241.85 45.5829L241.966 46.6016L242.082 47.0446L242.198 43.6718L242.313 43.0202L242.429 41.6861L242.545 44.4541L242.661 43.9378L242.776 42.5127L242.892 42.0248L243.008 42.8381L243.124 41.3105L243.24 36.7062L243.355 32.1104L243.471 31.8086L243.587 42.0904L243.703 40.2886L243.819 35.4581L243.934 35.7429L244.05 33.6914L244.166 31.5686L244.282 31.3635L244.398 34.4918L244.513 34.6563L244.629 34.1212L244.745 31.1633L244.861 31.8007L244.977 32.0099L245.092 31.542L245.208 30.5918L245.324 30.7644L245.44 30.2283L245.556 35.3837L245.671 34.456L245.787 32.2144L245.903 33.8853L246.019 31.7323L246.134 34.8414L246.25 31.1626L246.366 31.2437L246.482 33.3552L246.598 33.6596L246.713 35.1172L246.829 38.5537L246.945 35.8597L247.061 33.866L247.177 34.7601L247.292 34.7928L247.408 40.1183L247.524 13.3155L247.64 33.9997L247.756 33.5177L247.871 36.76L247.987 38.7607L248.103 36.2523L248.219 35.8395L248.335 36.4782L248.45 43.4078L248.566 44.3239L248.682 35.8578L248.798 35.4859L248.914 38.6269L249.029 38.2098L249.145 37.2814L249.261 39.7507L249.377 44.2431L249.493 40.0835L249.608 35.754L249.724 36.8496L249.84 35.058L249.956 37.4413L250.071 43.4299L250.187 42.8934L250.303 37.2861L250.419 33.3942L250.535 35.9218L250.65 39.2051L250.766 37.3376L250.882 39.7038L250.998 47.868L251.114 40.2061L251.229 37.0406L251.345 40.6522L251.461 40.1691L251.577 39.4509L251.693 41.3675L251.808 41.7864L251.924 40.6333L252.04 28.8088L252.156 31.4441L252.272 32.6712L252.387 30.8318L252.503 33.9926L252.619 38.8406L252.735 35.5711L252.851 37.6943L252.966 38.2411L253.082 36.7098L253.198 43.2783L253.314 41.0793L253.429 40.5578L253.545 40.8639L253.661 39.1884L253.777 39.1842L253.893 43.8867L254.008 42.841L254.124 39.8076L254.24 46.0099L254.356 36.6467L254.472 47.5286L254.587 49.3513L254.703 42.5096L254.819 41.7787L254.935 44.3266L255.051 47.1896L255.166 45.8776L255.282 50.2964L255.398 46.7712L255.514 52.5302L255.63 51.3265L255.745 50.8379L255.861 51.0966L255.977 52.3211L256.093 54.4044L256.209 49.6799L256.324 50.4236L256.44 54.3279L256.556 54.083L256.672 57.7339L256.787 51.6748L256.903 47.9168L257.019 48.5551L257.135 45.5323L257.251 44.5525L257.366 50.2543L257.482 50.4017L257.598 51.8677L257.714 56.8063L257.83 60.8474L257.945 59.5249L258.061 65.4774L258.177 65.8653L258.293 66.0591L258.409 62.262L258.524 62.3292L258.64 62.8327L258.756 60.4107L258.872 67.7183L258.988 69.0871L259.103 67.4721L259.219 63.1983L259.335 55.5718L259.451 58.9326L259.567 60.6682L259.682 55.7996L259.798 54.7524L259.914 57.1954L260.03 58.0889L260.145 53.751L260.261 55.603L260.377 51.0052L260.493 50.7824L260.609 59.9544L260.724 58.2891L260.84 56.1333L260.956 58.437L261.072 55.4446L261.188 61.2219L261.303 59.7488L261.419 61.8864L261.535 63.1432L261.651 65.1651L261.767 66.1802L261.882 63.1568L261.998 64.7935L262.114 61.9765L262.23 62.6817L262.346 64.3264L262.461 65.1974L262.577 60.3061L262.693 60.8229L262.809 52.8356L262.925 58.6835L263.04 58.7225L263.156 59.6236L263.272 56.8775L263.388 52.9942L263.503 56.338L263.619 54.9341L263.735 51.9001L263.851 57.0853L263.967 58.1152L264.082 55.037L264.198 51.3956L264.314 48.9675L264.43 52.1577L264.546 51.9891L264.661 53.8112L264.777 48.2576L264.893 46.7114L265.009 42.0516L265.125 40.3568L265.24 36.5283L265.356 37.7731L265.472 37.5331L265.588 40.5833L265.704 42.9559L265.819 38.937L265.935 36.2272L266.051 37.0652L266.167 42.8005L266.283 45.1821L266.398 42.5053L266.514 41.4785L266.63 43.6969L266.746 41.9117L266.861 42.2011L266.977 39.4618L267.093 46.7635L267.209 47.0223L267.325 48.6107L267.44 45.345L267.556 48.6992L267.672 45.6694L267.788 49.8695L267.904 51.8259L268.019 45.2701L268.135 54.2199L268.251 49.7457L268.367 43.2128L268.483 42.5256L268.598 42.3699L268.714 51.6164L268.83 57.3198L268.946 54.4906L269.062 50.8415L269.177 55.1979L269.293 47.1241L269.409 48.1682L269.525 46.6147L269.641 58.4646L269.756 50.9437L269.872 53.4717L269.988 53.1885L270.104 52.8817L270.22 52.418L270.335 57.2017L270.451 60.064L270.567 56.2538L270.683 56.2962L270.798 53.2982L270.914 62.04L271.03 59.1157L271.146 60.0353L271.262 57.0014L271.377 55.0208L271.493 55.8083L271.609 56.4576L271.725 54.3068L271.841 48.2213L271.956 43.3545L272.072 53.9856L272.188 55.5573L272.304 56.3035L272.42 52.9092L272.535 57.2018L272.651 55.781L272.767 64.6087L272.883 65.102L272.999 60.6708L273.114 62.7057L273.23 58.9302L273.346 59.1703L273.462 61.7935L273.578 66.2671L273.693 75.8616L273.809 61.2984L273.925 59.6466L274.041 61.4618L274.156 64.6076L274.272 64.9979L274.388 68.9202L274.504 69.694L274.62 64.3843L274.735 65.0051L274.851 63.7087L274.967 62.618L275.083 56.3463L275.199 53.174L275.314 64.0713L275.43 59.8425L275.546 66.4312L275.662 64.9809L275.778 68.7823L275.893 67.4227L276.009 71.1628L276.125 70.9595L276.241 69.4234L276.357 69.8978L276.472 70.2971L276.588 70.7996L276.704 66.3061L276.82 66.7075L276.936 65.6144L277.051 63.0384L277.167 61.7111L277.283 58.7603L277.399 60.9605L277.514 57.533L277.63 60.0739L277.746 62.7558L277.862 63.8892L277.978 61.5764L278.093 64.1645L278.209 63.4154L278.325 66.3343L278.441 69.004L278.557 67.5189L278.672 70.2442L278.788 65.1817L278.904 67.4392L279.02 51.8949L279.136 66.3599L279.251 66.8868L279.367 65.7239L279.483 62.7582L279.599 59.1853L279.715 61.2056L279.83 61.1589L279.946 59.8222L280.062 62.8726L280.178 63.2376L280.294 58.7301L280.409 55.4153L280.525 54.0526L280.641 50.9783L280.757 60.3245L280.872 62.1427L280.988 62.6433L281.104 58.4155L281.22 56.6586L281.336 52.3804L281.451 55.0404L281.567 56.7337L281.683 53.1953L281.799 59.2814L281.915 57.9924L282.03 58.83L282.146 56.8825L282.262 57.5067L282.378 58.7381L282.494 57.3451L282.609 58.5506L282.725 48.068L282.841 47.7407L282.957 50.712L283.073 53.598L283.188 53.446L283.304 51.4626L283.42 57.021L283.536 58.392L283.652 59.3433L283.767 58.3142L283.883 64.7803L283.999 65.6013L284.115 62.9858L284.231 67.9728L284.346 59.1842L284.462 62.9174L284.578 64.4535L284.694 64.7253L284.809 62.9791L284.925 67.4832L285.041 63.3274L285.157 59.6682L285.273 65.1004L285.388 66.1434L285.504 65.3275L285.62 63.1318L285.736 66.0268L285.852 66.7235L285.967 62.0804L286.083 62.4606L286.199 65.3504L286.315 62.2207L286.431 57.4042L286.546 57.5732L286.662 70.2037L286.778 68.4051L286.894 72.1504L287.01 65.1228L287.125 63.4879L287.241 67.7404L287.357 66.4784L287.473 56.693L287.589 55.3554L287.704 54.4775L287.82 44.5463L287.936 44.8291L288.052 50.7511L288.167 52.2587L288.283 57.9835L288.399 60.7957L288.515 68.741L288.631 64.1732L288.746 65.0214L288.862 70.1953L288.978 76.0809L289.094 76.0116L289.21 67.7805L289.325 71.6576L289.441 71.5707L289.557 72.5319L289.673 71.5767L289.789 71.7907L289.904 75.8655L290.02 73.9419L290.136 75.4258L290.252 73.6912L290.368 82.5245L290.483 81.5649L290.599 84.6944L290.715 85.241L290.831 78.553L290.947 76.2588L291.062 81.1818L291.178 81.2161L291.294 75.9056L291.41 73.3142L291.525 69.4629L291.641 54.7009L291.757 61.2625L291.873 59.4707L291.989 67.7952L292.104 72.3078L292.22 65.2033L292.336 67.4785L292.452 66.7942L292.568 71.0046L292.683 72.1174L292.799 73.5249L292.915 72.0627L293.031 77.6083L293.147 80.3811L293.262 78.0042L293.378 73.7977L293.494 73.4592L293.61 70.7363L293.726 64.7818L293.841 68.1716L293.957 74.7761L294.073 69.9447L294.189 67.8787L294.305 68.4111L294.42 67.8293L294.536 68.9266L294.652 69.9995L294.768 74.5049L294.883 65.6616L294.999 66.1838L295.115 62.81L295.231 65.4622L295.347 68.4015L295.462 56.2956L295.578 73.2L295.694 59.8537L295.81 54.7107L295.926 59.0973L296.041 62.2658L296.157 60.6591L296.273 67.0481L296.389 62.8063L296.505 63.0178L296.62 62.2789L296.736 57.3181L296.852 58.4084L296.968 57.2228L297.084 59.0678L297.199 61.169L297.315 57.7822L297.431 57.1813L297.547 58.9635L297.663 64.6289L297.778 61.8687L297.894 64.4398L298.01 65.815L298.126 59.7151L298.241 61.6972L298.357 61.9726L298.473 60.7217L298.589 62.5736L298.705 59.9514L298.82 59.3254L298.936 59.6988L299.052 62.9278L299.168 61.2648L299.284 65.4315L299.399 58.5452L299.515 66.6785L299.631 53.6431L299.747 64.1769L299.863 63.1568L299.978 57.7027L300.094 48.7868L300.21 58.6188L300.326 57.7259L300.442 66.755L300.557 62.3591L300.673 60.378L300.789 65.1073L300.905 61.7966L301.021 63.2122L301.136 53.7822L301.252 70.6768L301.368 50.5494L301.484 55.0376L301.6 61.7423L301.715 52.9319L301.831 64.1264L301.947 67.5672L302.063 65.1929L302.178 63.8373L302.294 53.4063L302.41 62.3125L302.526 55.8253L302.642 54.7279L302.757 57.9244L302.873 52.0414L302.989 43.0799L303.105 34.265L303.221 45.6151L303.336 48.8941L303.452 47.3183L303.568 38.1415L303.684 47.1859L303.8 28.0335L303.915 41.9025L304.031 36.9394L304.147 38.5128L304.263 55.9265L304.379 54.3128L304.494 53.8495L304.61 60.968L304.726 50.9546L304.842 49.8777L304.958 50.1001L305.073 55.4137L305.189 62.9575L305.305 76.1289L305.421 56.5957L305.536 51.3095L305.652 59.0942L305.768 51.9221L305.884 55.4063L306 59.0991L306.115 55.5173L306.231 45.161L306.347 50.4022L306.463 52.3207L306.579 45.3308L306.694 48.2008L306.81 60.2282L306.926 55.0001L307.042 51.0476L307.158 48.361L307.273 48.246L307.389 48.0593L307.505 52.5803L307.621 45.6666L307.737 51.3961L307.852 53.7521L307.968 50.408L308.084 51.1881L308.2 51.5319L308.316 51.6943L308.431 46.2978L308.547 59.147L308.663 41.95L308.779 37.8242L308.894 29.5479L309.01 30.4706L309.126 37.1807L309.242 51.3641L309.358 40.1473L309.473 37.8332L309.589 44.9737L309.705 50.0513L309.821 49.3617L309.937 54.2119L310.052 61.4467L310.168 48.049L310.284 46.4982L310.4 47.098L310.516 27.1792L310.631 46.0865L310.747 53.1905L310.863 50.9204L310.979 56.6779L311.095 48.0926L311.21 48.264L311.326 45.464L311.442 50.7741L311.558 53.6868L311.674 59.6165L311.789 57.6129L311.905 52.9387L312.021 50.8865L312.137 54.2038L312.252 54.6099L312.368 51.0317L312.484 50.5335L312.6 55.439L312.716 42.5308L312.831 37.2943L312.947 46.0831L313.063 43.9193L313.179 42.7199L313.295 50.3534L313.41 53.0168L313.526 48.0673L313.642 46.9511L313.758 49.6203L313.874 50.6635L313.989 53.1405L314.105 54.9939L314.221 60.2531L314.337 51.123L314.453 53.3176L314.568 53.9002L314.684 55.6358L314.8 55.3508L314.916 58.2717L315.032 60.5649L315.147 53.4543L315.263 52.0966L315.379 44.2931L315.495 47.8638L315.61 44.6094L315.726 48.6572L315.842 56.6723L315.958 38.8573L316.074 40.209L316.189 43.6276L316.305 39.6646L316.421 45.3288L316.537 36.3473L316.653 42.6669L316.768 37.2279L316.884 40.3357L317 30.0718" stroke="#CED4DA" stroke-width="0.6" stroke-linecap="round" stroke-linejoin="round"/>
</svg>
