<svg width="318" height="111" viewBox="0 0 318 111" fill="none" xmlns="http://www.w3.org/2000/svg">
<path d="M1 109.498L1.11579 110H1.23159H1.34738H1.46317H1.57897H1.69476H1.81055L1.92635 109.884L2.04214 109.838L2.15793 109.925L2.27373 109.885L2.38952 109.72L2.50531 109.885L2.62111 109.84L2.7369 109.821L2.85269 109.871L2.96849 109.862L3.08428 109.858L3.20007 109.859L3.31587 109.817L3.43166 109.87L3.54745 109.779L3.66325 109.798L3.77904 109.764L3.89483 109.75L4.01063 109.747L4.12642 109.766L4.24221 109.685L4.35801 109.732L4.4738 109.767L4.58959 109.742L4.70539 109.707L4.82118 109.709L4.93697 109.707L5.05277 109.731L5.16856 109.682L5.28435 109.689L5.40015 109.689L5.51594 109.678L5.63173 109.683L5.74753 109.684L5.86332 109.699L5.97911 109.636L6.09491 109.684L6.2107 109.658L6.32649 109.686L6.44229 109.695L6.55808 109.669L6.67387 109.697L6.78967 109.673L6.90546 109.706L7.02125 109.639L7.13705 109.644L7.25284 109.616L7.36863 109.582L7.48443 109.649L7.60022 109.67L7.71601 109.667L7.83181 109.675L7.9476 109.655L8.06339 109.676L8.17919 109.669L8.29498 109.638L8.41077 109.658L8.52657 109.655L8.64236 109.626L8.75815 109.646L8.87395 109.636L8.98974 109.598L9.10553 109.609L9.22133 109.619L9.33712 109.632L9.45291 109.66L9.56871 109.628L9.6845 109.615L9.80029 109.615L9.91609 109.633L10.0319 109.617L10.1477 109.63L10.2635 109.634L10.3793 109.628L10.4951 109.667L10.6108 109.651L10.7266 109.663L10.8424 109.612L10.9582 109.641L11.074 109.671L11.1898 109.665L11.3056 109.617L11.4214 109.586L11.5372 109.558L11.653 109.552L11.7688 109.574L11.8846 109.61L12.0004 109.63L12.1162 109.583L12.232 109.603L12.3477 109.577L12.4635 109.555L12.5793 109.38L12.6951 109.3L12.8109 109.566L12.9267 109.54L13.0425 109.424L13.1583 109.462L13.2741 109.555L13.3899 109.593L13.5057 109.596L13.6215 109.58L13.7373 109.597L13.8531 109.584L13.9689 109.499L14.0846 109.642L14.2004 109.615L14.3162 109.601L14.432 109.534L14.5478 109.597L14.6636 109.6L14.7794 109.59L14.8952 109.626L15.011 109.616L15.1268 109.614L15.2426 109.493L15.3584 109.617L15.4742 109.633L15.59 109.607L15.7058 109.611L15.8215 109.617L15.9373 109.487L16.0531 109.597L16.1689 109.622L16.2847 109.605L16.4005 109.58L16.5163 109.543L16.6321 109.537L16.7479 109.581L16.8637 109.123L16.9795 108.81L17.0953 109.419L17.2111 109.458L17.3269 109.491L17.4427 109.475L17.5584 109.443L17.6742 109.32L17.79 108.814L17.9058 108.718L18.0216 109.239L18.1374 109.463L18.2532 109.395L18.369 108.767L18.4848 109.302L18.6006 109.359L18.7164 108.772L18.8322 109.419L18.948 109.536L19.0638 109.483L19.1796 109.478L19.2953 109.466L19.4111 109.073L19.5269 109.037L19.6427 108.755L19.7585 109.384L19.8743 109.335L19.9901 109.418L20.1059 109.386L20.2217 109.387L20.3375 109.004L20.4533 109.399L20.5691 109.443L20.6849 109.399L20.8007 109.45L20.9165 109.272L21.0322 109.243L21.148 109.402L21.2638 109.395L21.3796 109.219L21.4954 109.378L21.6112 109.278L21.727 109.034L21.8428 109.069L21.9586 108.943L22.0744 109.054L22.1902 109.075L22.306 109.173L22.4218 109.201L22.5376 109.199L22.6534 109.194L22.7691 109.195L22.8849 109.19L23.0007 109.14L23.1165 108.228L23.2323 109.196L23.3481 109.17L23.4639 109.125L23.5797 109.033L23.6955 108.791L23.8113 108.979L23.9271 108.91L24.0429 109.062L24.1587 109.032L24.2745 109.01L24.3903 108.873L24.506 109.043L24.6218 108.962L24.7376 109.057L24.8534 109.035L24.9692 108.974L25.085 108.958L25.2008 108.898L25.3166 108.9L25.4324 108.812L25.5482 108.93L25.664 108.925L25.7798 108.852L25.8956 108.772L26.0114 108.671L26.1272 108.599L26.2429 108.63L26.3587 108.471L26.4745 108.44L26.5903 108.688L26.7061 108.641L26.8219 108.615L26.9377 108.601L27.0535 108.696L27.1693 108.427L27.2851 108.414L27.4009 108.391L27.5167 108.349L27.6325 108.444L27.7483 108.109L27.8641 108.205L27.9798 108.039L28.0956 108.17L28.2114 108.166L28.3272 108.145L28.443 108.207L28.5588 107.916L28.6746 107.927L28.7904 107.933L28.9062 108.31L29.022 108.104L29.1378 108.087L29.2536 107.926L29.3694 108.181L29.4852 108.121L29.601 108.344L29.7167 108.331L29.8325 108.031L29.9483 107.791L30.0641 108.191L30.1799 108.201L30.2957 108.082L30.4115 108.2L30.5273 108.182L30.6431 108.29L30.7589 108.045L30.8747 107.967L30.9905 108.038L31.1063 108.028L31.2221 108.281L31.3379 107.733L31.4536 108.11L31.5694 108.16L31.6852 108.142L31.801 107.903L31.9168 108.213L32.0326 108.204L32.1484 108.08L32.2642 108.002L32.38 108.162L32.4958 108.091L32.6116 108.063L32.7274 107.895L32.8432 107.419L32.959 107.768L33.0748 107.646L33.1905 107.867L33.3063 107.886L33.4221 107.817L33.5379 107.672L33.6537 107.977L33.7695 107.741L33.8853 107.825L34.0011 107.706L34.1169 107.698L34.2327 107.462L34.3485 107.308L34.4643 107.42L34.5801 107.571L34.6959 107.889L34.8117 107.727L34.9274 107.404L35.0432 107.489L35.159 107.452L35.2748 107.54L35.3906 107.806L35.5064 107.529L35.6222 107.58L35.738 107.381L35.8538 107.115L35.9696 107.236L36.0854 106.044L36.2012 107.412L36.317 107.579L36.4328 107.497L36.5486 107.619L36.6643 107.763L36.7801 107.753L36.8959 107.864L37.0117 107.863L37.1275 107.803L37.2433 107.398L37.3591 107.72L37.4749 107.752L37.5907 107.736L37.7065 107.919L37.8223 107.599L37.9381 107.395L38.0539 107.161L38.1697 107.561L38.2855 107.553L38.4012 106.246L38.517 106.442L38.6328 107.122L38.7486 107.343L38.8644 107.331L38.9802 107.258L39.096 107.636L39.2118 107.443L39.3276 107.931L39.4434 107.653L39.5592 107.763L39.675 107.57L39.7908 107.186L39.9066 106.393L40.0224 107.739L40.1381 107.786L40.2539 107.758L40.3697 107.747L40.4855 107.785L40.6013 107.863L40.7171 107.72L40.8329 107.603L40.9487 107.721L41.0645 107.78L41.1803 107.824L41.2961 107.698L41.4119 107.984L41.5277 107.586L41.6435 107.681L41.7593 107.853L41.875 108.087L41.9908 107.789L42.1066 107.508L42.2224 107.145L42.3382 107.469L42.454 107.267L42.5698 107.462L42.6856 106.717L42.8014 106.906L42.9172 106.507L43.033 107.009L43.1488 107.262L43.2646 107.336L43.3804 107.631L43.4962 107.251L43.6119 107.407L43.7277 107.234L43.8435 107.21L43.9593 107.363L44.0751 107.563L44.1909 107.66L44.3067 107.577L44.4225 107.576L44.5383 107.346L44.6541 107.389L44.7699 107.283L44.8857 107.496L45.0015 107.683L45.1173 107.712L45.2331 107.614L45.3488 107.239L45.4646 107.47L45.5804 107.304L45.6962 107.578L45.812 107.67L45.9278 107.601L46.0436 107.504L46.1594 107.269L46.2752 107.359L46.391 107.188L46.5068 107.333L46.6226 107.296L46.7384 107.597L46.8542 107.433L46.97 107.351L47.0857 107.414L47.2015 107.322L47.3173 106.875L47.4331 107.474L47.5489 107.286L47.6647 107.594L47.7805 107.231L47.8963 107.253L48.0121 106.843L48.1279 106.959L48.2437 107.582L48.3595 107.555L48.4753 107.455L48.5911 107.598L48.7069 106.962L48.8226 107.032L48.9384 106.755L49.0542 107.356L49.17 107.863L49.2858 107.716L49.4016 106.951L49.5174 107.488L49.6332 107.03L49.749 108.014L49.8648 107.551L49.9806 107.817L50.0964 107.546L50.2122 107.36L50.328 107.586L50.4438 107.721L50.5595 107.979L50.6753 107.007L50.7911 107.118L50.9069 107.311L51.0227 106.804L51.1385 107.647L51.2543 107.923L51.3701 107.535L51.4859 107.874L51.6017 107.522L51.7175 107.465L51.8333 107.685L51.9491 108.308L52.0649 108.182L52.1807 107.631L52.2964 108.102L52.4122 108.027L52.528 107.849L52.6438 107.073L52.7596 107.829L52.8754 107.55L52.9912 106.741L53.107 107.87L53.2228 108.006L53.3386 107.036L53.4544 107.315L53.5702 107.453L53.686 107.499L53.8018 107.658L53.9176 107.743L54.0333 107.776L54.1491 107.46L54.2649 107.235L54.3807 107.546L54.4965 107.612L54.6123 108.163L54.7281 107.874L54.8439 108.06L54.9597 107.635L55.0755 107.656L55.1913 107.715L55.3071 107.735L55.4229 107.684L55.5387 107.694L55.6545 107.537L55.7702 107.526L55.886 107.443L56.0018 107.649L56.1176 107.702L56.2334 107.531L56.3492 107.784L56.465 107.624L56.5808 107.59L56.6966 106.978L56.8124 106.374L56.9282 107.921L57.044 106.725L57.1598 107.699L57.2756 107.493L57.3914 107.271L57.5071 107.347L57.6229 107.79L57.7387 107.906L57.8545 107.651L57.9703 107.668L58.0861 107.764L58.2019 107.653L58.3177 107.282L58.4335 107.645L58.5493 107.767L58.6651 107.663L58.7809 107.712L58.8967 107.791L59.0125 107.815L59.1283 107.481L59.244 107.333L59.3598 107.4L59.4756 107.521L59.5914 107.776L59.7072 107.934L59.823 107.428L59.9388 107.505L60.0546 107.135L60.1704 106.888L60.2862 107.496L60.402 107.871L60.5178 107.936L60.6336 108.051L60.7494 107.61L60.8652 107.553L60.981 107.375L61.0967 107.487L61.2125 107.675L61.3283 107.816L61.4441 107.764L61.5599 107.412L61.6757 107.142L61.7915 107.203L61.9073 107.53L62.0231 107.54L62.1389 107.59L62.2547 107.395L62.3705 107.283L62.4863 107.45L62.6021 107.147L62.7178 107.133L62.8336 107.629L62.9494 107.646L63.0652 107.441L63.181 107.368L63.2968 107.462L63.4126 107.539L63.5284 107.418L63.6442 107.558L63.76 107.325L63.8758 107.401L63.9916 107.157L64.1074 107.391L64.2232 107.357L64.339 107.367L64.4547 107.451L64.5705 107.603L64.6863 107.441L64.8021 107.538L64.9179 107.488L65.0337 107.535L65.1495 107.587L65.2653 107.439L65.3811 107.375L65.4969 107.332L65.6127 107.075L65.7285 107.119L65.8443 107.3L65.9601 107.055L66.0759 107.374L66.1916 107.444L66.3074 106.842L66.4232 106.712L66.539 106.88L66.6548 107.199L66.7706 107.214L66.8864 107.214L67.0022 107.28L67.118 107.172L67.2338 106.704L67.3496 107.159L67.4654 107.315L67.5812 106.95L67.697 106.997L67.8128 107.083L67.9285 107.031L68.0443 106.601L68.1601 106.629L68.2759 106.008L68.3917 106.374L68.5075 106.686L68.6233 106.784L68.7391 106.784L68.8549 106.47L68.9707 106.876L69.0865 106.376L69.2023 106.327L69.3181 106.345L69.4339 106.241L69.5497 105.391L69.6654 105.649L69.7812 105.42L69.897 103.799L70.0128 103.986L70.1286 104.929L70.2444 105.229L70.3602 105.473L70.476 105.246L70.5918 105.555L70.7076 105.351L70.8234 105.05L70.9392 105.24L71.055 105.514L71.1708 104.666L71.2866 105.243L71.4023 104.751L71.5181 104.574L71.6339 104.185L71.7497 105.456L71.8655 104.984L71.9813 104.348L72.0971 105.134L72.2129 105.07L72.3287 104.632L72.4445 104.764L72.5603 105.931L72.6761 105.795L72.7919 105.743L72.9077 105.72L73.0235 105.469L73.1393 105.256L73.255 105.423L73.3708 105.78L73.4866 106.016L73.6024 105.909L73.7182 105.302L73.834 105.165L73.9498 105.181L74.0656 105.416L74.1814 105.853L74.2972 105.653L74.413 105.458L74.5288 104.753L74.6446 104.944L74.7604 104.107L74.8761 104.011L74.9919 104.849L75.1077 104.631L75.2235 103.672L75.3393 103.776L75.4551 104.511L75.5709 103.521L75.6867 103.88L75.8025 104.641L75.9183 103.986L76.0341 103.373L76.1499 103.631L76.2657 103.815L76.3815 103.391L76.4973 103.952L76.613 104.285L76.7288 104.284L76.8446 103.075L76.9604 103.439L77.0762 102.097L77.192 102.25L77.3078 100.888L77.4236 102.617L77.5394 101.557L77.6552 100.06L77.771 99.4468L77.8868 99.4371L78.0026 99.6787L78.1184 100.423L78.2342 101.571L78.3499 101.243L78.4657 101.058L78.5815 99.0804L78.6973 97.9238L78.8131 98.7679L78.9289 99.0075L79.0447 100.093L79.1605 99.8408L79.2763 99.2673L79.3921 98.691L79.5079 98.3156L79.6237 99.4142L79.7395 97.8277L79.8553 97.9673L79.9711 96.437L80.0868 93.4789L80.2026 94.2057L80.3184 95.8775L80.4342 95.2455L80.55 96.0133L80.6658 96.3506L80.7816 96.1286L80.8974 93.8585L81.0132 92.6021L81.129 97.5199L81.2448 93.9704L81.3606 94.4336L81.4764 95.8685L81.5922 96.9646L81.708 92.134L81.8237 95.7317L81.9395 94.5335L82.0553 95.1229L82.1711 95.7511L82.2869 96.4384L82.4027 95.9786L82.5185 92.9662L82.6343 94.1261L82.7501 94.6821L82.8659 95.4048L82.9817 93.3408L83.0975 96.0054L83.2133 97.2999L83.3291 92.9323L83.4449 93.5502L83.5606 93.9928L83.6764 95.2946L83.7922 95.9355L83.908 96.918L84.0238 95.9492L84.1396 95.9868L84.2554 94.7132L84.3712 94.7658L84.487 95.897L84.6028 96.8842L84.7186 98.4061L84.8344 95.309L84.9502 95.1621L85.066 96.2979L85.1818 97.4228L85.2975 97.286L85.4133 96.0984L85.5291 98.7897L85.6449 98.3469L85.7607 95.8956L85.8765 97.6725L85.9923 96.9683L86.1081 96.6713L86.2239 95.4968L86.3397 95.2577L86.4555 95.0475L86.5713 94.1426L86.6871 92.0168L86.8029 94.1913L86.9187 90.9241L87.0344 89.884L87.1502 90.9008L87.266 91.219L87.3818 86.8736L87.4976 86.694L87.6134 86.6727L87.7292 85.8615L87.845 84.9958L87.9608 88.7146L88.0766 92.521L88.1924 87.8426L88.3082 89.4303L88.424 88.8672L88.5398 90.1219L88.6556 90.1131L88.7713 92.7273L88.8871 91.7175L89.0029 89.4827L89.1187 87.7428L89.2345 87.4286L89.3503 88.3196L89.4661 87.9488L89.5819 91.2875L89.6977 92.9384L89.8135 85.0389L89.9293 84.9273L90.0451 82.0056L90.1609 84.7144L90.2767 83.8502L90.3925 88.3629L90.5082 91.6636L90.624 89.3933L90.7398 87.1648L90.8556 89.3766L90.9714 88.5548L91.0872 85.0855L91.203 88.9207L91.3188 93.672L91.4346 89.541L91.5504 90.9516L91.6662 91.6717L91.782 92.1178L91.8978 94.6898L92.0136 95.3306L92.1294 94.1563L92.2451 92.7077L92.3609 92.7381L92.4767 92.5705L92.5925 91.4335L92.7083 91.5861L92.8241 93.3177L92.9399 93.9904L93.0557 92.737L93.1715 91.5069L93.2873 92.6635L93.4031 92.2456L93.5189 91.9595L93.6347 93.5832L93.7505 93.2596L93.8663 91.4919L93.982 90.2832L94.0978 90.5821L94.2136 89.5045L94.3294 88.6177L94.4452 91.2665L94.561 91.4497L94.6768 86.9731L94.7926 81.4848L94.9084 83.4679L95.0242 82.1293L95.14 79.1598L95.2558 83.8935L95.3716 85.4393L95.4874 83.5965L95.6032 82.2362L95.719 84.0335L95.8347 83.6959L95.9505 82.5825L96.0663 82.6724L96.1821 82.1297L96.2979 79.9612L96.4137 80.6786L96.5295 80.2344L96.6453 80.1501L96.7611 82.6027L96.8769 87.5111L96.9927 86.4765L97.1085 81.1435L97.2243 83.4696L97.3401 82.9059L97.4559 83.6527L97.5716 84.2023L97.6874 87.7581L97.8032 85.5021L97.919 85.006L98.0348 83.1557L98.1506 79.5119L98.2664 82.2817L98.3822 81.3168L98.498 84.0753L98.6138 83.7998L98.7296 80.1014L98.8454 80.4452L98.9612 79.1794L99.077 79.7107L99.1928 80.3615L99.3085 78.3517L99.4243 79.4053L99.5401 75.6711L99.6559 73.9626L99.7717 72.5758L99.8875 73.0339L100.003 74.8802L100.119 74.5945L100.235 70.871L100.351 70.4183L100.466 70.9115L100.582 65.3475L100.698 72.8302L100.814 66.7764L100.93 70.1144L101.045 69.587L101.161 63.2522L101.277 60.8022L101.393 58.6991L101.509 56.8421L101.624 58.9972L101.74 59.2503L101.856 60.5634L101.972 54.5037L102.088 48.4008L102.203 54.3862L102.319 49.5044L102.435 47.7641L102.551 58.1774L102.667 67.2375L102.782 67.5687L102.898 64.1201L103.014 58.5231L103.13 56.4504L103.246 48.516L103.361 45.8953L103.477 56.5927L103.593 58.7378L103.709 44.9209L103.824 40.1782L103.94 33.8696L104.056 38.2863L104.172 40.8332L104.288 44.9894L104.403 41.4504L104.519 39.1512L104.635 43.5816L104.751 43.7914L104.867 46.9049L104.982 43.4893L105.098 49.0009L105.214 41.961L105.33 37.9276L105.446 37.9758L105.561 42.0307L105.677 51.1629L105.793 54.4773L105.909 53.2343L106.025 55.1303L106.14 57.6353L106.256 58.4714L106.372 65.5297L106.488 56.229L106.604 63.0778L106.719 59.8568L106.835 57.1643L106.951 58.8713L107.067 60.5234L107.182 53.1085L107.298 54.6666L107.414 64.0651L107.53 64.8326L107.646 60.6093L107.761 59.9067L107.877 63.8316L107.993 71.5739L108.109 65.4569L108.225 62.153L108.34 66.3768L108.456 63.2454L108.572 67.9375L108.688 67.9058L108.804 66.1612L108.919 70.2534L109.035 66.4567L109.151 67.3583L109.267 64.24L109.383 59.9813L109.498 62.0337L109.614 67.0312L109.73 68.6559L109.846 68.6685L109.962 71.0529L110.077 68.4095L110.193 70.8273L110.309 69.3731L110.425 71.4014L110.54 68.0027L110.656 72.0183L110.772 73.7228L110.888 67.5465L111.004 69.8117L111.119 65.7981L111.235 71.0779L111.351 73.3384L111.467 76.6478L111.583 75.6596L111.698 71.7677L111.814 70.5729L111.93 72.1461L112.046 73.0861L112.162 73.0831L112.277 76.5449L112.393 71.4188L112.509 70.3023L112.625 72.6767L112.741 70.6418L112.856 75.0644L112.972 71.8131L113.088 75.4169L113.204 80.3139L113.32 74.6605L113.435 77.0608L113.551 77.2975L113.667 77.0823L113.783 74.2657L113.898 77.0415L114.014 79.2554L114.13 76.2458L114.246 73.5685L114.362 74.5575L114.477 70.7546L114.593 73.4555L114.709 79.7786L114.825 76.4022L114.941 75.6089L115.056 77.7752L115.172 75.6482L115.288 70.9388L115.404 68.8105L115.52 75.5305L115.635 75.0344L115.751 72.5294L115.867 68.1067L115.983 70.3361L116.099 64.0745L116.214 63.0649L116.33 67.9216L116.446 67.7663L116.562 64.7202L116.678 63.9595L116.793 64.9376L116.909 65.2276L117.025 66.8853L117.141 66.2739L117.257 67.3268L117.372 66.1153L117.488 69.7413L117.604 65.5745L117.72 62.6495L117.835 53.5729L117.951 65.4877L118.067 71.014L118.183 65.4537L118.299 63.7485L118.414 63.1265L118.53 61.7899L118.646 63.4101L118.762 65.5313L118.878 67.0004L118.993 64.7812L119.109 66.0545L119.225 64.4728L119.341 62.8652L119.457 63.0868L119.572 62.2715L119.688 66.1632L119.804 64.7573L119.92 63.6182L120.036 62.9996L120.151 64.2522L120.267 64.8348L120.383 67.029L120.499 66.2342L120.615 61.4417L120.73 64.1949L120.846 63.9139L120.962 63.0298L121.078 67.2371L121.193 66.6858L121.309 64.3182L121.425 64.4779L121.541 65.9731L121.657 67.4724L121.772 66.2453L121.888 69.3929L122.004 66.6063L122.12 66.5018L122.236 66.6312L122.351 66.5627L122.467 65.0153L122.583 66.8043L122.699 66.9234L122.815 73.9183L122.93 73.4235L123.046 70.7613L123.162 66.0796L123.278 64.7085L123.394 67.5871L123.509 66.5482L123.625 71.8799L123.741 72.1012L123.857 62.7804L123.973 68.7075L124.088 66.4647L124.204 67.9961L124.32 68.5427L124.436 74.3015L124.551 74.8851L124.667 82.3901L124.783 77.6542L124.899 84.784L125.015 80.2455L125.13 84.1093L125.246 82.6977L125.362 74.3847L125.478 73.233L125.594 70.9859L125.709 73.6845L125.825 78.0758L125.941 78.2303L126.057 81.2965L126.173 84.4121L126.288 70.2962L126.404 70.4489L126.52 67.9193L126.636 68.5647L126.752 72.123L126.867 74.9978L126.983 71.9116L127.099 67.2137L127.215 65.7331L127.331 65.5855L127.446 69.0763L127.562 65.5185L127.678 70.2977L127.794 69.5995L127.909 67.267L128.025 67.9803L128.141 67.2644L128.257 66.014L128.373 67.522L128.488 69.3629L128.604 70.2821L128.72 70.5479L128.836 74.1119L128.952 78.098L129.067 79.6283L129.183 75.378L129.299 72.9293L129.415 73.7969L129.531 70.8071L129.646 71.0661L129.762 73.4226L129.878 69.5781L129.994 75.7515L130.11 74.6094L130.225 76.1807L130.341 72.5651L130.457 75.8435L130.573 76.4481L130.689 76.1865L130.804 76.3743L130.92 77.4452L131.036 77.6238L131.152 73.5709L131.268 75.3807L131.383 79.1595L131.499 76.5649L131.615 77.4441L131.731 72.9889L131.846 75.0185L131.962 74.389L132.078 76.7525L132.194 74.6412L132.31 76.7842L132.425 77.1663L132.541 79.3572L132.657 78.0998L132.773 78.3266L132.889 78.5687L133.004 77.8155L133.12 78.6569L133.236 80.9895L133.352 82.9464L133.468 84.1456L133.583 78.7716L133.699 81.7723L133.815 81.3921L133.931 81.9058L134.047 79.2811L134.162 83.4758L134.278 83.5706L134.394 82.9102L134.51 80.7236L134.626 82.1675L134.741 81.573L134.857 81.7783L134.973 85.5057L135.089 82.9658L135.204 83.1374L135.32 82.3505L135.436 78.4735L135.552 78.4636L135.668 76.4231L135.783 76.3383L135.899 81.9272L136.015 79.3851L136.131 79.713L136.247 80.8554L136.362 77.8238L136.478 78.2967L136.594 79.444L136.71 81.1403L136.826 78.304L136.941 77.5461L137.057 77.2695L137.173 78.0908L137.289 76.0984L137.405 79.8792L137.52 81.3493L137.636 77.441L137.752 78.63L137.868 79.9566L137.984 79.7012L138.099 78.9127L138.215 81.8484L138.331 81.2451L138.447 75.3328L138.562 75.6879L138.678 76.9676L138.794 76.7765L138.91 79.0641L139.026 81.5184L139.141 81.1895L139.257 77.1567L139.373 76.3213L139.489 78.1579L139.605 78.6773L139.72 79.1028L139.836 82.4149L139.952 80.2335L140.068 77.7879L140.184 78.7789L140.299 77.1665L140.415 78.2453L140.531 78.8626L140.647 81.4865L140.763 82.6584L140.878 74.8676L140.994 74.7092L141.11 77.3159L141.226 77.9158L141.342 78.4179L141.457 81.9653L141.573 80.1636L141.689 78.5647L141.805 78.0889L141.92 74.8881L142.036 78.6661L142.152 76.2157L142.268 80.3486L142.384 82.2293L142.499 79.0885L142.615 78.124L142.731 76.3907L142.847 76.6734L142.963 77.7171L143.078 78.8319L143.194 81.3752L143.31 78.678L143.426 79.7706L143.542 79.8883L143.657 78.0966L143.773 78.0054L143.889 78.8733L144.005 80.8596L144.121 77.8506L144.236 78.625L144.352 76.2842L144.468 76.0245L144.584 75.7935L144.7 82.0522L144.815 79.3392L144.931 75.2845L145.047 79.8273L145.163 78.4148L145.279 79.071L145.394 77.73L145.51 79.3341L145.626 84.0349L145.742 80.5583L145.857 84.7245L145.973 76.7278L146.089 76.3521L146.205 79.0153L146.321 81.1702L146.436 82.5135L146.552 78.927L146.668 78.7915L146.784 78.4824L146.9 77.1294L147.015 79.4417L147.131 84.4685L147.247 82.8532L147.363 77.4452L147.479 79.5512L147.594 81.3677L147.71 80.8379L147.826 79.6075L147.942 79.5947L148.058 79.6748L148.173 77.1343L148.289 75.8481L148.405 79.894L148.521 80.666L148.637 81.5247L148.752 83.8101L148.868 82.4321L148.984 77.9344L149.1 78.0776L149.215 78.6798L149.331 80.8393L149.447 81.8658L149.563 84.6034L149.679 86.0662L149.794 86.5164L149.91 86.6055L150.026 85.8018L150.142 85.8238L150.258 83.3831L150.373 86.475L150.489 88.504L150.605 85.8051L150.721 85.2916L150.837 82.2889L150.952 83.2235L151.068 83.5722L151.184 84.3781L151.3 84.737L151.416 81.0988L151.531 79.9062L151.647 80.0942L151.763 79.2737L151.879 80.062L151.995 83.1421L152.11 79.534L152.226 77.6416L152.342 78.76L152.458 79.5727L152.573 79.4631L152.689 79.1155L152.805 80.2835L152.921 82.2309L153.037 75.0217L153.152 76.2695L153.268 77.3497L153.384 77.702L153.5 78.2843L153.616 78.6512L153.731 82.7015L153.847 79.7477L153.963 78.1746L154.079 77.6684L154.195 77.6376L154.31 78.8115L154.426 81.5654L154.542 82.0905L154.658 77.6312L154.774 74.1346L154.889 74.4519L155.005 75.1284L155.121 74.5429L155.237 78.3171L155.353 79.0337L155.468 73.4167L155.584 74.5254L155.7 74.6981L155.816 74.2233L155.931 73.8858L156.047 72.3283L156.163 73.5543L156.279 71.2226L156.395 67.2L156.51 67.8934L156.626 72.0152L156.742 74.9251L156.858 78.4716L156.974 77.6907L157.089 72.3265L157.205 72.9517L157.321 71.9842L157.437 68.8844L157.553 70.8154L157.668 75.3555L157.784 78.9219L157.9 74.9175L158.016 72.9773L158.132 71.5428L158.247 70.6543L158.363 70.9062L158.479 71.2649L158.595 74.4025L158.711 69.433L158.826 68.8711L158.942 72.2748L159.058 71.6039L159.174 72.7178L159.289 78.2659L159.405 76.5291L159.521 74.5266L159.637 70.0835L159.753 70.308L159.868 74.6778L159.984 72.164L160.1 74.8421L160.216 74.0486L160.332 70.1758L160.447 72.8822L160.563 71.2552L160.679 69.4818L160.795 68.4485L160.911 68.1341L161.026 69.6292L161.142 67.2115L161.258 63.1458L161.374 62.1972L161.49 58.7794L161.605 64.3L161.721 68.5242L161.837 67.5648L161.953 61.4891L162.069 64.1602L162.184 60.7434L162.3 62.2469L162.416 59.0135L162.532 62.629L162.647 66.9634L162.763 56.8886L162.879 58.6481L162.995 56.5629L163.111 59.6987L163.226 60.8961L163.342 56.0417L163.458 59.7558L163.574 59.8589L163.69 59.696L163.805 64.9163L163.921 63.4824L164.037 67.2251L164.153 54.0169L164.269 69.634L164.384 55.6501L164.5 57.5482L164.616 61.4597L164.732 67.7156L164.848 63.4516L164.963 57.0455L165.079 59.8638L165.195 56.7555L165.311 62.0612L165.427 60.0288L165.542 54.4471L165.658 66.1438L165.774 67.2432L165.89 66.3766L166.006 64.3385L166.121 57.4266L166.237 62.1411L166.353 64.0858L166.469 53.3674L166.584 68.6416L166.7 71.3137L166.816 56.3105L166.932 59.5212L167.048 67.5199L167.163 67.8421L167.279 62.114L167.395 67.4741L167.511 77.1729L167.627 64.3296L167.742 66.4637L167.858 68.486L167.974 54.9962L168.09 69.0333L168.206 76.8787L168.321 75.4007L168.437 68.0801L168.553 53.4177L168.669 63.1885L168.785 72.3336L168.9 64.0052L169.016 77.0591L169.132 80.5371L169.248 73.8681L169.364 75.7783L169.479 58.8355L169.595 56.4301L169.711 73.891L169.827 77.4194L169.942 77.7013L170.058 71.8195L170.174 69.6317L170.29 71.4081L170.406 60.5032L170.521 66.6691L170.637 65.813L170.753 77.9023L170.869 69.4819L170.985 68.7141L171.1 68.1262L171.216 70.9314L171.332 69.2944L171.448 74.4172L171.564 77.1481L171.679 69.7915L171.795 70.5967L171.911 68.455L172.027 71.1379L172.143 69.4573L172.258 73.8432L172.374 74.6241L172.49 69.1422L172.606 68.6313L172.722 68.7453L172.837 68.4269L172.953 68.6448L173.069 71.4109L173.185 71.8043L173.3 67.6542L173.416 67.8058L173.532 69.2663L173.648 69.1576L173.764 69.7777L173.879 71.6625L173.995 71.0725L174.111 67.2767L174.227 67.6329L174.343 69.7078L174.458 66.5812L174.574 66.6585L174.69 71.7938L174.806 71.924L174.922 67.3349L175.037 70.9946L175.153 70.2233L175.269 69.1837L175.385 74.8379L175.501 74.556L175.616 74.2462L175.732 68.6601L175.848 71.5474L175.964 70.0287L176.08 70.9457L176.195 69.5558L176.311 76.3322L176.427 77.4833L176.543 73.9398L176.658 69.9848L176.774 71.7808L176.89 72.9087L177.006 74.8287L177.122 75.7184L177.237 76.6135L177.353 71.4284L177.469 73.6195L177.585 74.6311L177.701 75.3049L177.816 76.7144L177.932 76.4368L178.048 77.7537L178.164 74.5044L178.28 69.9368L178.395 67.6255L178.511 70.1762L178.627 70.371L178.743 74.2186L178.859 78.0314L178.974 73.3077L179.09 71.0461L179.206 70.8269L179.322 70.3129L179.438 68.6242L179.553 72.4861L179.669 75.4655L179.785 71.7327L179.901 69.0425L180.016 68.4696L180.132 69.1165L180.248 68.1725L180.364 69.5731L180.48 73.739L180.595 69.3185L180.711 70.0919L180.827 69.5282L180.943 68.0336L181.059 70.2387L181.174 76.6704L181.29 77.7907L181.406 72.1695L181.522 68.3079L181.638 70.0856L181.753 61.6464L181.869 70.5704L181.985 75.9355L182.101 75.6334L182.217 69.9491L182.332 70.0334L182.448 69.7575L182.564 71.6776L182.68 71.4778L182.796 76.3498L182.911 76.152L183.027 68.5776L183.143 68.5179L183.259 71.0987L183.374 66.9746L183.49 65.1782L183.606 74.3754L183.722 76.3375L183.838 66.975L183.953 71.6648L184.069 71.9341L184.185 74.8599L184.301 72.1817L184.417 77.0148L184.532 75.3117L184.648 71.5815L184.764 75.5678L184.88 72.721L184.996 75.1663L185.111 77.6467L185.227 82.471L185.343 85.1472L185.459 74.1616L185.575 74.3792L185.69 74.7319L185.806 74.1516L185.922 74.9484L186.038 78.9169L186.154 80.2788L186.269 74.2055L186.385 73.5109L186.501 72.5918L186.617 75.0257L186.733 75.3529L186.848 79.2421L186.964 80.113L187.08 74.3774L187.196 76.0028L187.311 78.1302L187.427 76.9147L187.543 77.2878L187.659 80.8742L187.775 82.9218L187.89 77.0399L188.006 78.7437L188.122 83.6891L188.238 81.4832L188.354 77.1969L188.469 78.4696L188.585 80.4103L188.701 74.6656L188.817 73.5403L188.933 73.1256L189.048 74.9547L189.164 75.8742L189.28 79.0033L189.396 80.4505L189.512 78.1135L189.627 72.1151L189.743 70.6121L189.859 70.88L189.975 71.844L190.091 74.5705L190.206 75.2948L190.322 76.2029L190.438 78.476L190.554 81.0248L190.669 78.8385L190.785 81.9628L190.901 85.4381L191.017 85.8146L191.133 83.1243L191.248 80.3189L191.364 78.8952L191.48 78.0761L191.596 77.1001L191.712 79.2205L191.827 80.104L191.943 74.9664L192.059 80.4209L192.175 75.5536L192.291 75.7947L192.406 74.681L192.522 72.6847L192.638 74.5468L192.754 72.2836L192.87 69.9984L192.985 64.9857L193.101 66.8693L193.217 66.4709L193.333 70.5697L193.449 72.6936L193.564 70.7831L193.68 68.6052L193.796 70.7566L193.912 71.1083L194.027 72.1831L194.143 75.8311L194.259 75.8068L194.375 71.2153L194.491 72.1992L194.606 70.2438L194.722 69.705L194.838 71.1594L194.954 75.0073L195.07 74.5542L195.185 71.5664L195.301 72.6976L195.417 72.554L195.533 69.3874L195.649 71.8302L195.764 74.4137L195.88 72.633L195.996 65.7796L196.112 67.1048L196.228 69.7849L196.343 67.0939L196.459 62.1779L196.575 71.5465L196.691 72.91L196.807 65.7791L196.922 66.9631L197.038 66.6621L197.154 61.2716L197.27 63.6324L197.386 61.639L197.501 67.9165L197.617 64.8122L197.733 65.3389L197.849 66.834L197.964 66.4246L198.08 67.7709L198.196 72.3419L198.312 75.7112L198.428 69.168L198.543 68.7312L198.659 71.4801L198.775 69.3626L198.891 69.2422L199.007 74.6979L199.122 75.3719L199.238 66.5006L199.354 65.8142L199.47 63.1775L199.586 68.9707L199.701 67.9476L199.817 71.6202L199.933 71.7326L200.049 68.023L200.165 64.094L200.28 65.3246L200.396 65.4272L200.512 65.6919L200.628 65.8345L200.744 68.1714L200.859 63.253L200.975 64.1509L201.091 65.4167L201.207 63.3933L201.322 62.2422L201.438 65.3163L201.554 64.7721L201.67 62.5588L201.786 62.7134L201.901 59.3618L202.017 59.2728L202.133 63.3515L202.249 66.8001L202.365 65.4635L202.48 66.3464L202.596 65.6988L202.712 62.9924L202.828 60.5321L202.944 59.9328L203.059 59.5591L203.175 60.418L203.291 59.9442L203.407 60.332L203.523 61.6695L203.638 63.7372L203.754 59.8801L203.87 60.6505L203.986 64.4047L204.102 61.631L204.217 62.1728L204.333 61.7589L204.449 61.0637L204.565 58.324L204.68 61.023L204.796 63.4295L204.912 60.618L205.028 58.2849L205.144 59.4556L205.259 58.8326L205.375 56.4636L205.491 60.2603L205.607 62.0563L205.723 57.5575L205.838 54.6796L205.954 59.3345L206.07 57.5274L206.186 59.1298L206.302 56.6369L206.417 56.7729L206.533 55.5084L206.649 57.9409L206.765 56.9926L206.881 57.8137L206.996 59.8447L207.112 63.0059L207.228 65.727L207.344 58.5497L207.46 58.9644L207.575 60.3851L207.691 58.4615L207.807 56.6513L207.923 56.9066L208.038 54.3324L208.154 48.4093L208.27 46.8663L208.386 49.6061L208.502 51.2484L208.617 52.6153L208.733 52.636L208.849 53.7305L208.965 50.4336L209.081 47.3245L209.196 51.0963L209.312 51.3963L209.428 52.3563L209.544 56.6318L209.66 60.366L209.775 52.4739L209.891 49.9646L210.007 48.4021L210.123 49.6354L210.239 51.6396L210.354 54.5652L210.47 53.7176L210.586 45.0395L210.702 48.0383L210.818 47.3221L210.933 49.7325L211.049 49.1978L211.165 49.5696L211.281 48.9527L211.396 45.4982L211.512 46.8295L211.628 45.8174L211.744 45.304L211.86 45.3526L211.975 43.7044L212.091 45.8257L212.207 38.8571L212.323 41.0624L212.439 44.3618L212.554 44.3263L212.67 41.2606L212.786 43.9266L212.902 46.5029L213.018 43.6319L213.133 44.3416L213.249 43.2988L213.365 41.4272L213.481 39.5204L213.597 43.3153L213.712 40.679L213.828 37.2484L213.944 39.2638L214.06 40.6754L214.176 41.8076L214.291 42.2359L214.407 47.521L214.523 45.0093L214.639 43.3395L214.754 40.6731L214.87 41.3704L214.986 43.2821L215.102 39.1224L215.218 47.823L215.333 46.6925L215.449 44.4559L215.565 45.8085L215.681 44.2283L215.797 45.9L215.912 46.163L216.028 46.2149L216.144 45.5707L216.26 40.3009L216.376 39.7456L216.491 43.3826L216.607 45.1634L216.723 45.6388L216.839 51.2955L216.955 52.0986L217.07 50.6992L217.186 52.0967L217.302 50.6359L217.418 46.7805L217.534 49.4058L217.649 51.6521L217.765 51.2312L217.881 49.1083L217.997 48.536L218.113 51.6279L218.228 30.7043L218.344 39.796L218.46 48.5267L218.576 48.2273L218.691 46.0643L218.807 49.0063L218.923 48.8595L219.039 48.6657L219.155 51.6405L219.27 54.4734L219.386 55.493L219.502 49.0802L219.618 48.6264L219.734 49.1449L219.849 52.5456L219.965 53.482L220.081 56.0542L220.197 54.423L220.313 52.0409L220.428 48.8932L220.544 51.607L220.66 52.5058L220.776 50.8069L220.892 51.5524L221.007 53.3374L221.123 48.4048L221.239 46.4177L221.355 48.3053L221.471 39.5271L221.586 44.5149L221.702 50.6827L221.818 53.8444L221.934 46.3312L222.049 47.6426L222.165 44.6154L222.281 42.941L222.397 46.1109L222.513 52.917L222.628 55.5648L222.744 48.7445L222.86 49.1773L222.976 45.729L223.092 47.5201L223.207 47.3417L223.323 48.5501L223.439 50.7402L223.555 44.7555L223.671 46.871L223.786 45.8578L223.902 46.3594L224.018 43.9038L224.134 46.1737L224.25 52.6739L224.365 45.2729L224.481 44.7225L224.597 48.1556L224.713 48.0049L224.829 44.7833L224.944 49.8204L225.06 51.4917L225.176 47.6519L225.292 43.8451L225.407 46.7898L225.523 46.6799L225.639 44.417L225.755 43.8918L225.871 45.2554L225.986 41.5542L226.102 40.0631L226.218 41.9889L226.334 43.8272L226.45 47.7999L226.565 54.0348L226.681 53.9449L226.797 43.2302L226.913 43.8818L227.029 49.5764L227.144 47.1632L227.26 46.0263L227.376 50.46L227.492 51.656L227.608 47.8217L227.723 45.1533L227.839 45.0966L227.955 48.3898L228.071 46.713L228.187 48.4104L228.302 45.5544L228.418 39.9773L228.534 41.461L228.65 38.8395L228.765 34.2988L228.881 42.6642L228.997 44.417L229.113 49.4119L229.229 45.315L229.344 45.3064L229.46 39.2602L229.576 45.5522L229.692 45.6834L229.808 45.7316L229.923 43.5992L230.039 39.1206L230.155 41.945L230.271 40.7635L230.387 44.3603L230.502 45.8923L230.618 43.9676L230.734 40.3819L230.85 38.0837L230.966 39.0271L231.081 37.7868L231.197 36.7641L231.313 37.3063L231.429 40.5319L231.545 41.7251L231.66 37.7952L231.776 44.2683L231.892 46.4664L232.008 43.1913L232.123 40.7898L232.239 42.6987L232.355 46.0963L232.471 41.3105L232.587 39.3771L232.702 41.5374L232.818 43.5531L232.934 43.2934L233.05 45.6693L233.166 46.9621L233.281 41.9134L233.397 42.6279L233.513 45.6516L233.629 42.84L233.745 37.0238L233.86 41.2943L233.976 39.7894L234.092 36.6579L234.208 36.5202L234.324 35.8426L234.439 36.127L234.555 35.73L234.671 40.7536L234.787 40.5951L234.903 38.0516L235.018 35.1299L235.134 35.5352L235.25 38.3458L235.366 37.2303L235.482 39.3698L235.597 41.9472L235.713 41.7309L235.829 41.3126L235.945 39.0236L236.06 36.7721L236.176 35.3513L236.292 34.568L236.408 40.4327L236.524 35.9965L236.639 36.5208L236.755 37.5175L236.871 40.4756L236.987 40.2791L237.103 42.1859L237.218 43.4589L237.334 43.1168L237.45 40.0569L237.566 40.3464L237.682 40.3546L237.797 41.8358L237.913 44.5497L238.029 43.4451L238.145 41.3972L238.261 38.0737L238.376 39.1611L238.492 37.5424L238.608 35.2351L238.724 37.0582L238.84 37.9302L238.955 35.4771L239.071 36.1762L239.187 38.2456L239.303 36.6968L239.418 37.1778L239.534 38.809L239.65 41.981L239.766 36.2626L239.882 36.742L239.997 36.1493L240.113 33.8824L240.229 38.6101L240.345 40.588L240.461 41.6509L240.576 38.3808L240.692 36.6284L240.808 33.6038L240.924 32.8479L241.04 33.3773L241.155 37.0593L241.271 42.4429L241.387 36.8555L241.503 34.6643L241.619 37.0637L241.734 37.5603L241.85 36.6336L241.966 35.8364L242.082 39.1138L242.198 33.9772L242.313 33.8371L242.429 31.8139L242.545 42.4731L242.661 29.5221L242.776 28.0545L242.892 31.2259L243.008 26.7099L243.124 22.2704L243.24 21.7179L243.355 21.0462L243.471 23.3115L243.587 31.6581L243.703 31.6442L243.819 28.3102L243.934 28.3199L244.05 24.411L244.166 23.6714L244.282 28.7183L244.398 29.4888L244.513 30.059L244.629 26.0352L244.745 23.3668L244.861 24.3392L244.977 23.588L245.092 23.8309L245.208 13.5106L245.324 13.1881L245.44 13.1944L245.556 13.2191L245.671 18.4062L245.787 20.4092L245.903 23.6166L246.019 26.9446L246.134 29.6271L246.25 28.4139L246.366 29.6306L246.482 27.5935L246.598 27.7079L246.713 32.8824L246.829 37.6047L246.945 38.6993L247.061 35.9648L247.177 37.2785L247.292 35.1926L247.408 37.1692L247.524 36.3969L247.64 37.0541L247.756 37.7953L247.871 36.8024L247.987 38.1297L248.103 35.8837L248.219 34.5565L248.335 36.5816L248.45 43.6385L248.566 46.0156L248.682 40.8821L248.798 41.1351L248.914 42.6459L249.029 42.9685L249.145 43.2657L249.261 46.1706L249.377 46.5677L249.493 42.9685L249.608 40.9638L249.724 42.2605L249.84 41.254L249.956 44.0047L250.071 50.772L250.187 50.3716L250.303 41.7835L250.419 36.8162L250.535 42.2117L250.65 41.9276L250.766 40.7816L250.882 45.117L250.998 47.6976L251.114 30.8123L251.229 38.6956L251.345 41.6342L251.461 41.6626L251.577 43.3622L251.693 46.6914L251.808 47.6615L251.924 45.2616L252.04 33.5577L252.156 37.1921L252.272 38.791L252.387 40.9869L252.503 45.7483L252.619 47.8632L252.735 42.8044L252.851 43.2586L252.966 41.0186L253.082 38.9408L253.198 42.3784L253.314 44.3182L253.429 44.0802L253.545 42.5927L253.661 42.7319L253.777 42.5954L253.893 42.1626L254.008 42.1315L254.124 40.8844L254.24 46.3358L254.356 38.9043L254.472 35.6611L254.587 36.6673L254.703 38.9884L254.819 39.9353L254.935 41.6281L255.051 42.8522L255.166 38.4051L255.282 41.2141L255.398 40.9785L255.514 44.5979L255.63 41.6451L255.745 42.4114L255.861 43.2097L255.977 41.2744L256.093 41.63L256.209 40.3825L256.324 42.5891L256.44 42.4894L256.556 44.5822L256.672 46.5362L256.787 39.2794L256.903 39.3812L257.019 42.236L257.135 39.1956L257.251 38.9361L257.366 43.0699L257.482 43.2314L257.598 39.75L257.714 39.6695L257.83 43.1814L257.945 43.7294L258.061 46.8872L258.177 46.1738L258.293 45.3036L258.409 42.3798L258.524 41.9669L258.64 40.9072L258.756 38.8682L258.872 42.392L258.988 42.9386L259.103 45.9061L259.219 41.9569L259.335 36.2281L259.451 43.5385L259.567 41.2036L259.682 39.8017L259.798 39.5349L259.914 41.6842L260.03 38.5167L260.145 40.5612L260.261 41.895L260.377 40.9493L260.493 43.0236L260.609 45.5277L260.724 46.3709L260.84 43.7578L260.956 42.7012L261.072 43.7877L261.188 42.7148L261.303 44.9915L261.419 46.774L261.535 48.6093L261.651 46.0507L261.767 47.5047L261.882 45.9399L261.998 47.0516L262.114 41.9134L262.23 46.9533L262.346 46.2582L262.461 46.7495L262.577 40.3111L262.693 34.5496L262.809 34.1852L262.925 37.4145L263.04 42.7823L263.156 45.8253L263.272 43.2544L263.388 42.1219L263.503 42.8952L263.619 40.7948L263.735 36.5145L263.851 43.3928L263.967 45.4709L264.082 42.4543L264.198 39.8696L264.314 38.9457L264.43 37.9649L264.546 39.1623L264.661 40.3396L264.777 38.8652L264.893 36.7118L265.009 34.1583L265.125 32.707L265.24 24.8115L265.356 27.8665L265.472 32.2225L265.588 36.4473L265.704 34.3297L265.819 31.2885L265.935 30.0723L266.051 33.7401L266.167 34.4465L266.283 39.1692L266.398 37.9805L266.514 35.0468L266.63 34.7576L266.746 31.5654L266.861 33.9963L266.977 34.138L267.093 36.6571L267.209 38.0513L267.325 37.2678L267.44 36.1107L267.556 33.6819L267.672 37.5716L267.788 39.1767L267.904 44.5717L268.019 38.8862L268.135 41.11L268.251 38.6575L268.367 34.2869L268.483 36.5943L268.598 36.8229L268.714 41.5739L268.83 45.9521L268.946 39.6336L269.062 37.759L269.177 41.1024L269.293 38.6411L269.409 41.6751L269.525 40.3098L269.641 31.8054L269.756 39.798L269.872 40.926L269.988 36.8916L270.104 39.4277L270.22 40.1949L270.335 42.3578L270.451 43.3439L270.567 39.8992L270.683 41.4827L270.798 39.0259L270.914 44.8352L271.03 38.3552L271.146 44.5861L271.262 45.8433L271.377 42.2532L271.493 42.1179L271.609 40.4442L271.725 39.7715L271.841 36.7775L271.956 36.7104L272.072 41.9315L272.188 39.3883L272.304 40.0089L272.42 39.364L272.535 39.1824L272.651 41.5005L272.767 43.3952L272.883 44.641L272.999 41.8057L273.114 41.1209L273.23 39.5241L273.346 41.6184L273.462 42.9722L273.578 43.2326L273.693 47.4934L273.809 40.4509L273.925 37.9438L274.041 37.6225L274.156 37.6465L274.272 41.2819L274.388 43.7415L274.504 44.4123L274.62 42.3953L274.735 44.0417L274.851 41.0178L274.967 42.886L275.083 42.8928L275.199 42.0456L275.314 49.2101L275.43 45.306L275.546 43.5841L275.662 45.362L275.778 46.0631L275.893 45.8446L276.009 45.3033L276.125 43.2339L276.241 43.6007L276.357 43.8345L276.472 44.9926L276.588 47.3303L276.704 44.0717L276.82 40.3478L276.936 43.7959L277.051 44.3907L277.167 43.407L277.283 41.9909L277.399 42.0029L277.514 43.2273L277.63 47.1367L277.746 47.1001L277.862 45.2827L277.978 42.7385L278.093 42.6223L278.209 45.5943L278.325 39.3479L278.441 45.1338L278.557 34.2092L278.672 46.0256L278.788 46.3152L278.904 45.2765L279.02 43.3843L279.136 45.8254L279.251 44.1389L279.367 46.5492L279.483 47.5053L279.599 44.4907L279.715 42.8098L279.83 44.1736L279.946 44.1588L280.062 49.2046L280.178 46.6518L280.294 43.7573L280.409 42.5697L280.525 43.5456L280.641 40.6542L280.757 46.8724L280.872 46.7995L280.988 51.2436L281.104 48.0805L281.22 42.8753L281.336 40.2921L281.451 43.7594L281.567 38.604L281.683 46.4058L281.799 46.8875L281.915 44.4194L282.03 41.1629L282.146 44.3287L282.262 45.0319L282.378 45.3226L282.494 46.6161L282.609 46.684L282.725 41.3066L282.841 42.3287L282.957 45.0188L283.073 44.1773L283.188 44.6075L283.304 48.2635L283.42 50.1748L283.536 47.6712L283.652 48.6887L283.767 46.4302L283.883 46.3953L283.999 47.7136L284.115 48.7862L284.231 47.7237L284.346 47.2147L284.462 47.2565L284.578 49.7685L284.694 46.988L284.809 47.3428L284.925 50.259L285.041 51.1633L285.157 47.7688L285.273 41.5055L285.388 39.9806L285.504 46.8391L285.62 45.4349L285.736 50.6993L285.852 49.5544L285.967 45.1865L286.083 46.5387L286.199 44.4941L286.315 44.8319L286.431 44.1232L286.546 41.6648L286.662 44.8729L286.778 47.2824L286.894 49.2314L287.01 47.8357L287.125 43.0109L287.241 47.0287L287.357 50.6987L287.473 48.6848L287.589 44.6726L287.704 42.1576L287.82 41.7191L287.936 35.118L288.052 34.2918L288.167 45.719L288.283 48.5583L288.399 46.5894L288.515 45.9484L288.631 43.5687L288.746 48.3369L288.862 47.2403L288.978 48.2708L289.094 50.4644L289.21 48.7601L289.325 47.9225L289.441 48.2651L289.557 49.5882L289.673 48.3311L289.789 49.6659L289.904 49.9137L290.02 49.6367L290.136 45.1913L290.252 48.4557L290.368 48.3702L290.483 49.7966L290.599 51.9602L290.715 53.2016L290.831 51.1031L290.947 50.7272L291.062 51.1916L291.178 52.3357L291.294 49.1219L291.41 51.8194L291.525 52.3824L291.641 47.4307L291.757 48.7097L291.873 48.132L291.989 47.9452L292.104 47.3662L292.22 50.3125L292.336 52.5494L292.452 51.1917L292.568 52.8771L292.683 54.2408L292.799 55.4092L292.915 52.5044L293.031 57.0264L293.147 58.1301L293.262 53.9352L293.378 54.9235L293.494 53.2891L293.61 50.5326L293.726 43.5288L293.841 42.9219L293.957 44.7452L294.073 45.0302L294.189 43.3098L294.305 44.4982L294.42 42.6428L294.536 42.728L294.652 43.9728L294.768 45.2165L294.883 45.3477L294.999 45.9383L295.115 43.7396L295.231 42.9114L295.347 41.3307L295.462 39.9824L295.578 39.7544L295.694 41.558L295.81 43.7033L295.926 42.8051L296.041 42.0751L296.157 42.2272L296.273 45.4549L296.389 46.705L296.505 38.0447L296.62 15.3048L296.736 42.467L296.852 44.6815L296.968 42.7556L297.084 43.4651L297.199 44.6567L297.315 34.3032L297.431 41.9742L297.547 39.4531L297.663 27.738L297.778 41.9177L297.894 45.243L298.01 44.188L298.126 44.1777L298.241 46.545L298.357 44.5575L298.473 48.0357L298.589 46.223L298.705 47.6111L298.82 47.8293L298.936 47.7142L299.052 48.7348L299.168 48.0045L299.284 46.9551L299.399 48.3401L299.515 48.1834L299.631 49.2458L299.747 50.2221L299.863 49.3322L299.978 51.1312L300.094 49.3974L300.21 50.3446L300.326 50.8983L300.442 52.1901L300.557 48.9102L300.673 50.6719L300.789 51.621L300.905 48.7997L301.021 48.9091L301.136 51.5956L301.252 47.2229L301.368 48.4506L301.484 49.2639L301.6 49.7508L301.715 49.1647L301.831 48.3031L301.947 53.7064L302.063 52.2218L302.178 49.7129L302.294 48.346L302.41 47.4455L302.526 38.6211L302.642 36.015L302.757 35.4382L302.873 44.7542L302.989 45.8078L303.105 45.1976L303.221 47.9555L303.336 46.9309L303.452 46.8408L303.568 47.4436L303.684 47.5558L303.8 45.6382L303.915 41.5169L304.031 47.4154L304.147 46.2958L304.263 40.8631L304.379 44.6896L304.494 44.3603L304.61 36.2805L304.726 43.1538L304.842 44.0513L304.958 42.1726L305.073 43.4308L305.189 43.4463L305.305 49.7376L305.421 46.6437L305.536 46.2534L305.652 49.4176L305.768 46.602L305.884 49.5478L306 51.4668L306.115 54.6922L306.231 49.482L306.347 50.0742L306.463 48.6056L306.579 44.8277L306.694 47.0141L306.81 55.8913L306.926 53.0515L307.042 51.3895L307.158 50.8953L307.273 47.6964L307.389 47.2981L307.505 50.2394L307.621 51.4143L307.737 51.7146L307.852 50.0355L307.968 49.5427L308.084 52.7033L308.2 48.3025L308.316 52.8054L308.431 56.3058L308.547 55.698L308.663 47.5843L308.779 46.1554L308.894 41.2149L309.01 43.1898L309.126 46.8931L309.242 51.7167L309.358 46.0767L309.473 42.7278L309.589 45.8811L309.705 48.8767L309.821 47.771L309.937 53.124L310.052 58.5717L310.168 57.7064L310.284 55.6354L310.4 55.6935L310.516 55.1497L310.631 54.1551L310.747 53.652L310.863 57.269L310.979 60.2949L311.095 48.6553L311.21 50.93L311.326 52.1075L311.442 54.4971L311.558 51.7441L311.674 55.6463L311.789 55.7359L311.905 53.1398L312.021 50.8353L312.137 55.1748L312.252 57.8951L312.368 1L312.484 47.7824L312.6 49.7623L312.716 43.3381L312.831 45.0844L312.947 48.238L313.063 49.0808L313.179 44.9584L313.295 51.3118L313.41 58.2938L313.526 53.8988L313.642 54.0272L313.758 51.9626L313.874 54.191L313.989 51.0775L314.105 58.5933L314.221 62.8278L314.337 57.1187L314.453 52.1771L314.568 54.8777L314.684 56.669L314.8 56.7173L314.916 61.1707L315.032 68.1088L315.147 58.0988L315.263 56.5287L315.379 50.9863L315.495 45.548L315.61 52.016L315.726 55.9934L315.842 43.219L315.958 48.3195L316.074 50.1592L316.189 48.9115L316.305 48.777L316.421 49.2978L316.537 47.5227L316.653 53.5587L316.768 50.3719L316.884 52.5675L317 46.9349" stroke="#CED4DA" stroke-width="0.6" stroke-linecap="round" stroke-linejoin="round"/>
</svg>
