<svg width="317" height="106" viewBox="0 0 317 106" fill="none" xmlns="http://www.w3.org/2000/svg">
<path d="M0.666626 105H0.782419H0.898213H1.01401H1.1298H1.24559H1.36139H1.47718H1.59297H1.70877H1.82456H1.94035H2.05615H2.17194H2.28773H2.40353H2.51932H2.63511H2.75091H2.8667H2.98249H3.09829H3.21408H3.32987H3.44567H3.56146H3.67725H3.79305H3.90884H4.02463H4.14043H4.25622H4.37201H4.48781H4.6036H4.71939H4.83519H4.95098H5.06677H5.18257H5.29836H5.41415H5.52995H5.64574H5.76153H5.87733H5.99312H6.10891H6.22471H6.3405H6.45629H6.57209H6.68788H6.80367H6.91947H7.03526H7.15105H7.26685H7.38264H7.49843H7.61423H7.73002H7.84581H7.96161H8.0774H8.19319H8.30899H8.42478H8.54057H8.65637H8.77216H8.88795H9.00375H9.11954H9.23533H9.35113H9.46692H9.58271H9.69851H9.8143H9.93009H10.0459H10.1617H10.2775H10.3933H10.5091H10.6249H10.7406H10.8564H10.9722H11.088H11.2038H11.3196H11.4354H11.5512H11.667H11.7828H11.8986H12.0144H12.1302H12.246H12.3618H12.4775H12.5933H12.7091H12.8249H12.9407H13.0565H13.1723H13.2881H13.4039H13.5197H13.6355H13.7513H13.8671H13.9829H14.0987H14.2144H14.3302H14.446H14.5618H14.6776H14.7934H14.9092H15.025H15.1408H15.2566H15.3724H15.4882H15.604H15.7198H15.8356H15.9513H16.0671H16.1829H16.2987H16.4145H16.5303H16.6461H16.7619H16.8777H16.9935H17.1093H17.2251H17.3409H17.4567H17.5725H17.6882H17.804H17.9198H18.0356H18.1514H18.2672H18.383H18.4988H18.6146H18.7304H18.8462H18.962H19.0778H19.1936H19.3094H19.4251H19.5409H19.6567H19.7725H19.8883H20.0041H20.1199H20.2357H20.3515H20.4673H20.5831H20.6989H20.8147H20.9305H21.0463H21.162H21.2778H21.3936H21.5094H21.6252H21.741H21.8568H21.9726H22.0884H22.2042H22.32H22.4358H22.5516H22.6674H22.7832H22.8989H23.0147H23.1305H23.2463H23.3621H23.4779H23.5937H23.7095H23.8253H23.9411H24.0569H24.1727H24.2885H24.4043H24.5201H24.6358H24.7516H24.8674H24.9832H25.099H25.2148H25.3306H25.4464H25.5622H25.678H25.7938H25.9096H26.0254H26.1412H26.257H26.3727H26.4885H26.6043H26.7201H26.8359H26.9517H27.0675H27.1833H27.2991H27.4149H27.5307H27.6465H27.7623H27.8781H27.9939H28.1096L28.2254 104.425L28.3412 104.904L28.457 104.761L28.5728 104.952H28.6886L28.8044 104.808L28.9202 104.761L29.036 104.617L29.1518 104.856L29.2676 104.904H29.3834L29.4992 104.473L29.615 104.33L29.7308 104.138L29.8465 104.569H29.9623L30.0781 104.473L30.1939 104.761L30.3097 104.569L30.4255 104.713L30.5413 104.856L30.6571 104.425L30.7729 104.952H30.8887H31.0045L31.1203 104.856L31.2361 105L31.3519 104.808L31.4676 104.856L31.5834 104.904H31.6992L31.815 104.761L31.9308 104.904H32.0466L32.1624 104.952L32.2782 104.617L32.394 105L32.5098 104.952H32.6256L32.7414 104.856L32.8572 105H32.973L33.0888 104.856L33.2046 104.952L33.3203 104.713H33.4361H33.5519L33.6677 104.904L33.7835 104.952L33.8993 105L34.0151 104.952L34.1309 104.904L34.2467 104.952L34.3625 104.856L34.4783 104.952L34.5941 104.856L34.7099 105L34.8257 104.856L34.9415 105H35.0572H35.173L35.2888 104.904L35.4046 104.856L35.5204 104.808L35.6362 104.952H35.752H35.8678H35.9836L36.0994 104.856L36.2152 104.761L36.331 104.904H36.4468L36.5626 105L36.6784 104.952L36.7941 104.904H36.9099H37.0257L37.1415 104.952H37.2573L37.3731 104.904L37.4889 104.952H37.6047L37.7205 104.761L37.8363 104.952L37.9521 104.856H38.0679H38.1837L38.2995 104.952H38.4153L38.531 104.904L38.6468 105L38.7626 104.952L38.8784 105H38.9942H39.11L39.2258 104.952L39.3416 104.713L39.4574 104.904L39.5732 104.856L39.689 104.952H39.8048L39.9206 105L40.0364 104.856L40.1521 104.904L40.2679 104.713L40.3837 104.952L40.4995 104.808L40.6153 104.904L40.7311 105L40.8469 104.952H40.9627L41.0785 104.713L41.1943 104.473L41.3101 104.808L41.4259 104.952L41.5417 104.808L41.6575 104.856L41.7733 104.904L41.8891 104.808H42.0048L42.1206 104.856L42.2364 105L42.3522 104.856L42.468 104.713L42.5838 104.904L42.6996 104.856H42.8154L42.9312 104.904L43.047 104.713L43.1628 104.952L43.2786 104.856L43.3944 104.952L43.5102 105L43.6259 103.276L43.7417 104.665L43.8575 103.803L43.9733 105L44.0891 104.761L44.2049 104.856L44.3207 104.665L44.4365 104.808L44.5523 104.952L44.6681 105H44.7839L44.8997 104.856H45.0155L45.1313 104.952L45.2471 104.904L45.3629 104.713L45.4786 104.952H45.5944L45.7102 104.856L45.826 104.952L45.9418 104.761L46.0576 104.521L46.1734 104.808L46.2892 105H46.405H46.5208L46.6366 104.904L46.7524 104.808L46.8682 105L46.984 104.952L47.0997 105L47.2155 104.808L47.3313 104.904L47.4471 104.952H47.5629L47.6787 104.808L47.7945 104.952L47.9103 104.904L48.0261 105H48.1419L48.2577 104.952L48.3735 104.904L48.4893 103.851L48.6051 104.713L48.7209 104.952L48.8366 104.904L48.9524 104.952L49.0682 104.665L49.184 104.904L49.2998 104.856L49.4156 105L49.5314 104.952L49.6472 105H49.763H49.8788L49.9946 104.952H50.1104L50.2262 104.856L50.342 104.904H50.4578L50.5736 104.952H50.6893L50.8051 104.904L50.9209 104.952L51.0367 104.856L51.1525 105L51.2683 104.952L51.3841 105H51.4999L51.6157 104.904L51.7315 104.952L51.8473 105H51.9631H52.0789H52.1947L52.3104 104.952L52.4262 104.282L52.542 104.808L52.6578 105H52.7736H52.8894L53.0052 104.904L53.121 104.761L53.2368 104.952H53.3526L53.4684 104.904H53.5842L53.7 105L53.8158 104.808H53.9316L54.0474 104.904L54.1631 104.952L54.2789 104.856L54.3947 105L54.5105 104.856L54.6263 104.761L54.7421 104.713L54.8579 104.808L54.9737 104.904H55.0895L55.2053 104.761L55.3211 104.952L55.4369 104.761L55.5527 105L55.6685 104.808L55.7842 104.856L55.9 104.904H56.0158L56.1316 104.952H56.2474L56.3632 104.904L56.479 104.952L56.5948 104.617L56.7106 104.808L56.8264 104.952H56.9422L57.058 104.904L57.1738 104.808H57.2896L57.4054 104.952H57.5211L57.6369 105H57.7527L57.8685 104.904L57.9843 104.761L58.1001 104.904H58.2159L58.3317 104.952L58.4475 105L58.5633 104.186L58.6791 104.378L58.7949 104.856L58.9107 105L59.0265 104.617L59.1423 105H59.258H59.3738L59.4896 104.904L59.6054 104.952H59.7212L59.837 104.904L59.9528 105H60.0686H60.1844H60.3002L60.416 104.761L60.5318 105H60.6476L60.7634 104.904L60.8792 104.808L60.9949 104.904H61.1107L61.2265 104.569L61.3423 104.521L61.4581 105H61.5739H61.6897H61.8055L61.9213 104.856L62.0371 104.665L62.1529 104.952L62.2687 104.904H62.3845L62.5003 105L62.6161 104.808L62.7319 104.761L62.8476 104.617L62.9634 105L63.0792 104.856L63.195 104.569L63.3108 105L63.4266 104.521L63.5424 104.808L63.6582 104.521L63.774 104.808H63.8898L64.0056 104.904L64.1214 104.808L64.2372 105L64.353 104.952L64.4687 104.904L64.5845 105L64.7003 104.856L64.8161 104.569L64.9319 104.952L65.0477 104.425L65.1635 104.952L65.2793 104.33L65.3951 104.521L65.5109 104.665L65.6267 104.904L65.7425 104.808L65.8583 104.904L65.9741 104.617L66.0899 104.713L66.2056 104.761L66.3214 104.856L66.4372 104.904L66.553 104.952L66.6688 105L66.7846 104.904H66.9004L67.0162 104.521L67.132 104.665L67.2478 104.808L67.3636 104.856L67.4794 105L67.5952 104.856L67.711 104.761L67.8268 104.904H67.9425L68.0583 104.713L68.1741 104.952L68.2899 105H68.4057L68.5215 104.521L68.6373 104.808L68.7531 104.952L68.8689 104.808L68.9847 104.617L69.1005 104.904L69.2163 104.713L69.3321 104.761L69.4479 104.713L69.5637 105L69.6794 104.904L69.7952 104.856L69.911 104.904H70.0268L70.1426 104.713L70.2584 104.904L70.3742 104.761H70.49L70.6058 104.856H70.7216L70.8374 104.904L70.9532 104.425L71.069 104.904L71.1848 104.521L71.3006 104.808H71.4164H71.5321L71.6479 104.904L71.7637 104.713L71.8795 104.425L71.9953 104.282L72.1111 104.569L72.2269 104.761L72.3427 104.569L72.4585 104.808L72.5743 104.856L72.6901 104.761L72.8059 104.234L72.9217 104.33L73.0375 104.904L73.1532 105L73.269 104.713L73.3848 103.659L73.5006 104.761L73.6164 104.808L73.7322 104.856L73.848 104.761H73.9638L74.0796 104.378L74.1954 104.856L74.3112 104.952H74.427L74.5428 104.761L74.6586 104.808L74.7744 104.761L74.8901 104.904L75.0059 104.808L75.1217 104.617L75.2375 104.761L75.3533 104.904L75.4691 104.952L75.5849 104.856L75.7007 104.665L75.8165 104.761L75.9323 104.473L76.0481 104.521L76.1639 104.282L76.2797 104.904L76.3955 104.856L76.5113 104.473L76.627 104.138L76.7428 102.989L76.8586 104.665L76.9744 104.521L77.0902 104.904L77.206 104.952L77.3218 104.761L77.4376 104.425L77.5534 104.761L77.6692 104.569L77.785 104.425L77.9008 104.665L78.0166 104.761L78.1324 104.09L78.2482 104.33L78.3639 104.378L78.4797 104.617L78.5955 104.473L78.7113 104.808L78.8271 104.665L78.9429 104.856L79.0587 104.617L79.1745 104.665L79.2903 104.617L79.4061 104.521H79.5219L79.6377 104.617L79.7535 103.947L79.8693 104.33L79.9851 104.042L80.1008 104.569L80.2166 104.378L80.3324 104.665L80.4482 105L80.564 103.468L80.6798 104.665L80.7956 104.138L80.9114 104.186L81.0272 104.09L81.143 104.617L81.2588 104.473L81.3746 104.33L81.4904 104.234L81.6062 104.09L81.7219 104.042L81.8377 104.569L81.9535 104.425L82.0693 104.33L82.1851 103.228L82.3009 103.564L82.4167 104.617L82.5325 103.611L82.6483 104.521L82.7641 104.665L82.8799 103.468L82.9957 104.138L83.1115 103.516L83.2273 103.611L83.3431 104.378L83.4589 104.186H83.5746L83.6904 104.33L83.8062 103.659L83.922 103.276L84.0378 104.09L84.1536 103.755L84.2694 104.09L84.3852 103.803L84.501 103.564L84.6168 103.42L84.7326 102.941L84.8484 103.803L84.9642 104.138L85.08 103.564L85.1958 103.899L85.3116 104.473L85.4273 104.138L85.5431 103.372L85.6589 104.282L85.7747 103.851L85.8905 104.425L86.0063 104.186L86.1221 103.899L86.2379 103.42L86.3537 103.516L86.4695 103.276L86.5853 103.42L86.7011 103.516L86.8169 103.851L86.9327 104.186L87.0484 103.516L87.1642 103.133L87.28 103.803L87.3958 103.707L87.5116 104.042L87.6274 104.378L87.7432 103.468L87.859 103.611L87.9748 103.516L88.0906 103.42L88.2064 103.228L88.3222 102.75L88.438 103.564L88.5538 103.037L88.6696 102.462L88.7853 103.659L88.9011 103.133L89.0169 102.031L89.1327 102.893L89.2485 103.468L89.3643 103.659L89.4801 103.899L89.5959 103.707L89.7117 103.372L89.8275 103.18L89.9433 102.893L90.0591 103.037L90.1749 103.228L90.2907 103.707L90.4064 103.085L90.5222 103.18L90.638 102.75L90.7538 103.133L90.8696 103.372L90.9854 103.564L91.1012 102.941L91.217 102.414L91.3328 103.037L91.4486 102.941L91.5644 103.659L91.6802 103.994L91.796 103.707L91.9118 103.228L92.0276 103.755L92.1434 102.893L92.2591 102.797L92.3749 102.175L92.4907 103.276L92.6065 104.904L92.7223 102.941L92.8381 102.079L92.9539 103.516L93.0697 103.228L93.1855 103.037L93.3013 103.372L93.4171 103.18L93.5329 103.133L93.6487 102.989L93.7645 102.414L93.8803 103.42L93.9961 102.223L94.1118 103.228L94.2276 103.18L94.3434 103.276L94.4592 102.462L94.575 103.133L94.6908 102.079L94.8066 102.606L94.9224 102.797L95.0382 103.468L95.154 101.648L95.2698 102.654L95.3856 102.51L95.5014 102.127L95.6172 101.648L95.7329 102.606L95.8487 102.319L95.9645 100.691L96.0803 101.6L96.1961 101.409L96.3119 102.031L96.4277 102.366L96.5435 103.755L96.6593 103.324L96.7751 101.696L96.8909 101.505L97.0067 102.606L97.1225 102.702L97.2383 101.792L97.3541 103.516L97.4698 102.319L97.5856 101.696L97.7014 100.786L97.8172 101.313L97.933 100.786L98.0488 101.265L98.1646 103.085L98.2804 102.797L98.3962 100.93L98.512 101.122L98.6278 101.409L98.7436 101.313L98.8594 101.457L98.9752 102.366L99.0909 101.169L99.2067 102.079L99.3225 101.505L99.4383 100.643L99.5541 100.595L99.6699 101.217L99.7857 102.127L99.9015 102.51L100.017 102.366L100.133 102.319L100.249 103.516L100.365 102.797L100.48 102.702L100.596 103.803L100.712 101.648L100.828 100.786L100.944 102.223L101.059 100.643L101.175 100.547L101.291 101.457L101.407 102.989L101.523 101.457L101.638 101.505L101.754 101.026L101.87 102.51L101.986 101.457L102.102 102.606L102.217 102.558L102.333 102.414L102.449 101.122L102.565 101.696L102.681 99.9724L102.796 101.122L102.912 101.792L103.028 101.936L103.144 102.319L103.26 102.702L103.375 102.797L103.491 102.223H103.607L103.723 101.84L103.838 102.462L103.954 101.696H104.07L104.186 101.361L104.302 102.079L104.417 102.606L104.533 100.547L104.649 100.834L104.765 100.02L104.881 101.696L104.996 100.643L105.112 100.451L105.228 100.26L105.344 99.302L105.46 99.7808L105.575 101.888L105.691 100.355L105.807 99.6372L105.923 99.302L106.039 100.068L106.154 99.6372L106.27 100.691L106.386 101.217L106.502 99.1584L106.618 97.291L106.733 98.488L106.849 100.068L106.965 98.8232L107.081 98.8711L107.196 98.4401L107.312 97.1952L107.428 98.1529L107.544 98.3444L107.66 98.3923L107.775 98.105L107.891 100.882L108.007 100.355L108.123 97.674L108.239 98.1529L108.354 96.5249L108.47 98.3444L108.586 97.3389L108.702 100.691L108.818 99.8766L108.933 99.0147L109.049 97.8177L109.165 98.8711L109.281 98.7753L109.397 99.3978L109.512 101.792L109.628 99.2541L109.744 95.0884L109.86 97.3867L109.976 96.86L110.091 99.1105L110.207 99.8766L110.323 100.164L110.439 99.0147L110.554 98.4401L110.67 97.7698L110.786 99.0626L110.902 98.919L111.018 99.1105L111.133 99.5414L111.249 100.164L111.365 97.9613L111.481 98.4401H111.597L111.712 99.0147L111.828 98.4401L111.944 99.9724L112.06 101.409L112.176 98.3923L112.291 98.8711L112.407 99.4457L112.523 99.6372L112.639 98.2007L112.755 101.457L112.87 101.505L112.986 96.8122L113.102 97.8177L113.218 96.7643L113.334 99.1105L113.449 99.3499L113.565 100.643L113.681 101.313L113.797 97.4825L113.913 96.1418L114.028 96.5249L114.144 98.919L114.26 98.5359L114.376 100.02L114.491 99.2063L114.607 96.477L114.723 95.9982L114.839 99.0147L114.955 98.105L115.07 100.02L115.186 99.8287L115.302 98.7274L115.418 97.1473L115.534 98.0571L115.649 98.8711L115.765 98.1529L115.881 99.1584L115.997 101.505L116.113 101.457L116.228 97.5304L116.344 97.4346L116.46 98.919L116.576 98.2965L116.692 98.7753L116.807 101.936L116.923 100.547L117.039 97.9134L117.155 98.5359L117.271 98.0571L117.386 98.8232L117.502 99.2541L117.618 100.882L117.734 100.212L117.849 97.0994L117.965 98.105L118.081 100.355L118.197 100.403L118.313 98.6317L118.428 100.978L118.544 101.505L118.66 98.2007L118.776 98.3444L118.892 99.4936L119.007 97.9134L119.123 98.9669L119.239 100.164L119.355 99.7808L119.471 96.6206L119.586 97.2431L119.702 95.8545L119.818 98.3444L119.934 98.105L120.05 100.499L120.165 100.164L120.281 97.5304L120.397 99.302L120.513 98.0092L120.629 98.919L120.744 97.5304L120.86 100.499L120.976 100.308L121.092 96.86L121.207 97.4346L121.323 95.9503L121.439 95.4236L121.555 97.3867L121.671 99.1105L121.786 99.9245L121.902 94.8011L122.018 92.5506L122.134 94.5138L122.25 93.8913L122.365 97.3867L122.481 99.7808L122.597 100.691L122.713 97.6261L122.829 96.1418L122.944 95.0884L123.06 93.5562L123.176 93.604L123.292 99.1584L123.408 101.505L123.523 94.3223L123.639 94.1786L123.755 95.2799L123.871 96.9558L123.987 97.2431L124.102 101.84L124.218 101.217L124.334 99.7808L124.45 96.1897L124.565 97.1473L124.681 92.407L124.797 97.0037L124.913 99.9245L125.029 98.8232L125.144 93.1252L125.26 96.1418L125.376 95.6151L125.492 97.3389L125.608 97.7698L125.723 102.319L125.839 102.558L125.955 90.9705L126.071 93.6519L126.187 97.6261L126.302 90.9705L126.418 93.1731L126.534 98.1529L126.65 99.9724L126.766 97.4346L126.881 95.2799L126.997 95.4236L127.113 97.4825L127.229 98.7274L127.345 100.499L127.46 98.2486L127.576 97.0994H127.692L127.808 97.7698L127.923 99.302L128.039 99.3978L128.155 99.9245L128.271 100.738L128.387 98.6317L128.502 98.9669L128.618 101.505L128.734 99.9245L128.85 99.1584L128.966 100.403L129.081 101.457L129.197 99.2541L129.313 100.02L129.429 99.8287L129.545 99.2541L129.66 100.499L129.776 101.122L129.892 100.068L130.008 97.4346L130.124 98.2007L130.239 99.9245L130.355 98.488L130.471 99.4457L130.587 100.643L130.703 102.319L130.818 99.4457L130.934 98.2486L131.05 97.8177L131.166 97.9613L131.282 96.9558L131.397 100.882L131.513 100.595L131.629 97.5304L131.745 98.7274L131.86 99.2063L131.976 98.105L132.092 98.7274L132.208 101.217L132.324 100.212L132.439 98.6317L132.555 98.7274L132.671 99.3978L132.787 99.733L132.903 100.164L133.018 101.792L133.134 102.079L133.25 99.2063L133.366 99.1584L133.482 99.4457L133.597 98.7753L133.713 99.6372L133.829 102.462L133.945 100.834L134.061 99.6851L134.176 100.164L134.292 98.3923L134.408 99.4457L134.524 99.1105L134.64 100.643L134.755 100.26L134.871 99.1105L134.987 99.6372L135.103 100.26L135.218 100.116L135.334 100.738L135.45 101.983H135.566L135.682 99.5893L135.797 99.2541L135.913 100.212L136.029 98.7753L136.145 100.547L136.261 101.6L136.376 101.888L136.492 98.488L136.608 99.1105L136.724 100.068L136.84 100.355L136.955 100.164L137.071 102.223L137.187 101.983L137.303 98.4401L137.419 98.9669L137.534 98.6796L137.65 99.7808L137.766 98.0092L137.882 101.6L137.998 98.7753L138.113 98.3923L138.229 97.3867L138.345 99.0147L138.461 98.7753L138.576 98.5359L138.692 101.409L138.808 100.786L138.924 98.105L139.04 96.1418L139.155 98.2007L139.271 97.9134L139.387 99.2063L139.503 101.457L139.619 102.031L139.734 99.0147L139.85 99.6851L139.966 99.4936L140.082 98.8711L140.198 98.8232L140.313 101.122L140.429 101.505L140.545 100.403L140.661 100.93L140.777 99.9245L140.892 100.882L141.008 101.744L141.124 103.133L141.24 102.462L141.356 99.7808L141.471 99.302L141.587 100.738L141.703 100.691L141.819 98.9669L141.934 101.313L142.05 102.079L142.166 99.5893L142.282 98.8711L142.398 100.26L142.513 99.6851L142.629 100.882L142.745 101.936L142.861 102.75L142.977 99.6851L143.092 101.505L143.208 100.738H143.324L143.44 99.6851L143.556 101.552H143.671L143.787 98.2965L143.903 99.0626L144.019 99.4936L144.135 101.169L144.25 101.936L144.366 103.133L144.482 103.755L144.598 102.462L144.714 102.51L144.829 101.505L144.945 101.457L145.061 101.744L145.177 102.75L145.292 103.133L145.408 103.851L145.524 102.75L145.64 102.414L145.756 101.122L145.871 101.696L145.987 102.989L146.103 103.133L146.219 101.169H146.335L146.45 101.122L146.566 101.217L146.682 101.648L146.798 102.558L146.914 103.372L147.029 101.122L147.145 101.409L147.261 102.175L147.377 101.265L147.493 102.271L147.608 101.936L147.724 103.18L147.84 100.643L147.956 101.552L148.072 99.5893L148.187 102.127L148.303 101.84L148.419 102.558L148.535 102.941L148.651 100.882L148.766 101.552L148.882 101.696L148.998 101.983L149.114 102.223L149.229 103.372L149.345 103.18L149.461 101.936L149.577 101.409L149.693 102.654L149.808 102.127L149.924 102.031L150.04 103.564L150.156 102.845L150.272 101.505L150.387 101.552L150.503 101.696L150.619 101.84L150.735 101.026L150.851 103.372L150.966 102.989L151.082 101.792L151.198 97.3867L151.314 102.031L151.43 99.8766L151.545 100.068L151.661 102.845L151.777 101.265L151.893 100.882L152.009 101.217L152.124 102.941L152.24 101.744L152.356 100.212L152.472 103.228L152.587 102.893L152.703 101.505L152.819 101.313L152.935 101.361L153.051 102.079L153.166 102.606L153.282 103.037L153.398 102.414L153.514 100.834L153.63 102.271L153.745 100.978L153.861 101.361L153.977 101.122L154.093 102.797L154.209 103.18L154.324 100.547L154.44 102.271L154.556 100.786L154.672 100.595L154.788 101.074L154.903 102.797L155.019 102.989L155.135 101.313L155.251 101.744L155.367 101.074L155.482 100.93L155.598 101.361L155.714 103.899L155.83 102.462L155.945 100.02L156.061 101.552L156.177 101.696H156.293L156.409 101.361L156.524 103.899L156.64 103.324L156.756 100.93L156.872 102.51L156.988 101.888L157.103 100.595L157.219 101.6L157.335 102.75L157.451 103.659L157.567 100.403L157.682 100.978L157.798 100.786L157.914 101.169L158.03 101.744L158.146 102.75L158.261 103.42L158.377 101.217L158.493 100.547L158.609 101.983L158.725 101.409H158.84L158.956 103.372L159.072 103.659L159.188 101.217L159.303 100.691L159.419 102.75L159.535 100.308L159.651 102.079L159.767 103.468L159.882 102.941L159.998 101.744L160.114 100.451L160.23 101.696L160.346 99.4936L160.461 101.84L160.577 103.276L160.693 104.042L160.809 101.648L160.925 102.366L161.04 101.552L161.156 102.319H161.272L161.388 103.085L161.504 103.276L161.619 100.451L161.735 101.6L161.851 101.744L161.967 100.547L162.083 101.744L162.198 102.414L162.314 103.564L162.43 101.792L162.546 101.696L162.661 100.882L162.777 101.696L162.893 100.978L163.009 103.611L163.125 103.516L163.24 102.558L163.356 98.4401L163.472 101.648L163.588 102.079L163.704 102.606L163.819 103.899L163.935 103.42L164.051 100.786L164.167 101.744L164.283 100.355L164.398 101.552L164.514 101.074L164.63 102.75L164.746 103.803L164.862 101.313L164.977 100.978L165.093 101.744L165.209 102.031L165.325 101.409L165.441 103.085L165.556 102.079L165.672 101.792L165.788 102.079L165.904 101.409L166.02 100.786L166.135 101.122L166.251 102.127L166.367 103.372L166.483 101.505L166.598 101.265L166.714 100.834L166.83 101.505L166.946 102.271L167.062 102.845L167.177 103.228L167.293 101.313L167.409 100.882L167.525 101.122L167.641 100.978L167.756 100.595L167.872 103.133L167.988 102.271L168.104 101.983L168.22 102.366L168.335 100.834L168.451 100.355L168.567 99.6372L168.683 102.319L168.799 103.276L168.914 101.122L169.03 101.696L169.146 102.319L169.262 101.457L169.378 101.552L169.493 102.989L169.609 103.611L169.725 101.696L169.841 102.271L169.956 101.313L170.072 101.409L170.188 101.888L170.304 103.037L170.42 103.18L170.535 100.547L170.651 100.643L170.767 101.888L170.883 100.882L170.999 101.552L171.114 101.84L171.23 103.228L171.346 101.84L171.462 100.451L171.578 101.026L171.693 101.217L171.809 100.93L171.925 102.893L172.041 103.228L172.157 101.792L172.272 101.936L172.388 101.217L172.504 100.691L172.62 101.792L172.736 102.558L172.851 103.707L172.967 101.6L173.083 101.696L173.199 100.978L173.314 99.302L173.43 102.702L173.546 103.228L173.662 103.659L173.778 102.127L173.893 100.93L174.009 101.744L174.125 101.552L174.241 101.169L174.357 103.085L174.472 103.372L174.588 101.744L174.704 102.366L174.82 101.744L174.936 103.085L175.051 102.893L175.167 103.516L175.283 103.707L175.399 101.983L175.515 102.031L175.63 101.265L175.746 102.702L175.862 102.127L175.978 102.462L176.094 102.989L176.209 101.888L176.325 101.6L176.441 102.414L176.557 100.882L176.672 101.505L176.788 103.42L176.904 102.845L177.02 102.175L177.136 101.983L177.251 101.6L177.367 102.031L177.483 102.223L177.599 102.606L177.715 102.797L177.83 101.696L177.946 100.978L178.062 101.505L178.178 101.409L178.294 101.361L178.409 101.552L178.525 102.366L178.641 100.403L178.757 98.5838L178.873 101.122L178.988 101.6L179.104 101.361L179.22 103.276L179.336 103.659L179.452 100.308L179.567 99.4936L179.683 100.93L179.799 100.547L179.915 101.217L180.03 102.606L180.146 101.457L180.262 101.265L180.378 101.936L180.494 100.595L180.609 100.834L180.725 101.744L180.841 101.792L180.957 103.42L181.073 101.074L181.188 102.127L181.304 100.882H181.42L181.536 100.738L181.652 103.133L181.767 102.989L181.883 100.691L181.999 101.409L182.115 101.696L182.231 99.4936L182.346 100.451L182.462 102.366L182.578 102.845L182.694 99.5414L182.81 100.738L182.925 100.834L183.041 101.409L183.157 101.744L183.273 102.319L183.389 103.42L183.504 101.313L183.62 101.888L183.736 100.882L183.852 101.505L183.967 101.217L184.083 103.611L184.199 102.845L184.315 100.691L184.431 101.313L184.546 102.893L184.662 99.9724L184.778 101.648L184.894 103.42L185.01 102.941L185.125 101.936L185.241 101.648L185.357 101.6L185.473 100.834L185.589 95.9503L185.704 99.3978L185.82 103.468L185.936 101.361L186.052 97.0037L186.168 101.026L186.283 100.643L186.399 102.606H186.515L186.631 103.659L186.747 101.169L186.862 102.845L186.978 103.468L187.094 102.031L187.21 101.696L187.325 103.468L187.441 103.947L187.557 102.893L187.673 102.845L187.789 103.611L187.904 102.127L188.02 102.462L188.136 103.228L188.252 104.234L188.368 103.133L188.483 101.074L188.599 100.786L188.715 102.223L188.831 102.558L188.947 103.468L189.062 104.282L189.178 100.595L189.294 101.552L189.41 100.786L189.526 101.457L189.641 102.797L189.757 103.707L189.873 103.611L189.989 101.361L190.105 101.696L190.22 100.882L190.336 102.414L190.452 103.085L190.568 102.941L190.683 102.845L190.799 102.606L190.915 101.457L191.031 102.223L191.147 100.786L191.262 102.941L191.378 102.51L191.494 102.606L191.61 102.558L191.726 100.212L191.841 101.792L191.957 101.888L192.073 101.265L192.189 103.276L192.305 103.707L192.42 100.595L192.536 101.361L192.652 101.552L192.768 101.313L192.884 101.696L192.999 103.037L193.115 102.797L193.231 100.738L193.347 101.648L193.463 100.643L193.578 100.164L193.694 102.941L193.81 103.18L193.926 103.803L194.041 101.026L194.157 101.217L194.273 100.93L194.389 101.552L194.505 102.702L194.62 102.606L194.736 102.175L194.852 101.888L194.968 101.505L195.084 101.265L195.199 101.648L195.315 102.366L195.431 102.893L195.547 102.175L195.663 102.223L195.778 100.691L195.894 102.079L196.01 104.09L196.126 102.893L196.242 102.079L196.357 103.18L196.473 101.169L196.589 101.648L196.705 102.031L196.821 101.648L196.936 102.079L197.052 103.468L197.168 101.792L197.284 101.936L197.399 101.983L197.515 101.457L197.631 101.217L197.747 100.882L197.863 100.691L197.978 102.414L198.094 100.691L198.21 99.7808L198.326 101.122L198.442 100.834L198.557 101.6L198.673 103.372L198.789 103.468L198.905 101.648L199.021 100.355L199.136 99.733L199.252 101.552L199.368 102.414L199.484 103.18L199.6 103.085L199.715 101.936L199.831 100.882L199.947 102.175L200.063 101.696L200.179 100.068L200.294 101.6L200.41 101.552L200.526 102.702L200.642 99.9245L200.758 100.93L200.873 101.792L200.989 101.169L201.105 102.941L201.221 102.319L201.336 99.7808L201.452 99.1105L201.568 101.792L201.684 100.403L201.8 102.031L201.915 102.845L202.031 102.941L202.147 102.223L202.263 101.936L202.379 100.882L202.494 101.169L202.61 100.882L202.726 102.797L202.842 102.366L202.958 101.361H203.073L203.189 101.552L203.305 101.505L203.421 101.217L203.537 102.079L203.652 102.414L203.768 101.936L203.884 101.361L204 101.026L204.116 101.84L204.231 102.51L204.347 102.223L204.463 102.941L204.579 101.84L204.694 102.079L204.81 101.457L204.926 100.116L205.042 101.744L205.158 101.552L205.273 102.319L205.389 100.499L205.505 101.505L205.621 100.116L205.737 101.313L205.852 100.93L205.968 103.133L206.084 102.941L206.2 100.834L206.316 100.643L206.431 101.888L206.547 100.978L206.663 101.313L206.779 101.936L206.895 103.516L207.01 101.217L207.126 100.403L207.242 100.547L207.358 100.403L207.474 101.409L207.589 102.366L207.705 102.654L207.821 101.696L207.937 101.122L208.052 101.026L208.168 100.786L208.284 101.888L208.4 102.223L208.516 102.558L208.631 100.451L208.747 99.2063L208.863 99.8766L208.979 100.116L209.095 101.744L209.21 101.217L209.326 101.505L209.442 100.212L209.558 100.786L209.674 100.882L209.789 100.164L209.905 100.834L210.021 101.457L210.137 101.648L210.253 101.122L210.368 99.8766L210.484 102.079L210.6 100.882L210.716 99.8766L210.832 102.797L210.947 101.983L211.063 100.451L211.179 101.552L211.295 100.882L211.41 100.595L211.526 100.499L211.642 102.319L211.758 101.983L211.874 99.8287L211.989 99.7808L212.105 100.547L212.221 99.8287L212.337 98.0571L212.453 99.8287L212.568 100.308L212.684 98.7753L212.8 98.8711L212.916 98.0571L213.032 97.0037L213.147 100.403L213.263 101.744L213.379 102.031L213.495 99.9245L213.611 98.8232L213.726 100.068L213.842 99.4457L213.958 101.122L214.074 99.8766L214.19 101.217L214.305 98.2486L214.421 98.919L214.537 98.0571L214.653 98.8232L214.768 98.9669L214.884 99.9245L215 99.6851L215.116 97.8177L215.232 96.8122L215.347 95.663L215.463 96.046L215.579 96.9079L215.695 99.3499L215.811 100.595L215.926 95.9503L216.042 96.477L216.158 95.0884L216.274 93.604L216.39 92.8379L216.505 96.7643L216.621 96.5727L216.737 92.8858L216.853 93.1252L216.969 91.0184L217.084 95.3757L217.2 93.221L217.316 96.9558L217.432 97.291L217.548 95.663L217.663 93.3168L217.779 94.849L217.895 100.116L218.011 94.035L218.127 93.4125L218.242 96.1418L218.358 91.9761L218.474 92.9337L218.59 91.4972L218.705 90.2044L218.821 93.0773L218.937 93.7956L219.053 96.1418L219.169 93.3168L219.284 93.1731L219.4 90.5396L219.516 91.3536L219.632 95.1363L219.748 93.6998L219.863 95.4236L219.979 94.2265L220.095 94.5617L220.211 92.5506L220.327 93.4604L220.442 92.3112L220.558 95.8066L220.674 94.0829L220.79 92.2155L220.906 92.3112L221.021 90.9705L221.137 90.779L221.253 90.8269L221.369 92.3112L221.485 93.7956L221.6 91.6409L221.716 87.954L221.832 88.1934L221.948 87.4273L222.063 87.2836L222.179 89.6777L222.295 90.2044L222.411 88.0976L222.527 88.7201L222.642 91.7845L222.758 86.4696L222.874 92.1676L222.99 94.1786L223.106 91.9761L223.221 90.779L223.337 88.8158L223.453 87.9061L223.569 90.7311L223.685 91.0663L223.8 97.5304L223.916 91.1142L224.032 90.2044L224.148 89.965L224.264 94.2744L224.379 88.3849L224.495 93.2689L224.611 93.221L224.727 94.1308L224.843 92.3591L224.958 92.4549L225.074 90.8269L225.19 92.6943L225.306 95.1842L225.421 97.674L225.537 97.4346L225.653 95.1363L225.769 94.8969L225.885 94.035L226 96.1418L226.116 93.2689L226.232 94.2265L226.348 94.8969L226.464 94.2744L226.579 91.1621L226.695 88.2891L226.811 92.7422L226.927 94.0829L227.043 97.4346L227.158 95.7587L227.274 93.5562L227.39 96.6685L227.506 96.2854L227.622 92.9816L227.737 94.035L227.853 96.86L227.969 96.8122L228.085 93.604L228.201 93.2689L228.316 87.2836L228.432 94.5138L228.548 92.1197L228.664 96.2854L228.779 95.8066L228.895 93.9392L229.011 94.2744L229.127 95.663L229.243 94.6096L229.358 98.6796L229.474 100.02L229.59 97.6261L229.706 97.7698L229.822 94.1786L229.937 96.9558L230.053 95.2799L230.169 101.457L230.285 99.4457L230.401 99.8766L230.516 99.3978L230.632 97.674L230.748 98.3444L230.864 96.1897L230.98 98.488L231.095 96.5727L231.211 97.9134L231.327 96.9558L231.443 95.663L231.559 91.9282L231.674 96.3812L231.79 95.2799L231.906 97.4346L232.022 98.7753L232.137 97.291L232.253 95.9503L232.369 95.5193L232.485 97.7219L232.601 95.0405L232.716 98.5359L232.832 98.0092L232.948 98.2007L233.064 91.3057L233.18 94.9926L233.295 97.0516L233.411 97.1473L233.527 98.7753L233.643 99.4457L233.759 97.9134L233.874 95.4236L233.99 98.1529L234.106 98.7274L234.222 98.105L234.338 99.4936L234.453 97.1952L234.569 100.26L234.685 98.919L234.801 100.212L234.917 99.302L235.032 99.9245L235.148 101.409L235.264 100.068L235.38 98.8232L235.496 99.3499L235.611 99.1105L235.727 95.7109L235.843 98.1529L235.959 101.505L236.074 99.8766L236.19 100.786L236.306 97.7219L236.422 95.4236L236.538 97.3389L236.653 97.7219L236.769 98.0571L236.885 100.355L237.001 99.0147L237.117 97.3389L237.232 97.291L237.348 97.0037L237.464 100.26L237.58 100.882L237.696 100.26L237.811 94.5138L237.927 100.116L238.043 97.0516L238.159 98.7274L238.275 100.738L238.39 101.696L238.506 100.403L238.622 99.6851L238.738 100.882L238.854 98.488L238.969 97.674L239.085 98.0092L239.201 100.451L239.317 99.5414L239.432 95.4236L239.548 96.0939L239.664 98.3444L239.78 95.0884L239.896 97.5304L240.011 99.1584L240.127 98.3923L240.243 98.1529L240.359 96.2854L240.475 96.6685L240.59 98.1529L240.706 97.0994L240.822 99.3499L240.938 99.2063L241.054 98.488L241.169 96.6206L241.285 95.7109H241.401L241.517 96.2376L241.633 99.3499L241.748 99.2541L241.864 95.9982L241.98 96.9079L242.096 96.2376L242.212 92.6464L242.327 97.1473L242.443 101.122L242.559 101.169L242.675 96.3333L242.79 96.7164L242.906 93.9392L243.022 92.5506L243.138 92.5985L243.254 93.0773L243.369 94.5617L243.485 91.8803L243.601 90.6354L243.717 91.7845L243.833 93.0773L243.948 92.3112L244.064 97.5783L244.18 97.4346L244.296 98.488L244.412 93.8913L244.527 95.5193L244.643 97.0037L244.759 92.1676L244.875 101.265L244.991 100.451L245.106 97.8656L245.222 96.0939H245.338L245.454 93.8913L245.57 89.5819L245.685 90.3002L245.801 91.8803L245.917 89.151L246.033 88.0976L246.148 98.7274L246.264 93.5083L246.38 94.0829L246.496 95.2799L246.612 99.4457L246.727 91.7366L246.843 88.1455L246.959 90.9227L247.075 89.7735L247.191 90.9705L247.306 95.663L247.422 92.4549L247.538 89.3904L247.654 85.895L247.77 89.3904H247.885L248.001 91.9761L248.117 92.5028L248.233 89.7256L248.349 87.7624L248.464 89.0074L248.58 84.267L248.696 86.5654L248.812 89.2947L248.928 92.407H249.043L249.159 89.2468L249.275 88.9595L249.391 89.7256L249.506 91.8324L249.622 92.2633L249.738 96.1418L249.854 95.663L249.97 93.9392L250.085 91.593L250.201 88.2891L250.317 91.1142L250.433 88.0497L250.549 94.2265L250.664 94.1308L250.78 85.6556L250.896 89.1989L251.012 89.3904L251.128 87.8582L251.243 86.2302L251.359 91.7366L251.475 92.1197L251.591 89.0074L251.707 91.9282L251.822 90.396L251.938 91.4015L252.054 92.407L252.17 94.849L252.286 96.7643L252.401 90.9227L252.517 94.418L252.633 90.779L252.749 94.7053L252.864 94.8011L252.98 96.9079L253.096 96.6685L253.212 93.1252L253.328 94.1308L253.443 95.232L253.559 95.5193L253.675 94.849L253.791 97.6261L253.907 99.302L254.022 95.9024L254.138 93.0773L254.254 95.0405L254.37 92.3112L254.486 94.7532L254.601 98.8232L254.717 99.0147L254.833 94.4659L254.949 94.0829L255.065 92.6464L255.18 97.674L255.296 95.9024L255.412 98.1529L255.528 97.0994L255.644 95.0884L255.759 94.3223L255.875 91.593L255.991 92.0718L256.107 94.4659L256.222 98.8711L256.338 98.919L256.454 96.2376L256.57 92.6943L256.686 94.8011L256.801 95.1842L256.917 95.2799L257.033 98.0571L257.149 97.5304L257.265 94.6575L257.38 99.8287L257.496 94.8011L257.612 94.2265L257.728 97.674L257.844 97.5783L257.959 99.1105L258.075 97.0037L258.191 92.9337L258.307 95.3278L258.423 92.4549L258.538 93.0773L258.654 97.0994L258.77 95.3757L258.886 94.7053L259.002 90.5875L259.117 94.2744L259.233 93.2689L259.349 92.8858L259.465 96.4291L259.581 97.674L259.696 94.9448L259.812 90.8269L259.928 91.9282L260.044 95.1363L260.159 94.5617L260.275 97.3389L260.391 94.5617L260.507 95.8545L260.623 93.0773L260.738 92.0239L260.854 93.0295L260.97 92.0718L261.086 95.5193L261.202 96.3333L261.317 95.232L261.433 93.7956L261.549 92.0718L261.665 93.4125L261.781 94.3223L261.896 94.3702L262.012 96.0939L262.128 96.8122L262.244 96.477L262.36 96.9079L262.475 94.418L262.591 93.6998L262.707 95.5672L262.823 95.8545L262.939 93.4604L263.054 91.2099L263.17 94.7053L263.286 95.9024L263.402 90.8269L263.517 93.1252L263.633 94.6575L263.749 90.2523L263.865 89.7735L263.981 90.2523L264.096 90.6354L264.212 92.5028L264.328 95.8545L264.444 97.7219L264.56 93.7477L264.675 91.3057L264.791 94.035L264.907 91.7366L265.023 92.2155L265.139 90.1565L265.254 94.1308L265.37 90.6832L265.486 93.7956L265.602 91.3536L265.718 93.4125L265.833 91.4015L265.949 94.5138L266.065 95.3278L266.181 93.1731L266.297 89.3425L266.412 93.3168L266.528 88.0497L266.644 86.9006L266.76 91.0184L266.875 93.1252L266.991 89.7735L267.107 90.9705L267.223 91.2099L267.339 93.4604L267.454 91.1621L267.57 95.3278L267.686 95.4236L267.802 93.8435L267.918 93.0773L268.033 91.0184L268.149 92.2633L268.265 91.9761L268.381 94.2265L268.497 94.3702L268.612 91.6409L268.728 91.3536L268.844 92.0239L268.96 93.2689L269.076 92.0718L269.191 97.9613L269.307 97.0994L269.423 93.0295L269.539 90.2044L269.655 92.0239L269.77 91.7366L269.886 90.3002L270.002 95.6151L270.118 95.0884L270.233 90.6832L270.349 89.1031L270.465 89.8692L270.581 90.4438L270.697 89.0552L270.812 95.4236L270.928 95.9024L271.044 86.5654L271.16 88.2891L271.276 85.8471L271.391 89.3425L271.507 93.6519L271.623 98.8711L271.739 96.7643L271.855 92.5506L271.97 94.1786L272.086 96.046L272.202 91.2099L272.318 94.7532L272.434 97.0516L272.549 98.3444L272.665 95.8545L272.781 95.7587L272.897 93.0773L273.013 94.8011L273.128 95.4236L273.244 97.1473L273.36 97.3389L273.476 97.1473L273.591 93.604L273.707 92.3112L273.823 93.6998L273.939 94.3223L274.055 93.4604L274.17 94.2744L274.286 92.7422L274.402 90.5396L274.518 89.4862L274.634 94.2744L274.749 94.1786L274.865 97.6261L274.981 94.3223L275.097 92.407L275.213 89.0074L275.328 91.593L275.444 92.3591L275.56 90.3002L275.676 94.418L275.792 93.0295L275.907 89.9171L276.023 92.7901L276.139 93.3168L276.255 88.3849L276.371 92.1676L276.486 92.2633L276.602 91.8324L276.718 90.3002L276.834 89.0552L276.949 88.7201L277.065 90.8269L277.181 86.5175L277.297 90.5875L277.413 90.3002L277.528 86.4217L277.644 88.6722L277.76 90.0129L277.876 92.1676L277.992 90.5396L278.107 93.4125L278.223 93.5083L278.339 90.9705L278.455 86.2781L278.571 86.5175L278.686 90.396L278.802 90.8269L278.918 91.3057L279.034 90.9705L279.15 88.4328L279.265 86.7569L279.381 83.1657L279.497 88.0976L279.613 86.1344L279.729 90.6354L279.844 91.2578L279.96 87.6188L280.076 82.8306L280.192 86.326L280.307 87.1878L280.423 84.7937L280.539 87.523L280.655 88.9595L280.771 83.7403L280.886 82.8785L281.002 85.2726L281.118 86.4696L281.234 87.954L281.35 85.7993L281.465 86.8527L281.581 83.0221L281.697 82.5433L281.813 86.0866L281.929 83.1657L282.044 84.7937L282.16 89.7256L282.276 91.6888L282.392 84.8895L282.508 84.2192L282.623 80.0055L282.739 83.884L282.855 87.4273L282.971 90.2044L283.087 89.6298L283.202 84.8416L283.318 84.9374L283.434 85.2726L283.55 85.6556L283.666 84.3628L283.781 87.1878L283.897 88.3849L284.013 85.2726L284.129 80.3407L284.244 80.3886L284.36 79.0479L284.476 79.9098L284.592 83.3094L284.708 82.8306L284.823 82.3039L284.939 80.7238L285.055 77.7551L285.171 83.2615L285.287 80.1013L285.402 88.5764L285.518 86.9484L285.634 86.0866L285.75 84.267L285.866 81.6335L285.981 84.6022L286.097 87.0442L286.213 91.1621L286.329 95.1842L286.445 92.5985L286.56 82.8785L286.676 84.4107L286.792 86.1823L286.908 84.8895L287.024 88.7201L287.139 88.8158L287.255 90.8748L287.371 85.4162L287.487 96.477L287.602 96.1418L287.718 90.3002L287.834 90.4438L287.95 89.5341L288.066 85.3683L288.181 86.5654L288.297 83.9797L288.413 85.3204L288.529 85.8471L288.645 88.5285L288.76 89.5341L288.876 81.011L288.992 76.9889L289.108 81.442L289.224 86.0866L289.339 82.8785L289.455 84.267L289.571 88.4807L289.687 80.1971L289.803 81.7293L289.918 84.5064L290.034 83.8361L290.15 84.5064L290.266 87.3794L290.382 85.895L290.497 82.6869L290.613 83.1179L290.729 84.8416L290.845 76.7495L290.96 84.3149L291.076 86.6611L291.192 84.3149L291.308 90.8269L291.424 85.7035L291.539 89.0074L291.655 86.9006L291.771 84.7937L291.887 91.9282L292.003 88.6722L292.118 82.8306L292.234 82.3996L292.35 84.0276L292.466 89.7256L292.582 86.5654L292.697 92.5985L292.813 91.7845L292.929 89.3425L293.045 84.9374L293.161 85.9908L293.276 86.9963L293.392 84.4586L293.508 86.0387L293.624 89.5341L293.74 84.6501L293.855 81.825L293.971 81.7293L294.087 81.9208L294.203 80.4365L294.318 84.8895L294.434 88.0018L294.55 82.256L294.666 82.1123L294.782 81.5377L294.897 82.3518L295.013 81.6335L295.129 84.6501L295.245 87.7624L295.361 84.5064L295.476 80.4843L295.592 80.1013L295.708 77.5156L295.824 77.5635L295.94 82.6869L296.055 82.256L296.171 80.3886L296.287 82.0166L296.403 79.1436L296.519 80.0055L296.634 78.4733L296.75 82.0645L296.866 82.2081L296.982 78.1381L297.098 77.1805L297.213 76.175L297.329 79.6703L297.445 73.8766L297.561 79.4309L297.676 84.9853L297.792 77.8508L297.908 79.5746L298.024 82.3996L298.14 77.2762L298.255 76.4622L298.371 79.3352L298.487 79.0479L298.603 77.7551L298.719 78.1381L298.834 78.5212L298.95 79.4788L299.066 84.7937L299.182 86.5654L299.298 84.2192L299.413 76.2707L299.529 75.2652L299.645 73.9245L299.761 74.3554L299.877 77.0368L299.992 83.9797L300.108 83.2615L300.224 80.6759L300.34 78.5212L300.456 81.2983L300.571 80.4843L300.687 76.7017L300.803 82.5433L300.919 84.6501L301.035 79.0479L301.15 80.4843L301.266 78.0902L301.382 76.175L301.498 78.9042L301.613 83.0221L301.729 82.3039L301.845 76.9411L301.961 77.1805H302.077H302.192L302.308 79.9576L302.424 85.9908L302.54 87.1878L302.656 75.2173L302.771 75.2652L302.887 75.6004L303.003 70.86L303.119 75.6961L303.235 76.8453L303.35 74.4033L303.466 70.5249L303.582 68.035L303.698 71.9613L303.814 66.8858L303.929 72.6796L304.045 75.361L304.161 76.1271L304.277 79.3352L304.393 69.8066L304.508 73.302L304.624 64.4917L304.74 69.2799L304.856 79.2873L304.971 87.9061L305.087 82.0166L305.203 75.9834L305.319 72.3923L305.435 74.9779L305.55 76.6059L305.666 85.1768L305.782 75.6004L305.898 71.291L306.014 63.0074L306.129 64.5396L306.245 68.849L306.361 67.4604L306.477 76.8932L306.593 69.9503L306.708 58.267L306.824 63.0552L306.94 64.8269L307.056 65.593L307.172 65.1142L307.287 72.5359L307.403 75.361L307.519 67.6519L307.635 66.7901L307.751 67.8913L307.866 74.0203L307.982 77.0847L308.098 79.6703L308.214 82.5912L308.329 75.1215L308.445 79.5746L308.561 87.5709L308.677 82.3996L308.793 78.5691L308.908 90.6832L309.024 89.9171L309.14 82.4954L309.256 77.8987L309.372 75.361L309.487 79.1915L309.603 75.361L309.719 85.6077L309.835 82.8785L309.951 83.5967L310.066 75.9355L310.182 77.3241L310.298 79.5746L310.414 80.1492L310.53 87.3794L310.645 81.5856L310.761 73.1584L310.877 72.919L310.993 77.2284L311.109 74.7385L311.224 78.0902L311.34 83.5009L311.456 83.6446L311.572 73.1105L311.687 75.0737L311.803 74.7385L311.919 73.8766L312.035 80.9153L312.151 83.7403L312.266 80.5801L312.382 67.5083L312.498 68.7532L312.614 70.9079L312.73 72.5359L312.845 77.0847L312.961 81.2505L313.077 78.7606L313.193 71.8177L313.309 68.9926L313.424 69.663L313.54 73.1105L313.656 72.0092L313.772 78.8085L313.888 82.9742L314.003 81.6335L314.119 75.6482L314.235 66.4549L314.351 67.0295L314.467 65.7367L314.582 63.2947L314.698 46.4401L314.814 1L314.93 66.5506L315.045 72.7753L315.161 71.4346L315.277 71.3867L315.393 81.2983L315.509 80.8195L315.624 73.302L315.74 71.5304L315.856 69.5672L315.972 72.0092L316.088 78.4254L316.203 81.7772L316.319 84.267L316.435 74.547L316.551 72.3444L316.667 71.7219" stroke="#CED4DA" stroke-width="0.6" stroke-linecap="round" stroke-linejoin="round"/>
</svg>
