<svg width="316" height="118" viewBox="0 0 316 118" fill="none" xmlns="http://www.w3.org/2000/svg">
<circle cx="158" cy="59" r="59" fill="#F8F9FA"/>
<path d="M158 0C170.46 1.48579e-07 182.599 3.94444 192.679 11.268C202.759 18.5916 210.262 28.9182 214.112 40.768L158 59L158 0Z" fill="#495057"/>
<path d="M214.112 40.768C217.475 51.1164 217.91 62.193 215.37 72.7733C212.83 83.3535 207.413 93.0253 199.719 100.719C192.025 108.413 182.354 113.83 171.773 116.37C161.193 118.91 150.116 118.475 139.768 115.112L158 59L214.112 40.768Z" fill="#ADB5BD"/>
<path d="M139.768 115.112C127.918 111.262 117.592 103.759 110.268 93.6793L158 59L139.768 115.112Z" fill="#CED4DA"/>
<path d="M110.268 93.6793C101.447 81.5388 97.5844 66.4935 99.4652 51.6053L158 59L110.268 93.6793Z" fill="#DEE2E6"/>
<path d="M99.4398 51.8097C100.804 40.6972 105.302 30.2024 112.409 21.5509C119.515 12.8994 128.936 6.44852 139.572 2.95165L158 59L99.4398 51.8097Z" fill="#E9ECEF"/>
<path d="M139.279 3.0489C145.445 0.985741 151.91 -0.0439586 158.412 0.00143801L158 59L139.279 3.0489Z" fill="#F8F9FA"/>
</svg>
